{
.appVersion = "1364";
DisplayStrings = (

glyphs = (
{
color = 4;
glyphname = A;
layers = (
{
anchors = (
{
name = bottom;
position = "{553, 0}";
},
{
name = ogonek;
position = "{928, 0}";
},
{
name = top;
position = "{553, 696}";
}
);
layerId = "863809E3-B3D3-4728-B9C6-73F0AB5A9F00";
paths = (
{
closed = 1;
nodes = (
"86 -11 OFFCURVE",
"174 -1 OFFCURVE",
"298 -1 CURVE SMOOTH",
"415 -1 OFFCURVE",
"471 -12 OFFCURVE",
"526 -17 CURVE",
"541 40 OFFCURVE",
"544 165 OFFCURVE",
"533 222 CURVE",
"505 222 LINE",
"505 272 LINE",
"592 272 LINE",
"592 222 LINE",
"564 222 LINE",
"556 165 OFFCURVE",
"559 40 OFFCURVE",
"571 -17 CURVE",
"626 -12 OFFCURVE",
"731 -1 OFFCURVE",
"842 -1 CURVE SMOOTH",
"950 -1 OFFCURVE",
"1024 -12 OFFCURVE",
"1079 -17 CURVE",
"1101 40 OFFCURVE",
"1104 165 OFFCURVE",
"1086 222 CURVE",
"1043 237 OFFCURVE",
"1006 274 OFFCURVE",
"1006 392 CURVE SMOOTH",
"1006 515 OFFCURVE",
"1033 785 OFFCURVE",
"808 785 CURVE SMOOTH",
"647 785 OFFCURVE",
"469 764 OFFCURVE",
"333 764 CURVE SMOOTH",
"199 764 OFFCURVE",
"127 770 OFFCURVE",
"72 775 CURVE",
"45 712 OFFCURVE",
"45 582 OFFCURVE",
"68 533 CURVE",
"129 523 OFFCURVE",
"119 448 OFFCURVE",
"108 374 CURVE SMOOTH",
"98 303 OFFCURVE",
"84 235 OFFCURVE",
"20 222 CURVE",
"2 165 OFFCURVE",
"5 40 OFFCURVE",
"27 -17 CURVE"
);
},
{
closed = 1;
nodes = (
"512 466 LINE",
"584 466 LINE",
"584 419 LINE",
"512 419 LINE"
);
}
);
width = 1106;
}
);
leftKerningGroup = A;
rightKerningGroup = A;
unicode = 0041;
},
{
color = 5;
glyphname = Aacute;
layers = (
{
anchors = (
{
name = bottom;
position = "{553, 0}";
},
{
name = top;
position = "{553, 799}";
}
);
layerId = "863809E3-B3D3-4728-B9C6-73F0AB5A9F00";
paths = (
{
closed = 1;
nodes = (
"86 -11 OFFCURVE",
"174 -1 OFFCURVE",
"298 -1 CURVE SMOOTH",
"415 -1 OFFCURVE",
"471 -12 OFFCURVE",
"526 -17 CURVE",
"541 40 OFFCURVE",
"544 165 OFFCURVE",
"533 222 CURVE",
"505 222 LINE",
"505 272 LINE",
"592 272 LINE",
"592 222 LINE",
"564 222 LINE",
"556 165 OFFCURVE",
"559 40 OFFCURVE",
"571 -17 CURVE",
"626 -12 OFFCURVE",
"731 -1 OFFCURVE",
"842 -1 CURVE SMOOTH",
"950 -1 OFFCURVE",
"1024 -12 OFFCURVE",
"1079 -17 CURVE",
"1101 40 OFFCURVE",
"1104 165 OFFCURVE",
"1086 222 CURVE",
"1043 237 OFFCURVE",
"1006 274 OFFCURVE",
"1006 392 CURVE SMOOTH",
"1006 515 OFFCURVE",
"1033 785 OFFCURVE",
"808 785 CURVE SMOOTH",
"772 785 LINE",
"774 791 OFFCURVE",
"776 798 OFFCURVE",
"776 803 CURVE",
"742 846 OFFCURVE",
"634 877 OFFCURVE",
"530 877 CURVE SMOOTH",
"481 877 OFFCURVE",
"433 870 OFFCURVE",
"394 854 CURVE",
"316 745 OFFCURVE",
"317 607 OFFCURVE",
"380 539 CURVE",
"284 575 OFFCURVE",
"286 694 OFFCURVE",
"310 764 CURVE",
"174 765 OFFCURVE",
"124 770 OFFCURVE",
"72 775 CURVE",
"45 712 OFFCURVE",
"45 582 OFFCURVE",
"68 533 CURVE",
"129 523 OFFCURVE",
"119 448 OFFCURVE",
"108 374 CURVE SMOOTH",
"98 303 OFFCURVE",
"84 235 OFFCURVE",
"20 222 CURVE",
"2 165 OFFCURVE",
"5 40 OFFCURVE",
"27 -17 CURVE"
);
},
{
closed = 1;
nodes = (
"512 466 LINE",
"584 466 LINE",
"584 419 LINE",
"512 419 LINE"
);
}
);
width = 1106;
}
);
leftKerningGroup = A;
leftMetricsKey = "=A";
rightKerningGroup = A;
rightMetricsKey = "=A";
unicode = 00C1;
},
{
color = 5;
glyphname = Abreve;
layers = (
{
anchors = (
{
name = bottom;
position = "{553, 0}";
},
{
name = top;
position = "{553, 799}";
}
);
layerId = "863809E3-B3D3-4728-B9C6-73F0AB5A9F00";
paths = (
{
closed = 1;
nodes = (
"86 -11 OFFCURVE",
"174 -1 OFFCURVE",
"298 -1 CURVE SMOOTH",
"415 -1 OFFCURVE",
"471 -12 OFFCURVE",
"526 -17 CURVE",
"541 40 OFFCURVE",
"544 165 OFFCURVE",
"533 222 CURVE",
"505 222 LINE",
"505 272 LINE",
"592 272 LINE",
"592 222 LINE",
"564 222 LINE",
"556 165 OFFCURVE",
"559 40 OFFCURVE",
"571 -17 CURVE",
"626 -12 OFFCURVE",
"731 -1 OFFCURVE",
"842 -1 CURVE SMOOTH",
"950 -1 OFFCURVE",
"1024 -12 OFFCURVE",
"1079 -17 CURVE",
"1101 40 OFFCURVE",
"1104 165 OFFCURVE",
"1086 222 CURVE",
"1043 237 OFFCURVE",
"1006 274 OFFCURVE",
"1006 392 CURVE SMOOTH",
"1006 508 OFFCURVE",
"1030 754 OFFCURVE",
"845 782 CURVE",
"845 803 OFFCURVE",
"844 825 OFFCURVE",
"840 847 CURVE",
"805 865 OFFCURVE",
"713 874 OFFCURVE",
"672 875 CURVE",
"652 845 OFFCURVE",
"611 830 OFFCURVE",
"551 830 CURVE SMOOTH",
"491 830 OFFCURVE",
"451 845 OFFCURVE",
"430 875 CURVE",
"385 874 OFFCURVE",
"287 865 OFFCURVE",
"252 847 CURVE",
"232 720 OFFCURVE",
"286 606 OFFCURVE",
"392 553 CURVE",
"283 569 OFFCURVE",
"220 662 OFFCURVE",
"210 766 CURVE",
"149 768 OFFCURVE",
"107 771 OFFCURVE",
"72 775 CURVE",
"45 712 OFFCURVE",
"45 582 OFFCURVE",
"68 533 CURVE",
"129 523 OFFCURVE",
"119 448 OFFCURVE",
"108 374 CURVE SMOOTH",
"98 303 OFFCURVE",
"84 235 OFFCURVE",
"20 222 CURVE",
"2 165 OFFCURVE",
"5 40 OFFCURVE",
"27 -17 CURVE"
);
},
{
closed = 1;
nodes = (
"512 466 LINE",
"584 466 LINE",
"584 419 LINE",
"512 419 LINE"
);
}
);
width = 1106;
}
);
leftKerningGroup = A;
leftMetricsKey = "=A";
rightKerningGroup = A;
rightMetricsKey = "=A";
unicode = 0102;
},
{
color = 5;
glyphname = Abreveacute;
layers = (
{
anchors = (
{
name = bottom;
position = "{553, 0}";
}
);
layerId = "863809E3-B3D3-4728-B9C6-73F0AB5A9F00";
paths = (
{
closed = 1;
nodes = (
"86 -11 OFFCURVE",
"174 -1 OFFCURVE",
"298 -1 CURVE SMOOTH",
"415 -1 OFFCURVE",
"471 -12 OFFCURVE",
"526 -17 CURVE",
"541 40 OFFCURVE",
"544 165 OFFCURVE",
"533 222 CURVE",
"505 222 LINE",
"505 272 LINE",
"592 272 LINE",
"592 222 LINE",
"564 222 LINE",
"556 165 OFFCURVE",
"559 40 OFFCURVE",
"571 -17 CURVE",
"626 -12 OFFCURVE",
"731 -1 OFFCURVE",
"842 -1 CURVE SMOOTH",
"950 -1 OFFCURVE",
"1024 -12 OFFCURVE",
"1079 -17 CURVE",
"1101 40 OFFCURVE",
"1104 165 OFFCURVE",
"1086 222 CURVE",
"1043 237 OFFCURVE",
"1006 274 OFFCURVE",
"1006 392 CURVE SMOOTH",
"1006 508 OFFCURVE",
"1030 754 OFFCURVE",
"845 782 CURVE",
"845 803 OFFCURVE",
"844 825 OFFCURVE",
"840 847 CURVE",
"824 855 OFFCURVE",
"795 862 OFFCURVE",
"764 866 CURVE",
"767 876 OFFCURVE",
"769 885 OFFCURVE",
"771 894 CURVE",
"742 927 OFFCURVE",
"650 953 OFFCURVE",
"563 953 CURVE SMOOTH",
"524 953 OFFCURVE",
"486 948 OFFCURVE",
"455 936 CURVE",
"421 890 OFFCURVE",
"385 783 OFFCURVE",
"424 706 CURVE",
"375 745 OFFCURVE",
"372 816 OFFCURVE",
"388 873 CURVE",
"339 869 OFFCURVE",
"278 860 OFFCURVE",
"252 847 CURVE",
"232 720 OFFCURVE",
"286 606 OFFCURVE",
"392 553 CURVE",
"283 569 OFFCURVE",
"220 662 OFFCURVE",
"210 766 CURVE",
"149 768 OFFCURVE",
"107 771 OFFCURVE",
"72 775 CURVE",
"45 712 OFFCURVE",
"45 582 OFFCURVE",
"68 533 CURVE",
"129 523 OFFCURVE",
"119 448 OFFCURVE",
"108 374 CURVE SMOOTH",
"98 303 OFFCURVE",
"84 235 OFFCURVE",
"20 222 CURVE",
"2 165 OFFCURVE",
"5 40 OFFCURVE",
"27 -17 CURVE"
);
},
{
closed = 1;
nodes = (
"512 466 LINE",
"584 466 LINE",
"584 419 LINE",
"512 419 LINE"
);
}
);
width = 1106;
}
);
leftKerningGroup = A;
leftMetricsKey = "=A";
rightKerningGroup = A;
rightMetricsKey = "=A";
unicode = 1EAE;
},
{
color = 5;
glyphname = Abrevedotbelow;
layers = (
{
anchors = (
{
name = bottom;
position = "{553, -103}";
},
{
name = top;
position = "{553, 799}";
}
);
layerId = "863809E3-B3D3-4728-B9C6-73F0AB5A9F00";
paths = (
{
closed = 1;
nodes = (
"700 -173 OFFCURVE",
"756 -89 OFFCURVE",
"756 -4 CURVE SMOOTH",
"756 -3 LINE",
"784 -2 OFFCURVE",
"813 -1 OFFCURVE",
"842 -1 CURVE SMOOTH",
"950 -1 OFFCURVE",
"1024 -12 OFFCURVE",
"1079 -17 CURVE",
"1101 40 OFFCURVE",
"1104 165 OFFCURVE",
"1086 222 CURVE",
"1043 237 OFFCURVE",
"1006 274 OFFCURVE",
"1006 392 CURVE SMOOTH",
"1006 508 OFFCURVE",
"1030 754 OFFCURVE",
"845 782 CURVE",
"845 803 OFFCURVE",
"844 825 OFFCURVE",
"840 847 CURVE",
"805 865 OFFCURVE",
"713 874 OFFCURVE",
"672 875 CURVE",
"652 845 OFFCURVE",
"611 830 OFFCURVE",
"551 830 CURVE SMOOTH",
"491 830 OFFCURVE",
"451 845 OFFCURVE",
"430 875 CURVE",
"385 874 OFFCURVE",
"287 865 OFFCURVE",
"252 847 CURVE",
"232 720 OFFCURVE",
"286 606 OFFCURVE",
"392 553 CURVE",
"283 569 OFFCURVE",
"220 662 OFFCURVE",
"210 766 CURVE",
"149 768 OFFCURVE",
"107 771 OFFCURVE",
"72 775 CURVE",
"45 712 OFFCURVE",
"45 582 OFFCURVE",
"68 533 CURVE",
"129 523 OFFCURVE",
"119 448 OFFCURVE",
"108 374 CURVE SMOOTH",
"98 303 OFFCURVE",
"84 235 OFFCURVE",
"20 222 CURVE",
"2 165 OFFCURVE",
"5 40 OFFCURVE",
"27 -17 CURVE",
"84 -11 OFFCURVE",
"168 -2 OFFCURVE",
"286 -1 CURVE",
"290 67 OFFCURVE",
"330 146 OFFCURVE",
"416 151 CURVE",
"346 119 OFFCURVE",
"319 59 OFFCURVE",
"319 5 CURVE SMOOTH",
"319 -97 OFFCURVE",
"395 -173 OFFCURVE",
"541 -173 CURVE SMOOTH"
);
},
{
closed = 1;
nodes = (
"504 272 LINE",
"592 272 LINE",
"592 221 LINE",
"504 221 LINE"
);
},
{
closed = 1;
nodes = (
"512 466 LINE",
"584 466 LINE",
"584 419 LINE",
"512 419 LINE"
);
}
);
width = 1106;
}
);
leftKerningGroup = A;
leftMetricsKey = "=A";
rightKerningGroup = A;
rightMetricsKey = "=A";
unicode = 1EB6;
},
{
color = 5;
glyphname = Abrevegrave;
layers = (
{
anchors = (
{
name = bottom;
position = "{553, 0}";
}
);
layerId = "863809E3-B3D3-4728-B9C6-73F0AB5A9F00";
paths = (
{
closed = 1;
nodes = (
"86 -11 OFFCURVE",
"174 -1 OFFCURVE",
"298 -1 CURVE SMOOTH",
"415 -1 OFFCURVE",
"471 -12 OFFCURVE",
"526 -17 CURVE",
"541 40 OFFCURVE",
"544 165 OFFCURVE",
"533 222 CURVE",
"505 222 LINE",
"505 272 LINE",
"592 272 LINE",
"592 222 LINE",
"564 222 LINE",
"556 165 OFFCURVE",
"559 40 OFFCURVE",
"571 -17 CURVE",
"626 -12 OFFCURVE",
"731 -1 OFFCURVE",
"842 -1 CURVE SMOOTH",
"950 -1 OFFCURVE",
"1024 -12 OFFCURVE",
"1079 -17 CURVE",
"1101 40 OFFCURVE",
"1104 165 OFFCURVE",
"1086 222 CURVE",
"1043 237 OFFCURVE",
"1006 274 OFFCURVE",
"1006 392 CURVE SMOOTH",
"1006 508 OFFCURVE",
"1030 754 OFFCURVE",
"845 782 CURVE",
"845 803 OFFCURVE",
"844 825 OFFCURVE",
"840 847 CURVE",
"815 860 OFFCURVE",
"763 868 OFFCURVE",
"720 872 CURVE",
"711 897 OFFCURVE",
"699 919 OFFCURVE",
"688 934 CURVE",
"656 948 OFFCURVE",
"616 953 OFFCURVE",
"575 953 CURVE SMOOTH",
"489 953 OFFCURVE",
"400 927 OFFCURVE",
"372 892 CURVE",
"383 827 OFFCURVE",
"429 758 OFFCURVE",
"480 709 CURVE",
"406 731 OFFCURVE",
"357 799 OFFCURVE",
"339 868 CURVE",
"304 863 OFFCURVE",
"270 856 OFFCURVE",
"252 847 CURVE",
"232 720 OFFCURVE",
"286 606 OFFCURVE",
"392 553 CURVE",
"283 569 OFFCURVE",
"220 662 OFFCURVE",
"210 766 CURVE",
"149 768 OFFCURVE",
"107 771 OFFCURVE",
"72 775 CURVE",
"45 712 OFFCURVE",
"45 582 OFFCURVE",
"68 533 CURVE",
"129 523 OFFCURVE",
"119 448 OFFCURVE",
"108 374 CURVE SMOOTH",
"98 303 OFFCURVE",
"84 235 OFFCURVE",
"20 222 CURVE",
"2 165 OFFCURVE",
"5 40 OFFCURVE",
"27 -17 CURVE"
);
},
{
closed = 1;
nodes = (
"512 466 LINE",
"584 466 LINE",
"584 419 LINE",
"512 419 LINE"
);
}
);
width = 1106;
}
);
leftKerningGroup = A;
leftMetricsKey = "=A";
rightKerningGroup = A;
rightMetricsKey = "=A";
unicode = 1EB0;
},
{
color = 5;
glyphname = Abrevehookabove;
layers = (
{
anchors = (
{
name = bottom;
position = "{553, 0}";
}
);
layerId = "863809E3-B3D3-4728-B9C6-73F0AB5A9F00";
paths = (
{
closed = 1;
nodes = (
"86 -11 OFFCURVE",
"174 -1 OFFCURVE",
"298 -1 CURVE SMOOTH",
"415 -1 OFFCURVE",
"471 -12 OFFCURVE",
"526 -17 CURVE",
"541 40 OFFCURVE",
"544 165 OFFCURVE",
"533 222 CURVE",
"505 222 LINE",
"505 272 LINE",
"592 272 LINE",
"592 222 LINE",
"564 222 LINE",
"556 165 OFFCURVE",
"559 40 OFFCURVE",
"571 -17 CURVE",
"626 -12 OFFCURVE",
"731 -1 OFFCURVE",
"842 -1 CURVE SMOOTH",
"950 -1 OFFCURVE",
"1024 -12 OFFCURVE",
"1079 -17 CURVE",
"1101 40 OFFCURVE",
"1104 165 OFFCURVE",
"1086 222 CURVE",
"1043 237 OFFCURVE",
"1006 274 OFFCURVE",
"1006 392 CURVE SMOOTH",
"1006 508 OFFCURVE",
"1030 754 OFFCURVE",
"845 782 CURVE",
"845 803 OFFCURVE",
"844 825 OFFCURVE",
"840 847 CURVE",
"820 857 OFFCURVE",
"780 865 OFFCURVE",
"743 869 CURVE",
"728 921 OFFCURVE",
"680 953 OFFCURVE",
"601 953 CURVE SMOOTH",
"518 953 OFFCURVE",
"455 941 OFFCURVE",
"386 937 CURVE",
"369 901 OFFCURVE",
"370 801 OFFCURVE",
"385 758 CURVE",
"411 761 OFFCURVE",
"436 752 OFFCURVE",
"450 723 CURVE",
"421 737 OFFCURVE",
"389 734 OFFCURVE",
"368 731 CURVE",
"350 764 OFFCURVE",
"341 823 OFFCURVE",
"343 868 CURVE",
"307 864 OFFCURVE",
"270 857 OFFCURVE",
"252 847 CURVE",
"232 720 OFFCURVE",
"286 606 OFFCURVE",
"392 553 CURVE",
"283 569 OFFCURVE",
"220 662 OFFCURVE",
"210 766 CURVE",
"149 768 OFFCURVE",
"107 771 OFFCURVE",
"72 775 CURVE",
"45 712 OFFCURVE",
"45 582 OFFCURVE",
"68 533 CURVE",
"129 523 OFFCURVE",
"119 448 OFFCURVE",
"108 374 CURVE SMOOTH",
"98 303 OFFCURVE",
"84 235 OFFCURVE",
"20 222 CURVE",
"2 165 OFFCURVE",
"5 40 OFFCURVE",
"27 -17 CURVE"
);
},
{
closed = 1;
nodes = (
"512 466 LINE",
"584 466 LINE",
"584 419 LINE",
"512 419 LINE"
);
}
);
width = 1106;
}
);
leftKerningGroup = A;
leftMetricsKey = "=A";
rightKerningGroup = A;
rightMetricsKey = "=A";
unicode = 1EB2;
},
{
color = 5;
glyphname = Abrevetilde;
layers = (
{
anchors = (
{
name = bottom;
position = "{553, 0}";
}
);
layerId = "863809E3-B3D3-4728-B9C6-73F0AB5A9F00";
paths = (
{
closed = 1;
nodes = (
"86 -11 OFFCURVE",
"174 -1 OFFCURVE",
"298 -1 CURVE SMOOTH",
"415 -1 OFFCURVE",
"471 -12 OFFCURVE",
"526 -17 CURVE",
"541 40 OFFCURVE",
"544 165 OFFCURVE",
"533 222 CURVE",
"505 222 LINE",
"505 272 LINE",
"592 272 LINE",
"592 222 LINE",
"564 222 LINE",
"556 165 OFFCURVE",
"559 40 OFFCURVE",
"571 -17 CURVE",
"626 -12 OFFCURVE",
"731 -1 OFFCURVE",
"842 -1 CURVE SMOOTH",
"950 -1 OFFCURVE",
"1024 -12 OFFCURVE",
"1079 -17 CURVE",
"1101 40 OFFCURVE",
"1104 165 OFFCURVE",
"1086 222 CURVE",
"1043 237 OFFCURVE",
"1006 274 OFFCURVE",
"1006 392 CURVE SMOOTH",
"1006 508 OFFCURVE",
"1030 754 OFFCURVE",
"845 782 CURVE",
"845 803 OFFCURVE",
"844 825 OFFCURVE",
"840 847 CURVE",
"825 855 OFFCURVE",
"801 861 OFFCURVE",
"774 865 CURVE",
"775 884 OFFCURVE",
"776 905 OFFCURVE",
"776 928 CURVE",
"750 943 OFFCURVE",
"681 951 OFFCURVE",
"650 952 CURVE",
"640 934 OFFCURVE",
"622 923 OFFCURVE",
"595 923 CURVE SMOOTH",
"557 923 OFFCURVE",
"514 948 OFFCURVE",
"461 948 CURVE SMOOTH",
"382 948 OFFCURVE",
"341 891 OFFCURVE",
"335 747 CURVE",
"316 783 OFFCURVE",
"317 829 OFFCURVE",
"322 865 CURVE",
"293 861 OFFCURVE",
"267 854 OFFCURVE",
"252 847 CURVE",
"232 720 OFFCURVE",
"286 606 OFFCURVE",
"392 553 CURVE",
"283 569 OFFCURVE",
"220 662 OFFCURVE",
"210 766 CURVE",
"149 768 OFFCURVE",
"107 771 OFFCURVE",
"72 775 CURVE",
"45 712 OFFCURVE",
"45 582 OFFCURVE",
"68 533 CURVE",
"129 523 OFFCURVE",
"119 448 OFFCURVE",
"108 374 CURVE SMOOTH",
"98 303 OFFCURVE",
"84 235 OFFCURVE",
"20 222 CURVE",
"2 165 OFFCURVE",
"5 40 OFFCURVE",
"27 -17 CURVE"
);
},
{
closed = 1;
nodes = (
"512 466 LINE",
"584 466 LINE",
"584 419 LINE",
"512 419 LINE"
);
}
);
width = 1106;
}
);
leftKerningGroup = A;
leftMetricsKey = "=A";
rightKerningGroup = A;
rightMetricsKey = "=A";
unicode = 1EB4;
},
{
color = 7;
glyphname = Acaron;
layers = (
{
anchors = (
{
name = bottom;
position = "{553, 0}";
},
{
name = top;
position = "{553, 799}";
}
);
layerId = "863809E3-B3D3-4728-B9C6-73F0AB5A9F00";
paths = (
{
closed = 1;
nodes = (
"86 -11 OFFCURVE",
"174 -1 OFFCURVE",
"298 -1 CURVE SMOOTH",
"415 -1 OFFCURVE",
"471 -12 OFFCURVE",
"526 -17 CURVE",
"541 40 OFFCURVE",
"544 165 OFFCURVE",
"533 222 CURVE",
"505 222 LINE",
"505 272 LINE",
"592 272 LINE",
"592 222 LINE",
"564 222 LINE",
"556 165 OFFCURVE",
"559 40 OFFCURVE",
"571 -17 CURVE",
"626 -12 OFFCURVE",
"731 -1 OFFCURVE",
"842 -1 CURVE SMOOTH",
"950 -1 OFFCURVE",
"1024 -12 OFFCURVE",
"1079 -17 CURVE",
"1101 40 OFFCURVE",
"1104 165 OFFCURVE",
"1086 222 CURVE",
"1043 237 OFFCURVE",
"1006 274 OFFCURVE",
"1006 392 CURVE SMOOTH",
"1006 510 OFFCURVE",
"1031 761 OFFCURVE",
"837 783 CURVE",
"839 805 OFFCURVE",
"839 826 OFFCURVE",
"836 847 CURVE",
"801 865 OFFCURVE",
"703 874 OFFCURVE",
"658 875 CURVE",
"605 861 OFFCURVE",
"544 811 OFFCURVE",
"489 748 CURVE",
"464 765 LINE",
"482 785 OFFCURVE",
"500 804 OFFCURVE",
"518 821 CURVE",
"484 846 OFFCURVE",
"445 867 OFFCURVE",
"416 875 CURVE",
"375 874 OFFCURVE",
"283 865 OFFCURVE",
"248 847 CURVE",
"232 747 OFFCURVE",
"286 627 OFFCURVE",
"349 560 CURVE",
"276 592 OFFCURVE",
"216 691 OFFCURVE",
"214 766 CURVE",
"151 768 OFFCURVE",
"108 771 OFFCURVE",
"72 775 CURVE",
"45 712 OFFCURVE",
"45 582 OFFCURVE",
"68 533 CURVE",
"129 523 OFFCURVE",
"119 448 OFFCURVE",
"108 374 CURVE SMOOTH",
"98 303 OFFCURVE",
"84 235 OFFCURVE",
"20 222 CURVE",
"2 165 OFFCURVE",
"5 40 OFFCURVE",
"27 -17 CURVE"
);
},
{
closed = 1;
nodes = (
"512 466 LINE",
"584 466 LINE",
"584 419 LINE",
"512 419 LINE"
);
}
);
width = 1106;
}
);
leftKerningGroup = A;
leftMetricsKey = "=A";
rightKerningGroup = A;
rightMetricsKey = "=A";
unicode = 01CD;
},
{
color = 5;
glyphname = Acircumflex;
layers = (
{
anchors = (
{
name = bottom;
position = "{553, 0}";
},
{
name = top;
position = "{553, 799}";
}
);
layerId = "863809E3-B3D3-4728-B9C6-73F0AB5A9F00";
paths = (
{
closed = 1;
nodes = (
"86 -11 OFFCURVE",
"174 -1 OFFCURVE",
"298 -1 CURVE SMOOTH",
"415 -1 OFFCURVE",
"471 -12 OFFCURVE",
"526 -17 CURVE",
"541 40 OFFCURVE",
"544 165 OFFCURVE",
"533 222 CURVE",
"505 222 LINE",
"505 272 LINE",
"592 272 LINE",
"592 222 LINE",
"564 222 LINE",
"556 165 OFFCURVE",
"559 40 OFFCURVE",
"571 -17 CURVE",
"626 -12 OFFCURVE",
"731 -1 OFFCURVE",
"842 -1 CURVE SMOOTH",
"950 -1 OFFCURVE",
"1024 -12 OFFCURVE",
"1079 -17 CURVE",
"1101 40 OFFCURVE",
"1104 165 OFFCURVE",
"1086 222 CURVE",
"1043 237 OFFCURVE",
"1006 274 OFFCURVE",
"1006 392 CURVE SMOOTH",
"1006 515 OFFCURVE",
"1033 785 OFFCURVE",
"808 785 CURVE SMOOTH",
"773 785 LINE",
"748 820 OFFCURVE",
"720 849 OFFCURVE",
"694 867 CURVE",
"666 872 OFFCURVE",
"607 875 OFFCURVE",
"546 875 CURVE SMOOTH",
"490 875 OFFCURVE",
"431 873 OFFCURVE",
"392 867 CURVE",
"316 815 OFFCURVE",
"239 687 OFFCURVE",
"248 559 CURVE",
"221 600 OFFCURVE",
"228 705 OFFCURVE",
"257 762 CURVE",
"191 765 OFFCURVE",
"108 772 OFFCURVE",
"72 775 CURVE",
"45 712 OFFCURVE",
"45 582 OFFCURVE",
"68 533 CURVE",
"129 523 OFFCURVE",
"119 448 OFFCURVE",
"108 374 CURVE SMOOTH",
"98 303 OFFCURVE",
"84 235 OFFCURVE",
"20 222 CURVE",
"2 165 OFFCURVE",
"5 40 OFFCURVE",
"27 -17 CURVE"
);
},
{
closed = 1;
nodes = (
"523 540 LINE",
"557 540 LINE",
"557 419 LINE",
"523 419 LINE"
);
}
);
width = 1106;
}
);
leftKerningGroup = A;
leftMetricsKey = "=A";
rightKerningGroup = A;
rightMetricsKey = "=A";
unicode = 00C2;
},
{
color = 5;
glyphname = Acircumflexacute;
layers = (
{
anchors = (
{
name = bottom;
position = "{553, 0}";
}
);
layerId = "863809E3-B3D3-4728-B9C6-73F0AB5A9F00";
paths = (
{
closed = 1;
nodes = (
"86 -11 OFFCURVE",
"174 -1 OFFCURVE",
"298 -1 CURVE SMOOTH",
"415 -1 OFFCURVE",
"471 -12 OFFCURVE",
"526 -17 CURVE",
"541 40 OFFCURVE",
"544 165 OFFCURVE",
"533 222 CURVE",
"505 222 LINE",
"505 272 LINE",
"592 272 LINE",
"592 222 LINE",
"564 222 LINE",
"556 165 OFFCURVE",
"559 40 OFFCURVE",
"571 -17 CURVE",
"626 -12 OFFCURVE",
"731 -1 OFFCURVE",
"842 -1 CURVE SMOOTH",
"950 -1 OFFCURVE",
"1024 -12 OFFCURVE",
"1079 -17 CURVE",
"1101 40 OFFCURVE",
"1104 165 OFFCURVE",
"1086 222 CURVE",
"1043 237 OFFCURVE",
"1006 274 OFFCURVE",
"1006 392 CURVE SMOOTH",
"1006 508 OFFCURVE",
"1030 753 OFFCURVE",
"846 782 CURVE",
"868 816 OFFCURVE",
"884 852 OFFCURVE",
"890 887 CURVE",
"862 922 OFFCURVE",
"773 948 OFFCURVE",
"687 948 CURVE SMOOTH",
"646 948 OFFCURVE",
"606 943 OFFCURVE",
"574 929 CURVE",
"540 883 OFFCURVE",
"504 776 OFFCURVE",
"543 699 CURVE",
"499 734 OFFCURVE",
"487 797 OFFCURVE",
"508 875 CURVE",
"464 874 OFFCURVE",
"422 872 OFFCURVE",
"392 867 CURVE",
"316 815 OFFCURVE",
"239 687 OFFCURVE",
"248 559 CURVE",
"221 600 OFFCURVE",
"228 705 OFFCURVE",
"257 762 CURVE",
"191 765 OFFCURVE",
"108 772 OFFCURVE",
"72 775 CURVE",
"45 712 OFFCURVE",
"45 582 OFFCURVE",
"68 533 CURVE",
"129 523 OFFCURVE",
"119 448 OFFCURVE",
"108 374 CURVE SMOOTH",
"98 303 OFFCURVE",
"84 235 OFFCURVE",
"20 222 CURVE",
"2 165 OFFCURVE",
"5 40 OFFCURVE",
"27 -17 CURVE"
);
},
{
closed = 1;
nodes = (
"523 540 LINE",
"557 540 LINE",
"557 419 LINE",
"523 419 LINE"
);
}
);
width = 1106;
}
);
leftKerningGroup = A;
leftMetricsKey = "=A";
rightKerningGroup = A;
rightMetricsKey = "=A";
unicode = 1EA4;
},
{
color = 5;
glyphname = Acircumflexdotbelow;
layers = (
{
anchors = (
{
name = bottom;
position = "{553, -103}";
},
{
name = top;
position = "{553, 799}";
}
);
layerId = "863809E3-B3D3-4728-B9C6-73F0AB5A9F00";
paths = (
{
closed = 1;
nodes = (
"700 -173 OFFCURVE",
"756 -89 OFFCURVE",
"756 -4 CURVE SMOOTH",
"756 -3 LINE",
"784 -2 OFFCURVE",
"813 -1 OFFCURVE",
"842 -1 CURVE SMOOTH",
"950 -1 OFFCURVE",
"1024 -12 OFFCURVE",
"1079 -17 CURVE",
"1101 40 OFFCURVE",
"1104 165 OFFCURVE",
"1086 222 CURVE",
"1043 237 OFFCURVE",
"1006 274 OFFCURVE",
"1006 392 CURVE SMOOTH",
"1006 515 OFFCURVE",
"1033 785 OFFCURVE",
"808 785 CURVE SMOOTH",
"773 785 LINE",
"748 820 OFFCURVE",
"720 849 OFFCURVE",
"694 867 CURVE",
"666 872 OFFCURVE",
"607 875 OFFCURVE",
"546 875 CURVE SMOOTH",
"490 875 OFFCURVE",
"431 873 OFFCURVE",
"392 867 CURVE",
"316 815 OFFCURVE",
"239 687 OFFCURVE",
"248 559 CURVE",
"221 600 OFFCURVE",
"228 705 OFFCURVE",
"257 762 CURVE",
"191 765 OFFCURVE",
"108 772 OFFCURVE",
"72 775 CURVE",
"45 712 OFFCURVE",
"45 582 OFFCURVE",
"68 533 CURVE",
"129 523 OFFCURVE",
"119 448 OFFCURVE",
"108 374 CURVE SMOOTH",
"98 303 OFFCURVE",
"84 235 OFFCURVE",
"20 222 CURVE",
"2 165 OFFCURVE",
"5 40 OFFCURVE",
"27 -17 CURVE",
"84 -11 OFFCURVE",
"168 -2 OFFCURVE",
"286 -1 CURVE",
"290 67 OFFCURVE",
"330 146 OFFCURVE",
"416 151 CURVE",
"346 119 OFFCURVE",
"319 59 OFFCURVE",
"319 5 CURVE SMOOTH",
"319 -97 OFFCURVE",
"395 -173 OFFCURVE",
"541 -173 CURVE SMOOTH"
);
},
{
closed = 1;
nodes = (
"504 272 LINE",
"592 272 LINE",
"592 221 LINE",
"504 221 LINE"
);
},
{
closed = 1;
nodes = (
"523 540 LINE",
"557 540 LINE",
"557 419 LINE",
"523 419 LINE"
);
}
);
width = 1106;
}
);
leftKerningGroup = A;
leftMetricsKey = "=A";
rightKerningGroup = A;
rightMetricsKey = "=A";
unicode = 1EAC;
},
{
color = 5;
glyphname = Acircumflexgrave;
layers = (
{
anchors = (
{
name = bottom;
position = "{553, 0}";
}
);
layerId = "863809E3-B3D3-4728-B9C6-73F0AB5A9F00";
paths = (
{
closed = 1;
nodes = (
"86 -11 OFFCURVE",
"174 -1 OFFCURVE",
"298 -1 CURVE SMOOTH",
"415 -1 OFFCURVE",
"471 -12 OFFCURVE",
"526 -17 CURVE",
"541 40 OFFCURVE",
"544 165 OFFCURVE",
"533 222 CURVE",
"505 222 LINE",
"505 272 LINE",
"592 272 LINE",
"592 222 LINE",
"564 222 LINE",
"556 165 OFFCURVE",
"559 40 OFFCURVE",
"571 -17 CURVE",
"626 -12 OFFCURVE",
"731 -1 OFFCURVE",
"842 -1 CURVE SMOOTH",
"950 -1 OFFCURVE",
"1024 -12 OFFCURVE",
"1079 -17 CURVE",
"1101 40 OFFCURVE",
"1104 165 OFFCURVE",
"1086 222 CURVE",
"1043 237 OFFCURVE",
"1006 274 OFFCURVE",
"1006 392 CURVE SMOOTH",
"1006 493 OFFCURVE",
"1024 694 OFFCURVE",
"905 762 CURVE",
"911 828 OFFCURVE",
"884 899 OFFCURVE",
"858 934 CURVE",
"826 948 OFFCURVE",
"786 953 OFFCURVE",
"745 953 CURVE SMOOTH",
"659 953 OFFCURVE",
"570 927 OFFCURVE",
"542 892 CURVE",
"553 827 OFFCURVE",
"599 758 OFFCURVE",
"650 709 CURVE",
"577 731 OFFCURVE",
"529 797 OFFCURVE",
"508 875 CURVE",
"464 874 OFFCURVE",
"422 872 OFFCURVE",
"392 867 CURVE",
"316 815 OFFCURVE",
"239 687 OFFCURVE",
"248 559 CURVE",
"221 600 OFFCURVE",
"228 705 OFFCURVE",
"257 762 CURVE",
"191 765 OFFCURVE",
"108 772 OFFCURVE",
"72 775 CURVE",
"45 712 OFFCURVE",
"45 582 OFFCURVE",
"68 533 CURVE",
"129 523 OFFCURVE",
"119 448 OFFCURVE",
"108 374 CURVE SMOOTH",
"98 303 OFFCURVE",
"84 235 OFFCURVE",
"20 222 CURVE",
"2 165 OFFCURVE",
"5 40 OFFCURVE",
"27 -17 CURVE"
);
},
{
closed = 1;
nodes = (
"523 540 LINE",
"557 540 LINE",
"557 419 LINE",
"523 419 LINE"
);
}
);
width = 1106;
}
);
leftKerningGroup = A;
rightKerningGroup = A;
unicode = 1EA6;
},
{
color = 5;
glyphname = Acircumflexhookabove;
layers = (
{
anchors = (
{
name = bottom;
position = "{553, 0}";
}
);
layerId = "863809E3-B3D3-4728-B9C6-73F0AB5A9F00";
paths = (
{
closed = 1;
nodes = (
"86 -11 OFFCURVE",
"174 -1 OFFCURVE",
"298 -1 CURVE SMOOTH",
"415 -1 OFFCURVE",
"471 -12 OFFCURVE",
"526 -17 CURVE",
"541 40 OFFCURVE",
"544 165 OFFCURVE",
"533 222 CURVE",
"505 222 LINE",
"505 272 LINE",
"592 272 LINE",
"592 222 LINE",
"564 222 LINE",
"556 165 OFFCURVE",
"559 40 OFFCURVE",
"571 -17 CURVE",
"626 -12 OFFCURVE",
"731 -1 OFFCURVE",
"842 -1 CURVE SMOOTH",
"950 -1 OFFCURVE",
"1024 -12 OFFCURVE",
"1079 -17 CURVE",
"1101 40 OFFCURVE",
"1104 165 OFFCURVE",
"1086 222 CURVE",
"1043 237 OFFCURVE",
"1006 274 OFFCURVE",
"1006 392 CURVE SMOOTH",
"1006 496 OFFCURVE",
"1025 704 OFFCURVE",
"896 767 CURVE",
"905 791 OFFCURVE",
"908 813 OFFCURVE",
"908 832 CURVE SMOOTH",
"908 906 OFFCURVE",
"857 953 OFFCURVE",
"761 953 CURVE SMOOTH",
"678 953 OFFCURVE",
"615 941 OFFCURVE",
"546 937 CURVE",
"529 901 OFFCURVE",
"530 801 OFFCURVE",
"545 758 CURVE",
"571 761 OFFCURVE",
"596 752 OFFCURVE",
"610 723 CURVE",
"581 737 OFFCURVE",
"549 734 OFFCURVE",
"528 731 CURVE",
"511 763 OFFCURVE",
"502 819 OFFCURVE",
"505 875 CURVE",
"462 874 OFFCURVE",
"421 871 OFFCURVE",
"392 867 CURVE",
"316 815 OFFCURVE",
"239 687 OFFCURVE",
"248 559 CURVE",
"221 600 OFFCURVE",
"228 705 OFFCURVE",
"257 762 CURVE",
"191 765 OFFCURVE",
"108 772 OFFCURVE",
"72 775 CURVE",
"45 712 OFFCURVE",
"45 582 OFFCURVE",
"68 533 CURVE",
"129 523 OFFCURVE",
"119 448 OFFCURVE",
"108 374 CURVE SMOOTH",
"98 303 OFFCURVE",
"84 235 OFFCURVE",
"20 222 CURVE",
"2 165 OFFCURVE",
"5 40 OFFCURVE",
"27 -17 CURVE"
);
},
{
closed = 1;
nodes = (
"523 540 LINE",
"557 540 LINE",
"557 419 LINE",
"523 419 LINE"
);
}
);
width = 1106;
}
);
leftKerningGroup = A;
leftMetricsKey = "=A";
rightKerningGroup = A;
rightMetricsKey = "=A";
unicode = 1EA8;
},
{
color = 5;
glyphname = Acircumflextilde;
layers = (
{
anchors = (
{
name = bottom;
position = "{553, 0}";
}
);
layerId = "863809E3-B3D3-4728-B9C6-73F0AB5A9F00";
paths = (
{
closed = 1;
nodes = (
"86 -11 OFFCURVE",
"174 -1 OFFCURVE",
"298 -1 CURVE SMOOTH",
"415 -1 OFFCURVE",
"471 -12 OFFCURVE",
"526 -17 CURVE",
"541 40 OFFCURVE",
"544 165 OFFCURVE",
"533 222 CURVE",
"505 222 LINE",
"505 272 LINE",
"592 272 LINE",
"592 222 LINE",
"564 222 LINE",
"556 165 OFFCURVE",
"559 40 OFFCURVE",
"571 -17 CURVE",
"626 -12 OFFCURVE",
"731 -1 OFFCURVE",
"842 -1 CURVE SMOOTH",
"950 -1 OFFCURVE",
"1024 -12 OFFCURVE",
"1079 -17 CURVE",
"1101 40 OFFCURVE",
"1104 165 OFFCURVE",
"1086 222 CURVE",
"1043 237 OFFCURVE",
"1006 274 OFFCURVE",
"1006 392 CURVE SMOOTH",
"1006 489 OFFCURVE",
"1023 678 OFFCURVE",
"919 753 CURVE",
"936 792 OFFCURVE",
"944 849 OFFCURVE",
"944 928 CURVE",
"918 943 OFFCURVE",
"849 951 OFFCURVE",
"819 952 CURVE",
"809 934 OFFCURVE",
"791 923 OFFCURVE",
"764 923 CURVE SMOOTH",
"726 923 OFFCURVE",
"683 948 OFFCURVE",
"631 948 CURVE SMOOTH",
"552 948 OFFCURVE",
"511 891 OFFCURVE",
"505 747 CURVE",
"487 781 OFFCURVE",
"484 827 OFFCURVE",
"495 875 CURVE",
"456 874 OFFCURVE",
"420 871 OFFCURVE",
"392 867 CURVE",
"316 815 OFFCURVE",
"239 687 OFFCURVE",
"248 559 CURVE",
"221 600 OFFCURVE",
"228 705 OFFCURVE",
"257 762 CURVE",
"191 765 OFFCURVE",
"108 772 OFFCURVE",
"72 775 CURVE",
"45 712 OFFCURVE",
"45 582 OFFCURVE",
"68 533 CURVE",
"129 523 OFFCURVE",
"119 448 OFFCURVE",
"108 374 CURVE SMOOTH",
"98 303 OFFCURVE",
"84 235 OFFCURVE",
"20 222 CURVE",
"2 165 OFFCURVE",
"5 40 OFFCURVE",
"27 -17 CURVE"
);
},
{
closed = 1;
nodes = (
"523 540 LINE",
"557 540 LINE",
"557 419 LINE",
"523 419 LINE"
);
}
);
width = 1106;
}
);
leftKerningGroup = A;
leftMetricsKey = "=A";
rightKerningGroup = A;
rightMetricsKey = "=A";
unicode = 1EAA;
},
{
color = 5;
glyphname = Adblgrave;
layers = (
{
anchors = (
{
name = bottom;
position = "{553, 0}";
},
{
name = top;
position = "{553, 799}";
}
);
layerId = "863809E3-B3D3-4728-B9C6-73F0AB5A9F00";
paths = (
{
closed = 1;
nodes = (
"86 -11 OFFCURVE",
"174 -1 OFFCURVE",
"298 -1 CURVE SMOOTH",
"415 -1 OFFCURVE",
"471 -12 OFFCURVE",
"526 -17 CURVE",
"541 40 OFFCURVE",
"544 165 OFFCURVE",
"533 222 CURVE",
"505 222 LINE",
"505 272 LINE",
"592 272 LINE",
"592 222 LINE",
"564 222 LINE",
"556 165 OFFCURVE",
"559 40 OFFCURVE",
"571 -17 CURVE",
"626 -12 OFFCURVE",
"731 -1 OFFCURVE",
"842 -1 CURVE SMOOTH",
"950 -1 OFFCURVE",
"1024 -12 OFFCURVE",
"1079 -17 CURVE",
"1101 40 OFFCURVE",
"1104 165 OFFCURVE",
"1086 222 CURVE",
"1043 237 OFFCURVE",
"1006 274 OFFCURVE",
"1006 392 CURVE SMOOTH",
"1006 510 OFFCURVE",
"1031 762 OFFCURVE",
"836 784 CURVE",
"825 812 OFFCURVE",
"812 837 OFFCURVE",
"799 854 CURVE",
"760 870 OFFCURVE",
"712 877 OFFCURVE",
"663 877 CURVE SMOOTH",
"559 877 OFFCURVE",
"451 846 OFFCURVE",
"417 803 CURVE",
"426 835 OFFCURVE",
"453 864 OFFCURVE",
"474 872 CURVE",
"451 876 OFFCURVE",
"427 877 OFFCURVE",
"403 877 CURVE SMOOTH",
"299 877 OFFCURVE",
"191 846 OFFCURVE",
"157 803 CURVE",
"172 712 OFFCURVE",
"243 615 OFFCURVE",
"316 557 CURVE",
"237 582 OFFCURVE",
"165 645 OFFCURVE",
"122 771 CURVE",
"104 772 OFFCURVE",
"87 774 OFFCURVE",
"72 775 CURVE",
"45 712 OFFCURVE",
"45 582 OFFCURVE",
"68 533 CURVE",
"129 523 OFFCURVE",
"119 448 OFFCURVE",
"108 374 CURVE SMOOTH",
"98 303 OFFCURVE",
"84 235 OFFCURVE",
"20 222 CURVE",
"2 165 OFFCURVE",
"5 40 OFFCURVE",
"27 -17 CURVE"
);
},
{
closed = 1;
nodes = (
"523 496 LINE",
"573 496 LINE",
"573 419 LINE",
"523 419 LINE"
);
}
);
width = 1106;
}
);
leftKerningGroup = A;
leftMetricsKey = "=A";
rightKerningGroup = A;
rightMetricsKey = "=A";
unicode = 0200;
},
{
color = 5;
glyphname = Adieresis;
layers = (
{
anchors = (
{
name = bottom;
position = "{553, 0}";
},
{
name = top;
position = "{553, 799}";
}
);
layerId = "863809E3-B3D3-4728-B9C6-73F0AB5A9F00";
paths = (
{
closed = 1;
nodes = (
"86 -11 OFFCURVE",
"174 -1 OFFCURVE",
"298 -1 CURVE SMOOTH",
"415 -1 OFFCURVE",
"471 -12 OFFCURVE",
"526 -17 CURVE",
"541 40 OFFCURVE",
"544 165 OFFCURVE",
"533 222 CURVE",
"505 222 LINE",
"505 272 LINE",
"592 272 LINE",
"592 222 LINE",
"564 222 LINE",
"556 165 OFFCURVE",
"559 40 OFFCURVE",
"571 -17 CURVE",
"626 -12 OFFCURVE",
"731 -1 OFFCURVE",
"842 -1 CURVE SMOOTH",
"950 -1 OFFCURVE",
"1024 -12 OFFCURVE",
"1079 -17 CURVE",
"1101 40 OFFCURVE",
"1104 165 OFFCURVE",
"1086 222 CURVE",
"1043 237 OFFCURVE",
"1006 274 OFFCURVE",
"1006 392 CURVE SMOOTH",
"1006 500 OFFCURVE",
"1027 721 OFFCURVE",
"880 774 CURVE",
"854 832 OFFCURVE",
"792 876 OFFCURVE",
"679 876 CURVE SMOOTH",
"551 876 OFFCURVE",
"488 822 OFFCURVE",
"467 760 CURVE",
"459 795 OFFCURVE",
"471 837 OFFCURVE",
"515 866 CURVE",
"491 871 OFFCURVE",
"462 876 OFFCURVE",
"429 876 CURVE SMOOTH",
"264 876 OFFCURVE",
"209 786 OFFCURVE",
"209 707 CURVE SMOOTH",
"209 633 OFFCURVE",
"255 573 OFFCURVE",
"318 545 CURVE",
"221 554 OFFCURVE",
"152 639 OFFCURVE",
"181 768 CURVE",
"139 770 OFFCURVE",
"98 772 OFFCURVE",
"72 775 CURVE",
"45 712 OFFCURVE",
"45 582 OFFCURVE",
"68 533 CURVE",
"129 523 OFFCURVE",
"119 448 OFFCURVE",
"108 374 CURVE SMOOTH",
"98 303 OFFCURVE",
"84 235 OFFCURVE",
"20 222 CURVE",
"2 165 OFFCURVE",
"5 40 OFFCURVE",
"27 -17 CURVE"
);
},
{
closed = 1;
nodes = (
"512 466 LINE",
"584 466 LINE",
"584 419 LINE",
"512 419 LINE"
);
}
);
width = 1106;
}
);
leftKerningGroup = A;
leftMetricsKey = "=A";
rightKerningGroup = A;
rightMetricsKey = "=A";
unicode = 00C4;
},
{
color = 7;
glyphname = Adieresismacron;
layers = (
{
anchors = (
{
name = bottom;
position = "{553, 0}";
}
);
layerId = "863809E3-B3D3-4728-B9C6-73F0AB5A9F00";
paths = (
{
closed = 1;
nodes = (
"86 -11 OFFCURVE",
"174 -1 OFFCURVE",
"298 -1 CURVE SMOOTH",
"415 -1 OFFCURVE",
"471 -12 OFFCURVE",
"526 -17 CURVE",
"541 40 OFFCURVE",
"544 165 OFFCURVE",
"533 222 CURVE",
"505 222 LINE",
"505 272 LINE",
"592 272 LINE",
"592 222 LINE",
"564 222 LINE",
"556 165 OFFCURVE",
"559 40 OFFCURVE",
"571 -17 CURVE",
"626 -12 OFFCURVE",
"731 -1 OFFCURVE",
"842 -1 CURVE SMOOTH",
"950 -1 OFFCURVE",
"1024 -12 OFFCURVE",
"1079 -17 CURVE",
"1101 40 OFFCURVE",
"1104 165 OFFCURVE",
"1086 222 CURVE",
"1043 237 OFFCURVE",
"1006 274 OFFCURVE",
"1006 392 CURVE SMOOTH",
"1006 500 OFFCURVE",
"1027 721 OFFCURVE",
"880 774 CURVE",
"866 804 OFFCURVE",
"842 831 OFFCURVE",
"806 850 CURVE",
"806 916 OFFCURVE",
"804 937 OFFCURVE",
"800 948 CURVE",
"663 938 OFFCURVE",
"445 938 OFFCURVE",
"310 948 CURVE",
"298 892 OFFCURVE",
"300 772 OFFCURVE",
"310 736 CURVE",
"293 760 OFFCURVE",
"278 794 OFFCURVE",
"269 831 CURVE",
"226 797 OFFCURVE",
"209 750 OFFCURVE",
"209 707 CURVE SMOOTH",
"209 633 OFFCURVE",
"255 573 OFFCURVE",
"318 545 CURVE",
"221 554 OFFCURVE",
"152 639 OFFCURVE",
"181 768 CURVE",
"139 770 OFFCURVE",
"98 772 OFFCURVE",
"72 775 CURVE",
"45 712 OFFCURVE",
"45 582 OFFCURVE",
"68 533 CURVE",
"129 523 OFFCURVE",
"119 448 OFFCURVE",
"108 374 CURVE SMOOTH",
"98 303 OFFCURVE",
"84 235 OFFCURVE",
"20 222 CURVE",
"2 165 OFFCURVE",
"5 40 OFFCURVE",
"27 -17 CURVE"
);
},
{
closed = 1;
nodes = (
"512 466 LINE",
"584 466 LINE",
"584 419 LINE",
"512 419 LINE"
);
}
);
width = 1106;
}
);
leftKerningGroup = A;
leftMetricsKey = "=A";
rightKerningGroup = A;
rightMetricsKey = "=A";
unicode = 01DE;
},
{
color = 7;
glyphname = Adotaccent;
layers = (
{
anchors = (
{
name = bottom;
position = "{553, 0}";
},
{
name = top;
position = "{553, 799}";
}
);
layerId = "863809E3-B3D3-4728-B9C6-73F0AB5A9F00";
paths = (
{
closed = 1;
nodes = (
"86 -11 OFFCURVE",
"174 -1 OFFCURVE",
"298 -1 CURVE SMOOTH",
"415 -1 OFFCURVE",
"471 -12 OFFCURVE",
"526 -17 CURVE",
"541 40 OFFCURVE",
"544 165 OFFCURVE",
"533 222 CURVE",
"505 222 LINE",
"505 272 LINE",
"592 272 LINE",
"592 222 LINE",
"564 222 LINE",
"556 165 OFFCURVE",
"559 40 OFFCURVE",
"571 -17 CURVE",
"626 -12 OFFCURVE",
"731 -1 OFFCURVE",
"842 -1 CURVE SMOOTH",
"950 -1 OFFCURVE",
"1024 -12 OFFCURVE",
"1079 -17 CURVE",
"1101 40 OFFCURVE",
"1104 165 OFFCURVE",
"1086 222 CURVE",
"1043 237 OFFCURVE",
"1006 274 OFFCURVE",
"1006 392 CURVE SMOOTH",
"1006 515 OFFCURVE",
"1033 785 OFFCURVE",
"808 785 CURVE SMOOTH",
"784 785 OFFCURVE",
"759 785 OFFCURVE",
"734 784 CURVE",
"699 844 OFFCURVE",
"633 876 OFFCURVE",
"527 876 CURVE SMOOTH",
"371 876 OFFCURVE",
"318 788 OFFCURVE",
"318 707 CURVE SMOOTH",
"318 648 OFFCURVE",
"348 597 OFFCURVE",
"392 565 CURVE",
"314 584 OFFCURVE",
"264 655 OFFCURVE",
"287 764 CURVE",
"182 765 OFFCURVE",
"121 770 OFFCURVE",
"72 775 CURVE",
"45 712 OFFCURVE",
"45 582 OFFCURVE",
"68 533 CURVE",
"129 523 OFFCURVE",
"119 448 OFFCURVE",
"108 374 CURVE SMOOTH",
"98 303 OFFCURVE",
"84 235 OFFCURVE",
"20 222 CURVE",
"2 165 OFFCURVE",
"5 40 OFFCURVE",
"27 -17 CURVE"
);
},
{
closed = 1;
nodes = (
"512 466 LINE",
"584 466 LINE",
"584 419 LINE",
"512 419 LINE"
);
}
);
width = 1106;
}
);
leftKerningGroup = A;
leftMetricsKey = "=A";
rightKerningGroup = A;
rightMetricsKey = "=A";
unicode = 0226;
},
{
color = 5;
glyphname = Adotbelow;
layers = (
{
anchors = (
{
name = bottom;
position = "{553, -103}";
},
{
name = top;
position = "{553, 696}";
}
);
layerId = "863809E3-B3D3-4728-B9C6-73F0AB5A9F00";
paths = (
{
closed = 1;
nodes = (
"700 -173 OFFCURVE",
"756 -89 OFFCURVE",
"756 -3 CURVE",
"784 -2 OFFCURVE",
"813 -1 OFFCURVE",
"842 -1 CURVE SMOOTH",
"950 -1 OFFCURVE",
"1024 -12 OFFCURVE",
"1079 -17 CURVE",
"1101 40 OFFCURVE",
"1104 165 OFFCURVE",
"1086 222 CURVE",
"1043 237 OFFCURVE",
"1006 274 OFFCURVE",
"1006 392 CURVE SMOOTH",
"1006 515 OFFCURVE",
"1033 785 OFFCURVE",
"808 785 CURVE SMOOTH",
"647 785 OFFCURVE",
"469 764 OFFCURVE",
"333 764 CURVE SMOOTH",
"199 764 OFFCURVE",
"127 770 OFFCURVE",
"72 775 CURVE",
"45 712 OFFCURVE",
"45 582 OFFCURVE",
"68 533 CURVE",
"129 523 OFFCURVE",
"119 448 OFFCURVE",
"108 374 CURVE SMOOTH",
"98 303 OFFCURVE",
"84 235 OFFCURVE",
"20 222 CURVE",
"2 165 OFFCURVE",
"5 40 OFFCURVE",
"27 -17 CURVE",
"84 -11 OFFCURVE",
"168 -2 OFFCURVE",
"286 -1 CURVE",
"290 67 OFFCURVE",
"330 146 OFFCURVE",
"416 151 CURVE",
"346 119 OFFCURVE",
"319 59 OFFCURVE",
"319 5 CURVE SMOOTH",
"319 -97 OFFCURVE",
"395 -173 OFFCURVE",
"541 -173 CURVE SMOOTH"
);
},
{
closed = 1;
nodes = (
"504 272 LINE",
"592 272 LINE",
"592 221 LINE",
"504 221 LINE"
);
},
{
closed = 1;
nodes = (
"512 466 LINE",
"584 466 LINE",
"584 419 LINE",
"512 419 LINE"
);
}
);
width = 1106;
}
);
leftKerningGroup = A;
leftMetricsKey = "=A";
rightKerningGroup = A;
rightMetricsKey = "=A";
unicode = 1EA0;
},
{
color = 7;
glyphname = Adotmacron;
layers = (
{
anchors = (
{
name = bottom;
position = "{553, 0}";
}
);
layerId = "863809E3-B3D3-4728-B9C6-73F0AB5A9F00";
paths = (
{
closed = 1;
nodes = (
"86 -11 OFFCURVE",
"174 -1 OFFCURVE",
"298 -1 CURVE SMOOTH",
"415 -1 OFFCURVE",
"471 -12 OFFCURVE",
"526 -17 CURVE",
"541 40 OFFCURVE",
"544 165 OFFCURVE",
"533 222 CURVE",
"505 222 LINE",
"505 272 LINE",
"592 272 LINE",
"592 222 LINE",
"564 222 LINE",
"556 165 OFFCURVE",
"559 40 OFFCURVE",
"571 -17 CURVE",
"626 -12 OFFCURVE",
"731 -1 OFFCURVE",
"842 -1 CURVE SMOOTH",
"950 -1 OFFCURVE",
"1024 -12 OFFCURVE",
"1079 -17 CURVE",
"1101 40 OFFCURVE",
"1104 165 OFFCURVE",
"1086 222 CURVE",
"1043 237 OFFCURVE",
"1006 274 OFFCURVE",
"1006 392 CURVE SMOOTH",
"1006 515 OFFCURVE",
"1033 785 OFFCURVE",
"808 785 CURVE SMOOTH",
"791 785 OFFCURVE",
"781 785 OFFCURVE",
"764 785 CURVE",
"764 840 OFFCURVE",
"762 907 OFFCURVE",
"759 948 CURVE",
"622 938 OFFCURVE",
"445 938 OFFCURVE",
"310 948 CURVE",
"298 889 OFFCURVE",
"298 793 OFFCURVE",
"310 729 CURVE",
"352 725 OFFCURVE",
"396 725 OFFCURVE",
"468 733 CURVE",
"411 704 OFFCURVE",
"354 697 OFFCURVE",
"318 696 CURVE",
"323 631 OFFCURVE",
"360 588 OFFCURVE",
"392 565 CURVE",
"314 584 OFFCURVE",
"266 655 OFFCURVE",
"264 764 CURVE",
"182 765 OFFCURVE",
"121 770 OFFCURVE",
"72 775 CURVE",
"45 712 OFFCURVE",
"45 582 OFFCURVE",
"68 533 CURVE",
"129 523 OFFCURVE",
"119 448 OFFCURVE",
"108 374 CURVE SMOOTH",
"98 303 OFFCURVE",
"84 235 OFFCURVE",
"20 222 CURVE",
"2 165 OFFCURVE",
"5 40 OFFCURVE",
"27 -17 CURVE"
);
},
{
closed = 1;
nodes = (
"512 466 LINE",
"584 466 LINE",
"584 419 LINE",
"512 419 LINE"
);
}
);
width = 1106;
}
);
leftKerningGroup = A;
leftMetricsKey = "=A";
rightKerningGroup = A;
rightMetricsKey = "=A";
unicode = 01E0;
},
{
color = 5;
glyphname = Agrave;
layers = (
{
anchors = (
{
name = bottom;
position = "{553, 0}";
},
{
name = top;
position = "{553, 799}";
}
);
layerId = "863809E3-B3D3-4728-B9C6-73F0AB5A9F00";
paths = (
{
closed = 1;
nodes = (
"86 -11 OFFCURVE",
"174 -1 OFFCURVE",
"298 -1 CURVE SMOOTH",
"415 -1 OFFCURVE",
"471 -12 OFFCURVE",
"526 -17 CURVE",
"541 40 OFFCURVE",
"544 165 OFFCURVE",
"533 222 CURVE",
"505 222 LINE",
"505 272 LINE",
"592 272 LINE",
"592 222 LINE",
"564 222 LINE",
"556 165 OFFCURVE",
"559 40 OFFCURVE",
"571 -17 CURVE",
"626 -12 OFFCURVE",
"731 -1 OFFCURVE",
"842 -1 CURVE SMOOTH",
"950 -1 OFFCURVE",
"1024 -12 OFFCURVE",
"1079 -17 CURVE",
"1101 40 OFFCURVE",
"1104 165 OFFCURVE",
"1086 222 CURVE",
"1043 237 OFFCURVE",
"1006 274 OFFCURVE",
"1006 392 CURVE SMOOTH",
"1006 515 OFFCURVE",
"1033 785 OFFCURVE",
"808 785 CURVE SMOOTH",
"768 785 OFFCURVE",
"728 784 OFFCURVE",
"687 782 CURVE",
"677 811 OFFCURVE",
"663 836 OFFCURVE",
"650 854 CURVE",
"611 870 OFFCURVE",
"563 877 OFFCURVE",
"514 877 CURVE SMOOTH",
"410 877 OFFCURVE",
"302 846 OFFCURVE",
"268 803 CURVE",
"283 712 OFFCURVE",
"354 615 OFFCURVE",
"427 557 CURVE",
"346 582 OFFCURVE",
"278 648 OFFCURVE",
"236 765 CURVE",
"161 767 OFFCURVE",
"112 771 OFFCURVE",
"72 775 CURVE",
"45 712 OFFCURVE",
"45 582 OFFCURVE",
"68 533 CURVE",
"129 523 OFFCURVE",
"119 448 OFFCURVE",
"108 374 CURVE SMOOTH",
"98 303 OFFCURVE",
"84 235 OFFCURVE",
"20 222 CURVE",
"2 165 OFFCURVE",
"5 40 OFFCURVE",
"27 -17 CURVE"
);
},
{
closed = 1;
nodes = (
"512 466 LINE",
"584 466 LINE",
"584 419 LINE",
"512 419 LINE"
);
}
);
width = 1106;
}
);
leftKerningGroup = A;
leftMetricsKey = "=A";
rightKerningGroup = A;
rightMetricsKey = "=A";
unicode = 00C0;
},
{
color = 5;
glyphname = Ahookabove;
layers = (
{
anchors = (
{
name = bottom;
position = "{553, 0}";
},
{
name = top;
position = "{553, 799}";
}
);
layerId = "863809E3-B3D3-4728-B9C6-73F0AB5A9F00";
paths = (
{
closed = 1;
nodes = (
"86 -11 OFFCURVE",
"174 -1 OFFCURVE",
"298 -1 CURVE SMOOTH",
"415 -1 OFFCURVE",
"471 -12 OFFCURVE",
"526 -17 CURVE",
"541 40 OFFCURVE",
"544 165 OFFCURVE",
"533 222 CURVE",
"505 222 LINE",
"505 272 LINE",
"592 272 LINE",
"592 222 LINE",
"564 222 LINE",
"556 165 OFFCURVE",
"559 40 OFFCURVE",
"571 -17 CURVE",
"626 -12 OFFCURVE",
"731 -1 OFFCURVE",
"842 -1 CURVE SMOOTH",
"950 -1 OFFCURVE",
"1024 -12 OFFCURVE",
"1079 -17 CURVE",
"1101 40 OFFCURVE",
"1104 165 OFFCURVE",
"1086 222 CURVE",
"1043 237 OFFCURVE",
"1006 274 OFFCURVE",
"1006 392 CURVE SMOOTH",
"1006 515 OFFCURVE",
"1033 785 OFFCURVE",
"808 785 CURVE SMOOTH",
"783 785 OFFCURVE",
"757 784 OFFCURVE",
"731 784 CURVE",
"710 841 OFFCURVE",
"653 876 OFFCURVE",
"563 876 CURVE SMOOTH",
"462 876 OFFCURVE",
"386 861 OFFCURVE",
"302 856 CURVE",
"282 813 OFFCURVE",
"283 692 OFFCURVE",
"301 639 CURVE",
"336 644 OFFCURVE",
"368 630 OFFCURVE",
"383 588 CURVE",
"359 605 OFFCURVE",
"327 614 OFFCURVE",
"286 609 CURVE",
"268 632 OFFCURVE",
"254 700 OFFCURVE",
"256 765 CURVE",
"168 766 OFFCURVE",
"115 771 OFFCURVE",
"72 775 CURVE",
"45 712 OFFCURVE",
"45 582 OFFCURVE",
"68 533 CURVE",
"129 523 OFFCURVE",
"119 448 OFFCURVE",
"108 374 CURVE SMOOTH",
"98 303 OFFCURVE",
"84 235 OFFCURVE",
"20 222 CURVE",
"2 165 OFFCURVE",
"5 40 OFFCURVE",
"27 -17 CURVE"
);
},
{
closed = 1;
nodes = (
"512 466 LINE",
"584 466 LINE",
"584 419 LINE",
"512 419 LINE"
);
}
);
width = 1106;
}
);
leftKerningGroup = A;
leftMetricsKey = "=A";
rightKerningGroup = A;
rightMetricsKey = "=A";
unicode = 1EA2;
},
{
color = 5;
glyphname = Ainvertedbreve;
layers = (
{
anchors = (
{
name = bottom;
position = "{553, 0}";
},
{
name = top;
position = "{553, 799}";
}
);
layerId = "863809E3-B3D3-4728-B9C6-73F0AB5A9F00";
paths = (
{
closed = 1;
nodes = (
"86 -11 OFFCURVE",
"174 -1 OFFCURVE",
"298 -1 CURVE SMOOTH",
"415 -1 OFFCURVE",
"471 -12 OFFCURVE",
"526 -17 CURVE",
"541 40 OFFCURVE",
"544 165 OFFCURVE",
"533 222 CURVE",
"505 222 LINE",
"505 272 LINE",
"592 272 LINE",
"592 222 LINE",
"564 222 LINE",
"556 165 OFFCURVE",
"559 40 OFFCURVE",
"571 -17 CURVE",
"626 -12 OFFCURVE",
"731 -1 OFFCURVE",
"842 -1 CURVE SMOOTH",
"950 -1 OFFCURVE",
"1024 -12 OFFCURVE",
"1079 -17 CURVE",
"1101 40 OFFCURVE",
"1104 165 OFFCURVE",
"1086 222 CURVE",
"1043 237 OFFCURVE",
"1006 274 OFFCURVE",
"1006 392 CURVE SMOOTH",
"1006 515 OFFCURVE",
"1033 785 OFFCURVE",
"808 785 CURVE SMOOTH",
"784 785 LINE",
"734 840 OFFCURVE",
"659 875 OFFCURVE",
"564 875 CURVE SMOOTH",
"339 875 OFFCURVE",
"227 745 OFFCURVE",
"258 550 CURVE",
"220 618 OFFCURVE",
"220 699 OFFCURVE",
"252 764 CURVE",
"168 767 OFFCURVE",
"115 771 OFFCURVE",
"72 775 CURVE",
"45 712 OFFCURVE",
"45 582 OFFCURVE",
"68 533 CURVE",
"129 523 OFFCURVE",
"119 448 OFFCURVE",
"108 374 CURVE SMOOTH",
"98 303 OFFCURVE",
"84 235 OFFCURVE",
"20 222 CURVE",
"2 165 OFFCURVE",
"5 40 OFFCURVE",
"27 -17 CURVE"
);
},
{
closed = 1;
nodes = (
"521 486 LINE",
"575 486 LINE",
"575 419 LINE",
"521 419 LINE"
);
}
);
width = 1106;
}
);
leftKerningGroup = A;
leftMetricsKey = "=A";
rightKerningGroup = A;
rightMetricsKey = "=A";
unicode = 0202;
},
{
color = 7;
glyphname = "Alpha-latin";
layers = (
{
anchors = (
{
name = bottom;
position = "{520, 0}";
},
{
name = top;
position = "{520, 696}";
}
);
layerId = "863809E3-B3D3-4728-B9C6-73F0AB5A9F00";
paths = (
{
closed = 1;
nodes = (
"565 -34 OFFCURVE",
"638 55 OFFCURVE",
"659 133 CURVE",
"664 100 OFFCURVE",
"649 30 OFFCURVE",
"624 -16 CURVE",
"773 -4 OFFCURVE",
"886 -5 OFFCURVE",
"1009 -16 CURVE",
"1031 41 OFFCURVE",
"1034 165 OFFCURVE",
"1016 222 CURVE",
"974 233 OFFCURVE",
"949 271 OFFCURVE",
"949 391 CURVE SMOOTH",
"949 505 OFFCURVE",
"981 528 OFFCURVE",
"1016 535 CURVE",
"1036 592 OFFCURVE",
"1039 712 OFFCURVE",
"1012 779 CURVE",
"889 768 OFFCURVE",
"774 765 OFFCURVE",
"623 776 CURVE",
"649 730 OFFCURVE",
"664 660 OFFCURVE",
"659 627 CURVE",
"638 705 OFFCURVE",
"565 794 OFFCURVE",
"380 794 CURVE SMOOTH",
"165 794 OFFCURVE",
"10 671 OFFCURVE",
"10 403 CURVE SMOOTH",
"10 196 OFFCURVE",
"80 -34 OFFCURVE",
"380 -34 CURVE SMOOTH"
);
},
{
closed = 1;
nodes = (
"469 450 LINE",
"530 450 LINE",
"530 321 LINE",
"469 321 LINE"
);
}
);
width = 1040;
}
);
leftKerningGroup = O;
leftMetricsKey = "=O";
rightKerningGroup = N;
rightMetricsKey = "=H";
unicode = 2C6D;
},
{
color = 5;
glyphname = Amacron;
layers = (
{
anchors = (
{
name = bottom;
position = "{553, 0}";
},
{
name = top;
position = "{553, 799}";
}
);
layerId = "863809E3-B3D3-4728-B9C6-73F0AB5A9F00";
paths = (
{
closed = 1;
nodes = (
"86 -11 OFFCURVE",
"174 -1 OFFCURVE",
"298 -1 CURVE SMOOTH",
"415 -1 OFFCURVE",
"471 -12 OFFCURVE",
"526 -17 CURVE",
"541 40 OFFCURVE",
"544 165 OFFCURVE",
"533 222 CURVE",
"505 222 LINE",
"505 272 LINE",
"592 272 LINE",
"592 222 LINE",
"564 222 LINE",
"556 165 OFFCURVE",
"559 40 OFFCURVE",
"571 -17 CURVE",
"626 -12 OFFCURVE",
"731 -1 OFFCURVE",
"842 -1 CURVE SMOOTH",
"950 -1 OFFCURVE",
"1024 -12 OFFCURVE",
"1079 -17 CURVE",
"1101 40 OFFCURVE",
"1104 165 OFFCURVE",
"1086 222 CURVE",
"1043 237 OFFCURVE",
"1006 274 OFFCURVE",
"1006 392 CURVE SMOOTH",
"1006 515 OFFCURVE",
"1033 785 OFFCURVE",
"808 785 CURVE SMOOTH",
"794 785 LINE",
"793 813 OFFCURVE",
"790 840 OFFCURVE",
"786 854 CURVE",
"649 844 OFFCURVE",
"397 844 OFFCURVE",
"262 854 CURVE",
"250 798 OFFCURVE",
"252 588 OFFCURVE",
"262 552 CURVE",
"228 608 OFFCURVE",
"217 714 OFFCURVE",
"217 765 CURVE",
"173 766 OFFCURVE",
"117 771 OFFCURVE",
"72 775 CURVE",
"45 712 OFFCURVE",
"45 582 OFFCURVE",
"68 533 CURVE",
"129 523 OFFCURVE",
"119 448 OFFCURVE",
"108 374 CURVE SMOOTH",
"98 303 OFFCURVE",
"84 235 OFFCURVE",
"20 222 CURVE",
"2 165 OFFCURVE",
"5 40 OFFCURVE",
"27 -17 CURVE"
);
},
{
closed = 1;
nodes = (
"512 466 LINE",
"584 466 LINE",
"584 419 LINE",
"512 419 LINE"
);
}
);
width = 1106;
}
);
leftKerningGroup = A;
leftMetricsKey = "=A";
rightKerningGroup = A;
rightMetricsKey = "=A";
unicode = 0100;
},
{
color = 5;
glyphname = Aogonek;
layers = (
{
anchors = (
{
name = bottom;
position = "{553, 0}";
},
{
name = top;
position = "{553, 696}";
}
);
layerId = "863809E3-B3D3-4728-B9C6-73F0AB5A9F00";
paths = (
{
closed = 1;
nodes = (
"937 -169 OFFCURVE",
"991 -152 OFFCURVE",
"1080 -159 CURVE",
"1102 -75 OFFCURVE",
"1104 137 OFFCURVE",
"1086 222 CURVE",
"1043 237 OFFCURVE",
"1006 274 OFFCURVE",
"1006 392 CURVE SMOOTH",
"1006 515 OFFCURVE",
"1033 785 OFFCURVE",
"808 785 CURVE SMOOTH",
"647 785 OFFCURVE",
"469 764 OFFCURVE",
"333 764 CURVE SMOOTH",
"199 764 OFFCURVE",
"127 770 OFFCURVE",
"72 775 CURVE",
"45 712 OFFCURVE",
"45 582 OFFCURVE",
"68 533 CURVE",
"129 523 OFFCURVE",
"119 448 OFFCURVE",
"108 374 CURVE SMOOTH",
"98 303 OFFCURVE",
"84 235 OFFCURVE",
"20 222 CURVE",
"2 165 OFFCURVE",
"5 40 OFFCURVE",
"27 -17 CURVE",
"86 -11 OFFCURVE",
"174 -1 OFFCURVE",
"298 -1 CURVE SMOOTH",
"415 -1 OFFCURVE",
"483 -12 OFFCURVE",
"539 -17 CURVE",
"554 40 OFFCURVE",
"557 165 OFFCURVE",
"546 222 CURVE",
"526 222 LINE",
"526 272 LINE",
"572 272 LINE",
"572 222 LINE SMOOTH",
"572 43 OFFCURVE",
"592 5 OFFCURVE",
"660 3 CURVE",
"652 -17 OFFCURVE",
"648 -37 OFFCURVE",
"648 -53 CURVE SMOOTH",
"648 -132 OFFCURVE",
"700 -169 OFFCURVE",
"826 -169 CURVE SMOOTH"
);
},
{
closed = 1;
nodes = (
"512 466 LINE",
"584 466 LINE",
"584 419 LINE",
"512 419 LINE"
);
}
);
width = 1106;
}
);
leftKerningGroup = A;
leftMetricsKey = "=A";
rightKerningGroup = A;
rightMetricsKey = "=A";
unicode = 0104;
},
{
color = 5;
glyphname = Aring;
layers = (
{
anchors = (
{
name = bottom;
position = "{553, 0}";
},
{
name = top;
position = "{553, 799}";
}
);
layerId = "863809E3-B3D3-4728-B9C6-73F0AB5A9F00";
paths = (
{
closed = 1;
nodes = (
"86 -11 OFFCURVE",
"174 -1 OFFCURVE",
"298 -1 CURVE SMOOTH",
"415 -1 OFFCURVE",
"471 -12 OFFCURVE",
"526 -17 CURVE",
"541 40 OFFCURVE",
"544 165 OFFCURVE",
"533 222 CURVE",
"505 222 LINE",
"505 272 LINE",
"592 272 LINE",
"592 222 LINE",
"564 222 LINE",
"556 165 OFFCURVE",
"559 40 OFFCURVE",
"571 -17 CURVE",
"626 -12 OFFCURVE",
"731 -1 OFFCURVE",
"842 -1 CURVE SMOOTH",
"950 -1 OFFCURVE",
"1024 -12 OFFCURVE",
"1079 -17 CURVE",
"1101 40 OFFCURVE",
"1104 165 OFFCURVE",
"1086 222 CURVE",
"1043 237 OFFCURVE",
"1006 274 OFFCURVE",
"1006 392 CURVE SMOOTH",
"1006 515 OFFCURVE",
"1033 785 OFFCURVE",
"808 785 CURVE SMOOTH",
"784 785 OFFCURVE",
"759 784 OFFCURVE",
"734 784 CURVE",
"699 845 OFFCURVE",
"633 876 OFFCURVE",
"527 876 CURVE SMOOTH",
"371 876 OFFCURVE",
"318 788 OFFCURVE",
"318 707 CURVE SMOOTH",
"318 647 OFFCURVE",
"348 597 OFFCURVE",
"392 565 CURVE",
"314 584 OFFCURVE",
"264 654 OFFCURVE",
"287 764 CURVE",
"182 766 OFFCURVE",
"120 770 OFFCURVE",
"72 775 CURVE",
"45 712 OFFCURVE",
"45 582 OFFCURVE",
"68 533 CURVE",
"129 523 OFFCURVE",
"119 448 OFFCURVE",
"108 374 CURVE SMOOTH",
"98 303 OFFCURVE",
"84 235 OFFCURVE",
"20 222 CURVE",
"2 165 OFFCURVE",
"5 40 OFFCURVE",
"27 -17 CURVE"
);
},
{
closed = 1;
nodes = (
"512 466 LINE",
"584 466 LINE",
"584 419 LINE",
"512 419 LINE"
);
},
{
closed = 1;
nodes = (
"525 744 LINE",
"557 744 LINE",
"557 668 LINE",
"525 668 LINE"
);
}
);
width = 1106;
}
);
leftKerningGroup = A;
leftMetricsKey = "=A";
rightKerningGroup = A;
rightMetricsKey = "=A";
unicode = 00C5;
},
{
color = 5;
glyphname = Aringacute;
layers = (
{
anchors = (
{
name = bottom;
position = "{553, 0}";
}
);
layerId = "863809E3-B3D3-4728-B9C6-73F0AB5A9F00";
paths = (
{
closed = 1;
nodes = (
"86 -11 OFFCURVE",
"174 -1 OFFCURVE",
"298 -1 CURVE SMOOTH",
"415 -1 OFFCURVE",
"471 -12 OFFCURVE",
"526 -17 CURVE",
"541 40 OFFCURVE",
"544 165 OFFCURVE",
"533 222 CURVE",
"505 222 LINE",
"505 272 LINE",
"592 272 LINE",
"592 222 LINE",
"564 222 LINE",
"556 165 OFFCURVE",
"559 40 OFFCURVE",
"571 -17 CURVE",
"626 -12 OFFCURVE",
"731 -1 OFFCURVE",
"842 -1 CURVE SMOOTH",
"950 -1 OFFCURVE",
"1024 -12 OFFCURVE",
"1079 -17 CURVE",
"1101 40 OFFCURVE",
"1104 165 OFFCURVE",
"1086 222 CURVE",
"1043 237 OFFCURVE",
"1006 274 OFFCURVE",
"1006 392 CURVE SMOOTH",
"1006 489 OFFCURVE",
"1023 676 OFFCURVE",
"921 752 CURVE",
"939 785 OFFCURVE",
"952 819 OFFCURVE",
"958 853 CURVE",
"924 896 OFFCURVE",
"816 927 OFFCURVE",
"712 927 CURVE SMOOTH",
"663 927 OFFCURVE",
"615 920 OFFCURVE",
"576 904 CURVE",
"555 875 OFFCURVE",
"532 826 OFFCURVE",
"523 773 CURVE",
"502 822 OFFCURVE",
"516 856 OFFCURVE",
"522 876 CURVE",
"381 876 OFFCURVE",
"318 788 OFFCURVE",
"318 707 CURVE SMOOTH",
"318 647 OFFCURVE",
"348 597 OFFCURVE",
"392 565 CURVE",
"314 584 OFFCURVE",
"264 654 OFFCURVE",
"287 764 CURVE",
"182 766 OFFCURVE",
"120 770 OFFCURVE",
"72 775 CURVE",
"45 712 OFFCURVE",
"45 582 OFFCURVE",
"68 533 CURVE",
"129 523 OFFCURVE",
"119 448 OFFCURVE",
"108 374 CURVE SMOOTH",
"98 303 OFFCURVE",
"84 235 OFFCURVE",
"20 222 CURVE",
"2 165 OFFCURVE",
"5 40 OFFCURVE",
"27 -17 CURVE"
);
},
{
closed = 1;
nodes = (
"512 466 LINE",
"584 466 LINE",
"584 419 LINE",
"512 419 LINE"
);
},
{
closed = 1;
nodes = (
"486 744 LINE",
"518 744 LINE",
"518 668 LINE",
"486 668 LINE"
);
}
);
width = 1106;
}
);
leftKerningGroup = A;
leftMetricsKey = "=A";
rightKerningGroup = A;
rightMetricsKey = "=A";
unicode = 01FA;
},
{
color = 7;
glyphname = Aringbelow;
layers = (
{
anchors = (
{
name = bottom;
position = "{553, -103}";
},
{
name = top;
position = "{553, 696}";
}
);
layerId = "863809E3-B3D3-4728-B9C6-73F0AB5A9F00";
paths = (
{
closed = 1;
nodes = (
"700 -173 OFFCURVE",
"756 -89 OFFCURVE",
"756 -3 CURVE",
"784 -2 OFFCURVE",
"813 -1 OFFCURVE",
"842 -1 CURVE SMOOTH",
"950 -1 OFFCURVE",
"1024 -12 OFFCURVE",
"1079 -17 CURVE",
"1101 40 OFFCURVE",
"1104 165 OFFCURVE",
"1086 222 CURVE",
"1043 237 OFFCURVE",
"1006 274 OFFCURVE",
"1006 392 CURVE SMOOTH",
"1006 515 OFFCURVE",
"1033 785 OFFCURVE",
"808 785 CURVE SMOOTH",
"647 785 OFFCURVE",
"469 764 OFFCURVE",
"333 764 CURVE SMOOTH",
"199 764 OFFCURVE",
"127 770 OFFCURVE",
"72 775 CURVE",
"45 712 OFFCURVE",
"45 582 OFFCURVE",
"68 533 CURVE",
"129 523 OFFCURVE",
"119 448 OFFCURVE",
"108 374 CURVE SMOOTH",
"98 303 OFFCURVE",
"84 235 OFFCURVE",
"20 222 CURVE",
"2 165 OFFCURVE",
"5 40 OFFCURVE",
"27 -17 CURVE",
"84 -11 OFFCURVE",
"168 -2 OFFCURVE",
"286 -1 CURVE",
"290 67 OFFCURVE",
"330 146 OFFCURVE",
"416 151 CURVE",
"346 119 OFFCURVE",
"319 59 OFFCURVE",
"319 5 CURVE SMOOTH",
"319 -97 OFFCURVE",
"395 -173 OFFCURVE",
"541 -173 CURVE SMOOTH"
);
},
{
closed = 1;
nodes = (
"522 42 LINE",
"554 42 LINE",
"554 -34 LINE",
"522 -34 LINE"
);
},
{
closed = 1;
nodes = (
"504 272 LINE",
"592 272 LINE",
"592 221 LINE",
"504 221 LINE"
);
},
{
closed = 1;
nodes = (
"512 466 LINE",
"584 466 LINE",
"584 419 LINE",
"512 419 LINE"
);
}
);
width = 1106;
}
);
leftKerningGroup = A;
leftMetricsKey = "=A";
rightKerningGroup = A;
rightMetricsKey = "=A";
unicode = 1E00;
},
{
color = 7;
glyphname = Astroke;
layers = (
{
layerId = "863809E3-B3D3-4728-B9C6-73F0AB5A9F00";
paths = (
{
closed = 1;
nodes = (
"452 -127 OFFCURVE",
"493 -123 OFFCURVE",
"518 -117 CURVE",
"566 65 LINE",
"596 65 LINE",
"574 -17 LINE",
"626 -11 OFFCURVE",
"731 -1 OFFCURVE",
"842 -1 CURVE SMOOTH",
"950 -1 OFFCURVE",
"1024 -12 OFFCURVE",
"1079 -17 CURVE",
"1101 40 OFFCURVE",
"1104 165 OFFCURVE",
"1086 222 CURVE",
"1043 237 OFFCURVE",
"1006 274 OFFCURVE",
"1006 392 CURVE SMOOTH",
"1006 675 OFFCURVE",
"960 785 OFFCURVE",
"857 785 CURVE SMOOTH",
"800 785 OFFCURVE",
"768 752 OFFCURVE",
"726 667 CURVE",
"778 872 LINE",
"761 880 OFFCURVE",
"728 883 OFFCURVE",
"693 883 CURVE SMOOTH",
"653 883 OFFCURVE",
"610 879 OFFCURVE",
"583 874 CURVE",
"557 774 LINE",
"477 769 OFFCURVE",
"400 764 OFFCURVE",
"333 764 CURVE SMOOTH",
"199 764 OFFCURVE",
"127 770 OFFCURVE",
"72 775 CURVE",
"45 712 OFFCURVE",
"45 582 OFFCURVE",
"68 533 CURVE",
"129 523 OFFCURVE",
"119 448 OFFCURVE",
"108 374 CURVE SMOOTH",
"98 303 OFFCURVE",
"84 235 OFFCURVE",
"20 222 CURVE",
"2 165 OFFCURVE",
"5 40 OFFCURVE",
"27 -17 CURVE",
"86 -11 OFFCURVE",
"174 -1 OFFCURVE",
"298 -1 CURVE SMOOTH",
"318 -1 OFFCURVE",
"336 -1 OFFCURVE",
"353 -2 CURVE",
"323 -115 LINE",
"341 -123 OFFCURVE",
"376 -127 OFFCURVE",
"413 -127 CURVE SMOOTH"
);
},
{
closed = 1;
nodes = (
"512 466 LINE",
"584 466 LINE",
"584 419 LINE",
"512 419 LINE"
);
},
{
closed = 1;
nodes = (
"512 272 LINE",
"584 272 LINE",
"584 225 LINE",
"512 225 LINE"
);
}
);
width = 1106;
}
);
leftKerningGroup = A;
leftMetricsKey = "=A";
rightKerningGroup = A;
rightMetricsKey = "=A";
unicode = 023A;
},
{
color = 5;
glyphname = Atilde;
layers = (
{
anchors = (
{
name = bottom;
position = "{553, 0}";
},
{
name = top;
position = "{553, 799}";
}
);
layerId = "863809E3-B3D3-4728-B9C6-73F0AB5A9F00";
paths = (
{
closed = 1;
nodes = (
"86 -11 OFFCURVE",
"174 -1 OFFCURVE",
"298 -1 CURVE SMOOTH",
"415 -1 OFFCURVE",
"471 -12 OFFCURVE",
"526 -17 CURVE",
"541 40 OFFCURVE",
"544 165 OFFCURVE",
"533 222 CURVE",
"505 222 LINE",
"505 272 LINE",
"592 272 LINE",
"592 222 LINE",
"564 222 LINE",
"556 165 OFFCURVE",
"559 40 OFFCURVE",
"571 -17 CURVE",
"626 -12 OFFCURVE",
"731 -1 OFFCURVE",
"842 -1 CURVE SMOOTH",
"950 -1 OFFCURVE",
"1024 -12 OFFCURVE",
"1079 -17 CURVE",
"1101 40 OFFCURVE",
"1104 165 OFFCURVE",
"1086 222 CURVE",
"1043 237 OFFCURVE",
"1006 274 OFFCURVE",
"1006 392 CURVE SMOOTH",
"1006 515 OFFCURVE",
"1033 785 OFFCURVE",
"808 785 CURVE SMOOTH",
"801 785 LINE",
"802 798 OFFCURVE",
"802 812 OFFCURVE",
"802 827 CURVE",
"767 845 OFFCURVE",
"675 854 OFFCURVE",
"634 855 CURVE",
"620 834 OFFCURVE",
"597 821 OFFCURVE",
"561 821 CURVE SMOOTH",
"510 821 OFFCURVE",
"454 851 OFFCURVE",
"383 851 CURVE SMOOTH",
"273 851 OFFCURVE",
"218 774 OFFCURVE",
"214 576 CURVE",
"193 609 OFFCURVE",
"184 689 OFFCURVE",
"203 767 CURVE",
"146 769 OFFCURVE",
"106 772 OFFCURVE",
"72 775 CURVE",
"45 712 OFFCURVE",
"45 582 OFFCURVE",
"68 533 CURVE",
"129 523 OFFCURVE",
"119 448 OFFCURVE",
"108 374 CURVE SMOOTH",
"98 303 OFFCURVE",
"84 235 OFFCURVE",
"20 222 CURVE",
"2 165 OFFCURVE",
"5 40 OFFCURVE",
"27 -17 CURVE"
);
},
{
closed = 1;
nodes = (
"512 466 LINE",
"584 466 LINE",
"584 419 LINE",
"512 419 LINE"
);
}
);
width = 1106;
}
);
leftKerningGroup = A;
leftMetricsKey = "=A";
rightKerningGroup = A;
rightMetricsKey = "=A";
unicode = 00C3;
},
{
color = 4;
glyphname = AE;
layers = (
{
anchors = (
{
name = bottom;
position = "{740, 0}";
},
{
name = top;
position = "{740, 696}";
}
);
layerId = "863809E3-B3D3-4728-B9C6-73F0AB5A9F00";
paths = (
{
closed = 1;
nodes = (
"630 -12 OFFCURVE",
"848 -2 OFFCURVE",
"988 -2 CURVE SMOOTH",
"1145 -2 OFFCURVE",
"1317 -15 OFFCURVE",
"1457 -17 CURVE",
"1472 40 OFFCURVE",
"1475 315 OFFCURVE",
"1464 374 CURVE",
"1362 381 OFFCURVE",
"1240 381 OFFCURVE",
"1128 374 CURVE",
"1120 343 OFFCURVE",
"1120 311 OFFCURVE",
"1128 280 CURVE",
"1011 280 LINE",
"1011 323 LINE",
"1105 323 LINE",
"1105 462 LINE",
"1012 462 LINE",
"1012 504 LINE",
"1128 504 LINE",
"1120 473 OFFCURVE",
"1120 442 OFFCURVE",
"1128 411 CURVE",
"1232 399 OFFCURVE",
"1364 399 OFFCURVE",
"1458 411 CURVE",
"1478 482 OFFCURVE",
"1470 713 OFFCURVE",
"1453 776 CURVE",
"1284 775 OFFCURVE",
"959 763 OFFCURVE",
"626 763 CURVE SMOOTH",
"411 763 OFFCURVE",
"232 763 OFFCURVE",
"72 775 CURVE",
"45 712 OFFCURVE",
"45 582 OFFCURVE",
"68 533 CURVE",
"129 523 OFFCURVE",
"119 448 OFFCURVE",
"108 374 CURVE SMOOTH",
"98 303 OFFCURVE",
"84 235 OFFCURVE",
"20 222 CURVE",
"2 165 OFFCURVE",
"5 40 OFFCURVE",
"27 -17 CURVE",
"86 -11 OFFCURVE",
"174 -1 OFFCURVE",
"298 -1 CURVE SMOOTH",
"415 -1 OFFCURVE",
"471 -12 OFFCURVE",
"526 -17 CURVE",
"541 40 OFFCURVE",
"544 165 OFFCURVE",
"533 222 CURVE",
"505 222 LINE",
"505 272 LINE",
"592 272 LINE",
"592 222 LINE",
"564 222 LINE",
"556 165 OFFCURVE",
"559 39 OFFCURVE",
"571 -18 CURVE"
);
},
{
closed = 1;
nodes = (
"512 466 LINE",
"584 466 LINE",
"584 419 LINE",
"512 419 LINE"
);
}
);
width = 1479;
}
);
leftKerningGroup = A;
leftMetricsKey = "=A";
rightKerningGroup = E;
rightMetricsKey = "=E";
unicode = 00C6;
},
{
color = 5;
glyphname = AEacute;
layers = (
{
anchors = (
{
name = bottom;
position = "{740, 0}";
},
{
name = top;
position = "{740, 799}";
}
);
layerId = "863809E3-B3D3-4728-B9C6-73F0AB5A9F00";
paths = (
{
closed = 1;
nodes = (
"630 -12 OFFCURVE",
"848 -2 OFFCURVE",
"988 -2 CURVE SMOOTH",
"1145 -2 OFFCURVE",
"1317 -15 OFFCURVE",
"1457 -17 CURVE",
"1472 40 OFFCURVE",
"1475 315 OFFCURVE",
"1464 374 CURVE",
"1362 381 OFFCURVE",
"1240 381 OFFCURVE",
"1128 374 CURVE",
"1120 343 OFFCURVE",
"1120 311 OFFCURVE",
"1128 280 CURVE",
"1011 280 LINE",
"1011 323 LINE",
"1105 323 LINE",
"1105 462 LINE",
"1012 462 LINE",
"1012 504 LINE",
"1128 504 LINE",
"1120 473 OFFCURVE",
"1120 442 OFFCURVE",
"1128 411 CURVE",
"1232 399 OFFCURVE",
"1364 399 OFFCURVE",
"1458 411 CURVE",
"1478 482 OFFCURVE",
"1470 713 OFFCURVE",
"1453 776 CURVE",
"1343 775 OFFCURVE",
"1168 770 OFFCURVE",
"967 766 CURVE",
"971 780 OFFCURVE",
"974 793 OFFCURVE",
"976 803 CURVE",
"942 846 OFFCURVE",
"834 877 OFFCURVE",
"730 877 CURVE SMOOTH",
"681 877 OFFCURVE",
"633 870 OFFCURVE",
"594 854 CURVE",
"526 759 OFFCURVE",
"518 642 OFFCURVE",
"559 569 CURVE",
"487 610 OFFCURVE",
"494 705 OFFCURVE",
"510 763 CURVE",
"346 763 OFFCURVE",
"202 765 OFFCURVE",
"72 775 CURVE",
"45 712 OFFCURVE",
"45 582 OFFCURVE",
"68 533 CURVE",
"129 523 OFFCURVE",
"119 448 OFFCURVE",
"108 374 CURVE SMOOTH",
"98 303 OFFCURVE",
"84 235 OFFCURVE",
"20 222 CURVE",
"2 165 OFFCURVE",
"5 40 OFFCURVE",
"27 -17 CURVE",
"86 -11 OFFCURVE",
"174 -1 OFFCURVE",
"298 -1 CURVE SMOOTH",
"415 -1 OFFCURVE",
"471 -12 OFFCURVE",
"526 -17 CURVE",
"541 40 OFFCURVE",
"544 165 OFFCURVE",
"533 222 CURVE",
"505 222 LINE",
"505 272 LINE",
"592 272 LINE",
"592 222 LINE",
"564 222 LINE",
"556 165 OFFCURVE",
"559 39 OFFCURVE",
"571 -18 CURVE"
);
},
{
closed = 1;
nodes = (
"512 466 LINE",
"584 466 LINE",
"584 419 LINE",
"512 419 LINE"
);
}
);
width = 1479;
}
);
leftKerningGroup = A;
rightKerningGroup = E;
unicode = 01FC;
},
{
color = 7;
glyphname = AEmacron;
layers = (
{
anchors = (
{
name = bottom;
position = "{740, 0}";
},
{
name = top;
position = "{740, 799}";
}
);
layerId = "863809E3-B3D3-4728-B9C6-73F0AB5A9F00";
paths = (
{
closed = 1;
nodes = (
"630 -12 OFFCURVE",
"848 -2 OFFCURVE",
"988 -2 CURVE SMOOTH",
"1145 -2 OFFCURVE",
"1317 -15 OFFCURVE",
"1457 -17 CURVE",
"1472 40 OFFCURVE",
"1475 315 OFFCURVE",
"1464 374 CURVE",
"1362 381 OFFCURVE",
"1240 381 OFFCURVE",
"1128 374 CURVE",
"1120 343 OFFCURVE",
"1120 311 OFFCURVE",
"1128 280 CURVE",
"1011 280 LINE",
"1011 323 LINE",
"1105 323 LINE",
"1105 462 LINE",
"1012 462 LINE",
"1012 504 LINE",
"1128 504 LINE",
"1120 473 OFFCURVE",
"1120 442 OFFCURVE",
"1128 411 CURVE",
"1232 399 OFFCURVE",
"1364 399 OFFCURVE",
"1458 411 CURVE",
"1478 482 OFFCURVE",
"1470 713 OFFCURVE",
"1453 776 CURVE",
"1334 775 OFFCURVE",
"1170 769 OFFCURVE",
"949 765 CURVE",
"947 807 OFFCURVE",
"945 841 OFFCURVE",
"941 854 CURVE",
"804 844 OFFCURVE",
"552 844 OFFCURVE",
"417 854 CURVE",
"405 798 OFFCURVE",
"407 588 OFFCURVE",
"417 552 CURVE",
"387 605 OFFCURVE",
"377 687 OFFCURVE",
"374 764 CURVE",
"278 766 OFFCURVE",
"156 769 OFFCURVE",
"72 775 CURVE",
"45 712 OFFCURVE",
"45 582 OFFCURVE",
"68 533 CURVE",
"129 523 OFFCURVE",
"119 448 OFFCURVE",
"108 374 CURVE SMOOTH",
"98 303 OFFCURVE",
"84 235 OFFCURVE",
"20 222 CURVE",
"2 165 OFFCURVE",
"5 40 OFFCURVE",
"27 -17 CURVE",
"86 -11 OFFCURVE",
"174 -1 OFFCURVE",
"298 -1 CURVE SMOOTH",
"415 -1 OFFCURVE",
"471 -12 OFFCURVE",
"526 -17 CURVE",
"541 40 OFFCURVE",
"544 165 OFFCURVE",
"533 222 CURVE",
"505 222 LINE",
"505 272 LINE",
"592 272 LINE",
"592 222 LINE",
"564 222 LINE",
"556 165 OFFCURVE",
"559 39 OFFCURVE",
"571 -18 CURVE"
);
},
{
closed = 1;
nodes = (
"512 466 LINE",
"584 466 LINE",
"584 419 LINE",
"512 419 LINE"
);
}
);
width = 1479;
}
);
leftKerningGroup = A;
leftMetricsKey = "=A";
rightKerningGroup = E;
rightMetricsKey = "=E";
unicode = 01E2;
},
{
color = 4;
glyphname = B;
layers = (
{
anchors = (
{
name = bottom;
position = "{525, 0}";
},
{
name = top;
position = "{525, 696}";
}
);
layerId = "863809E3-B3D3-4728-B9C6-73F0AB5A9F00";
paths = (
{
closed = 1;
nodes = (
"959 -23 OFFCURVE",
"1041 72 OFFCURVE",
"1041 224 CURVE SMOOTH",
"1041 291 OFFCURVE",
"1017 349 OFFCURVE",
"939 396 CURVE",
"984 441 OFFCURVE",
"1013 495 OFFCURVE",
"1013 555 CURVE SMOOTH",
"1013 754 OFFCURVE",
"851 781 OFFCURVE",
"623 781 CURVE SMOOTH",
"408 781 OFFCURVE",
"253 766 OFFCURVE",
"29 778 CURVE",
"1 713 OFFCURVE",
"2 592 OFFCURVE",
"25 533 CURVE",
"49 532 OFFCURVE",
"91 509 OFFCURVE",
"91 381 CURVE SMOOTH",
"91 263 OFFCURVE",
"57 233 OFFCURVE",
"25 222 CURVE",
"7 165 OFFCURVE",
"9 41 OFFCURVE",
"31 -16 CURVE",
"282 0 OFFCURVE",
"408 -23 OFFCURVE",
"642 -23 CURVE SMOOTH"
);
},
{
closed = 1;
nodes = (
"503 319 LINE",
"585 319 LINE",
"585 262 LINE",
"503 262 LINE"
);
},
{
closed = 1;
nodes = (
"503 504 LINE",
"577 504 LINE",
"577 450 LINE",
"503 450 LINE"
);
}
);
width = 1049;
}
);
leftKerningGroup = N;
rightKerningGroup = B;
unicode = 0042;
},
{
color = 7;
glyphname = Bdotaccent;
layers = (
{
anchors = (
{
name = bottom;
position = "{525, 0}";
},
{
name = top;
position = "{525, 799}";
}
);
layerId = "863809E3-B3D3-4728-B9C6-73F0AB5A9F00";
paths = (
{
closed = 1;
nodes = (
"959 -23 OFFCURVE",
"1041 72 OFFCURVE",
"1041 224 CURVE SMOOTH",
"1041 291 OFFCURVE",
"1017 349 OFFCURVE",
"939 396 CURVE",
"984 441 OFFCURVE",
"1013 495 OFFCURVE",
"1013 555 CURVE SMOOTH",
"1013 725 OFFCURVE",
"894 770 OFFCURVE",
"717 779 CURVE",
"683 843 OFFCURVE",
"616 876 OFFCURVE",
"507 876 CURVE SMOOTH",
"351 876 OFFCURVE",
"298 788 OFFCURVE",
"298 707 CURVE SMOOTH",
"298 648 OFFCURVE",
"328 597 OFFCURVE",
"372 565 CURVE",
"292 585 OFFCURVE",
"241 659 OFFCURVE",
"270 774 CURVE",
"195 773 OFFCURVE",
"118 774 OFFCURVE",
"29 778 CURVE",
"1 713 OFFCURVE",
"2 592 OFFCURVE",
"25 533 CURVE",
"49 532 OFFCURVE",
"91 509 OFFCURVE",
"91 381 CURVE SMOOTH",
"91 263 OFFCURVE",
"57 233 OFFCURVE",
"25 222 CURVE",
"7 165 OFFCURVE",
"9 41 OFFCURVE",
"31 -16 CURVE",
"282 0 OFFCURVE",
"408 -23 OFFCURVE",
"642 -23 CURVE SMOOTH"
);
},
{
closed = 1;
nodes = (
"503 319 LINE",
"585 319 LINE",
"585 262 LINE",
"503 262 LINE"
);
},
{
closed = 1;
nodes = (
"503 504 LINE",
"577 504 LINE",
"577 450 LINE",
"503 450 LINE"
);
}
);
width = 1049;
}
);
leftKerningGroup = N;
leftMetricsKey = "=B";
rightKerningGroup = B;
rightMetricsKey = "=B";
unicode = 1E02;
},
{
color = 7;
glyphname = Bdotbelow;
layers = (
{
anchors = (
{
name = bottom;
position = "{525, -103}";
},
{
name = top;
position = "{525, 696}";
}
);
layerId = "863809E3-B3D3-4728-B9C6-73F0AB5A9F00";
paths = (
{
closed = 1;
nodes = (
"672 -173 OFFCURVE",
"731 -99 OFFCURVE",
"737 -20 CURVE",
"976 -2 OFFCURVE",
"1041 88 OFFCURVE",
"1041 224 CURVE SMOOTH",
"1041 291 OFFCURVE",
"1017 349 OFFCURVE",
"939 396 CURVE",
"984 441 OFFCURVE",
"1013 495 OFFCURVE",
"1013 555 CURVE SMOOTH",
"1013 754 OFFCURVE",
"851 781 OFFCURVE",
"623 781 CURVE SMOOTH",
"408 781 OFFCURVE",
"253 766 OFFCURVE",
"29 778 CURVE",
"1 713 OFFCURVE",
"2 592 OFFCURVE",
"25 533 CURVE",
"49 532 OFFCURVE",
"91 509 OFFCURVE",
"91 381 CURVE SMOOTH",
"91 263 OFFCURVE",
"57 233 OFFCURVE",
"25 222 CURVE",
"7 165 OFFCURVE",
"9 41 OFFCURVE",
"31 -16 CURVE",
"123 -10 OFFCURVE",
"198 -9 OFFCURVE",
"268 -11 CURVE",
"269 59 OFFCURVE",
"308 145 OFFCURVE",
"398 151 CURVE",
"328 119 OFFCURVE",
"301 59 OFFCURVE",
"301 5 CURVE SMOOTH",
"301 -97 OFFCURVE",
"377 -173 OFFCURVE",
"523 -173 CURVE SMOOTH"
);
},
{
closed = 1;
nodes = (
"503 319 LINE",
"585 319 LINE",
"585 262 LINE",
"503 262 LINE"
);
},
{
closed = 1;
nodes = (
"503 504 LINE",
"577 504 LINE",
"577 450 LINE",
"503 450 LINE"
);
}
);
width = 1049;
}
);
leftKerningGroup = N;
leftMetricsKey = "=B";
rightKerningGroup = B;
rightMetricsKey = "=B";
unicode = 1E04;
},
{
color = 7;
glyphname = "Beta-latin";
layers = (
{
anchors = (
{
name = top;
position = "{525, 696}";
}
);
layerId = "863809E3-B3D3-4728-B9C6-73F0AB5A9F00";
paths = (
{
closed = 1;
nodes = (
"545 -130 OFFCURVE",
"549 -77 OFFCURVE",
"548 -28 CURVE",
"491 -6 OFFCURVE",
"447 30 OFFCURVE",
"408 73 CURVE",
"430 93 LINE",
"488 27 OFFCURVE",
"556 -23 OFFCURVE",
"726 -23 CURVE SMOOTH",
"933 -23 OFFCURVE",
"1037 72 OFFCURVE",
"1037 224 CURVE SMOOTH",
"1037 291 OFFCURVE",
"1013 349 OFFCURVE",
"935 396 CURVE",
"980 441 OFFCURVE",
"1009 495 OFFCURVE",
"1009 555 CURVE SMOOTH",
"1009 754 OFFCURVE",
"847 781 OFFCURVE",
"619 781 CURVE SMOOTH",
"404 781 OFFCURVE",
"249 766 OFFCURVE",
"25 778 CURVE",
"-3 713 OFFCURVE",
"-2 592 OFFCURVE",
"21 533 CURVE",
"45 532 OFFCURVE",
"87 509 OFFCURVE",
"87 301 CURVE SMOOTH",
"76 134 OFFCURVE",
"38 103 OFFCURVE",
"15 92 CURVE",
"-5 27 OFFCURVE",
"-5 -93 OFFCURVE",
"17 -151 CURVE",
"98 -143 OFFCURVE",
"209 -138 OFFCURVE",
"301 -138 CURVE SMOOTH",
"374 -138 OFFCURVE",
"446 -143 OFFCURVE",
"538 -153 CURVE"
);
},
{
closed = 1;
nodes = (
"499 319 LINE",
"581 319 LINE",
"581 262 LINE",
"499 262 LINE"
);
},
{
closed = 1;
nodes = (
"499 504 LINE",
"573 504 LINE",
"573 450 LINE",
"499 450 LINE"
);
}
);
width = 1045;
}
);
leftKerningGroup = "Beta-latin";
rightKerningGroup = B;
rightMetricsKey = "=B";
unicode = A7B4;
},
{
color = 7;
glyphname = Bhook;
layers = (
{
associatedMasterId = "863809E3-B3D3-4728-B9C6-73F0AB5A9F00";
layerId = "363A05FC-8A66-479D-8D09-B49E05E11B6F";
name = "Nov 17 23, 13:33";
paths = (
{
closed = 1;
nodes = (
"1118 -23 OFFCURVE",
"1200 72 OFFCURVE",
"1200 224 CURVE SMOOTH",
"1200 291 OFFCURVE",
"1176 349 OFFCURVE",
"1098 396 CURVE",
"1143 441 OFFCURVE",
"1172 495 OFFCURVE",
"1172 555 CURVE SMOOTH",
"1172 754 OFFCURVE",
"1010 781 OFFCURVE",
"822 781 CURVE SMOOTH",
"719 781 OFFCURVE",
"614 775 OFFCURVE",
"540 775 CURVE SMOOTH",
"467 775 OFFCURVE",
"352 780 OFFCURVE",
"287 780 CURVE SMOOTH",
"82 780 OFFCURVE",
"8 702 OFFCURVE",
"8 528 CURVE SMOOTH",
"8 482 OFFCURVE",
"14 354 OFFCURVE",
"16 314 CURVE",
"59 300 OFFCURVE",
"159 298 OFFCURVE",
"213 310 CURVE",
"213 419 OFFCURVE",
"224 451 OFFCURVE",
"249 453 CURVE",
"250 381 LINE",
"250 263 OFFCURVE",
"216 233 OFFCURVE",
"184 222 CURVE",
"166 165 OFFCURVE",
"168 41 OFFCURVE",
"190 -16 CURVE",
"441 0 OFFCURVE",
"567 -23 OFFCURVE",
"801 -23 CURVE SMOOTH"
);
},
{
closed = 1;
nodes = (
"662 319 LINE",
"744 319 LINE",
"744 262 LINE",
"662 262 LINE"
);
},
{
closed = 1;
nodes = (
"662 504 LINE",
"736 504 LINE",
"736 450 LINE",
"662 450 LINE"
);
}
);
width = 1208;
},
{
associatedMasterId = "863809E3-B3D3-4728-B9C6-73F0AB5A9F00";
layerId = "99349ADC-41F0-4EF2-9557-20CC8269260D";
name = "Nov 17 23, 20:04";
paths = (
{
closed = 1;
nodes = (
"1041 -23 OFFCURVE",
"1123 72 OFFCURVE",
"1123 224 CURVE SMOOTH",
"1123 291 OFFCURVE",
"1099 349 OFFCURVE",
"1021 396 CURVE",
"1066 441 OFFCURVE",
"1095 495 OFFCURVE",
"1095 555 CURVE SMOOTH",
"1095 754 OFFCURVE",
"933 781 OFFCURVE",
"745 781 CURVE SMOOTH",
"642 781 OFFCURVE",
"537 775 OFFCURVE",
"463 775 CURVE SMOOTH",
"398 775 OFFCURVE",
"298 780 OFFCURVE",
"240 780 CURVE SMOOTH",
"4 780 OFFCURVE",
"-5 628 OFFCURVE",
"15 299 CURVE",
"47 293 OFFCURVE",
"107 297 OFFCURVE",
"140 303 CURVE",
"140 352 LINE SMOOTH",
"140 470 OFFCURVE",
"180 506 OFFCURVE",
"257 523 CURVE",
"263 495 LINE",
"204 484 OFFCURVE",
"170 453 OFFCURVE",
"170 341 CURVE SMOOTH",
"170 259 OFFCURVE",
"139 233 OFFCURVE",
"107 222 CURVE",
"89 165 OFFCURVE",
"91 41 OFFCURVE",
"113 -16 CURVE",
"364 0 OFFCURVE",
"490 -23 OFFCURVE",
"724 -23 CURVE SMOOTH"
);
},
{
closed = 1;
nodes = (
"585 319 LINE",
"667 319 LINE",
"667 262 LINE",
"585 262 LINE"
);
},
{
closed = 1;
nodes = (
"585 504 LINE",
"659 504 LINE",
"659 450 LINE",
"585 450 LINE"
);
}
);
width = 1131;
},
{
anchors = (
{
name = bottom;
position = "{695, 0}";
},
{
name = top;
position = "{695, 696}";
}
);
layerId = "863809E3-B3D3-4728-B9C6-73F0AB5A9F00";
paths = (
{
closed = 1;
nodes = (
"1114 -23 OFFCURVE",
"1196 72 OFFCURVE",
"1196 224 CURVE SMOOTH",
"1196 291 OFFCURVE",
"1172 349 OFFCURVE",
"1094 396 CURVE",
"1139 441 OFFCURVE",
"1168 495 OFFCURVE",
"1168 555 CURVE SMOOTH",
"1168 754 OFFCURVE",
"1006 781 OFFCURVE",
"828 781 CURVE SMOOTH",
"725 781 OFFCURVE",
"630 775 OFFCURVE",
"566 775 CURVE SMOOTH",
"481 775 OFFCURVE",
"381 780 OFFCURVE",
"323 780 CURVE SMOOTH",
"132 780 OFFCURVE",
"0 691 OFFCURVE",
"0 490 CURVE SMOOTH",
"0 432 OFFCURVE",
"3 377 OFFCURVE",
"19 299 CURVE",
"51 279 OFFCURVE",
"198 283 OFFCURVE",
"231 303 CURVE",
"231 463 LINE",
"266 463 LINE",
"266 371 LINE SMOOTH",
"266 263 OFFCURVE",
"222 233 OFFCURVE",
"180 222 CURVE",
"162 165 OFFCURVE",
"164 41 OFFCURVE",
"186 -16 CURVE",
"437 0 OFFCURVE",
"563 -23 OFFCURVE",
"797 -23 CURVE SMOOTH"
);
},
{
closed = 1;
nodes = (
"658 319 LINE",
"740 319 LINE",
"740 262 LINE",
"658 262 LINE"
);
},
{
closed = 1;
nodes = (
"658 504 LINE",
"732 504 LINE",
"732 450 LINE",
"658 450 LINE"
);
}
);
width = 1204;
},
{
associatedMasterId = "863809E3-B3D3-4728-B9C6-73F0AB5A9F00";
layerId = "61DE7C11-7D40-4763-A53D-A98CFE5802D9";
name = "Nov 22 23, 12:03";
paths = (
{
closed = 1;
nodes = (
"1083 -23 OFFCURVE",
"1165 72 OFFCURVE",
"1165 224 CURVE SMOOTH",
"1165 291 OFFCURVE",
"1141 349 OFFCURVE",
"1063 396 CURVE",
"1108 441 OFFCURVE",
"1137 495 OFFCURVE",
"1137 555 CURVE SMOOTH",
"1137 754 OFFCURVE",
"975 781 OFFCURVE",
"787 781 CURVE SMOOTH",
"684 781 OFFCURVE",
"579 775 OFFCURVE",
"505 775 CURVE SMOOTH",
"440 775 OFFCURVE",
"340 780 OFFCURVE",
"282 780 CURVE SMOOTH",
"91 780 OFFCURVE",
"2 693 OFFCURVE",
"2 502 CURVE SMOOTH",
"2 444 OFFCURVE",
"11 377 OFFCURVE",
"27 299 CURVE",
"59 293 OFFCURVE",
"145 297 OFFCURVE",
"178 303 CURVE",
"178 463 LINE",
"215 463 LINE",
"215 381 LINE SMOOTH",
"215 263 OFFCURVE",
"181 233 OFFCURVE",
"149 222 CURVE",
"131 165 OFFCURVE",
"133 41 OFFCURVE",
"155 -16 CURVE",
"406 0 OFFCURVE",
"532 -23 OFFCURVE",
"766 -23 CURVE SMOOTH"
);
},
{
closed = 1;
nodes = (
"627 319 LINE",
"709 319 LINE",
"709 262 LINE",
"627 262 LINE"
);
},
{
closed = 1;
nodes = (
"627 504 LINE",
"701 504 LINE",
"701 450 LINE",
"627 450 LINE"
);
}
);
width = 1173;
}
);
leftKerningGroup = Bhook;
rightKerningGroup = B;
rightMetricsKey = "=B";
unicode = 0181;
},
{
color = 7;
glyphname = Bmacronbelow;
layers = (
{
anchors = (
{
name = bottom;
position = "{525, -103}";
},
{
name = top;
position = "{525, 696}";
}
);
layerId = "863809E3-B3D3-4728-B9C6-73F0AB5A9F00";
paths = (
{
closed = 1;
nodes = (
"403 -137 OFFCURVE",
"650 -137 OFFCURVE",
"787 -143 CURVE",
"792 -119 OFFCURVE",
"794 -68 OFFCURVE",
"795 -13 CURVE",
"987 14 OFFCURVE",
"1041 100 OFFCURVE",
"1041 224 CURVE SMOOTH",
"1041 291 OFFCURVE",
"1017 349 OFFCURVE",
"939 396 CURVE",
"984 441 OFFCURVE",
"1013 495 OFFCURVE",
"1013 555 CURVE SMOOTH",
"1013 754 OFFCURVE",
"851 781 OFFCURVE",
"623 781 CURVE SMOOTH",
"408 781 OFFCURVE",
"253 766 OFFCURVE",
"29 778 CURVE",
"1 713 OFFCURVE",
"2 592 OFFCURVE",
"25 533 CURVE",
"49 532 OFFCURVE",
"91 509 OFFCURVE",
"91 381 CURVE SMOOTH",
"91 263 OFFCURVE",
"57 233 OFFCURVE",
"25 222 CURVE",
"7 165 OFFCURVE",
"9 41 OFFCURVE",
"31 -16 CURVE",
"105 -11 OFFCURVE",
"168 -10 OFFCURVE",
"226 -11 CURVE",
"231 60 OFFCURVE",
"243 122 OFFCURVE",
"266 159 CURVE",
"256 123 OFFCURVE",
"254 -87 OFFCURVE",
"266 -143 CURVE"
);
},
{
closed = 1;
nodes = (
"503 319 LINE",
"585 319 LINE",
"585 262 LINE",
"503 262 LINE"
);
},
{
closed = 1;
nodes = (
"503 504 LINE",
"577 504 LINE",
"577 450 LINE",
"503 450 LINE"
);
}
);
width = 1049;
}
);
leftKerningGroup = N;
leftMetricsKey = "=B";
rightKerningGroup = B;
rightMetricsKey = "=B";
unicode = 1E06;
},
{
color = 7;
glyphname = Bstroke;
layers = (
{
anchors = (
{
name = bottom;
position = "{525, 0}";
},
{
name = top;
position = "{525, 696}";
}
);
layerId = "863809E3-B3D3-4728-B9C6-73F0AB5A9F00";
paths = (
{
closed = 1;
nodes = (
"959 -23 OFFCURVE",
"1041 72 OFFCURVE",
"1041 224 CURVE SMOOTH",
"1041 291 OFFCURVE",
"1017 349 OFFCURVE",
"939 396 CURVE",
"984 441 OFFCURVE",
"1013 495 OFFCURVE",
"1013 555 CURVE SMOOTH",
"1013 754 OFFCURVE",
"851 781 OFFCURVE",
"623 781 CURVE SMOOTH",
"408 781 OFFCURVE",
"253 766 OFFCURVE",
"29 778 CURVE",
"1 713 OFFCURVE",
"2 592 OFFCURVE",
"25 533 CURVE",
"49 532 OFFCURVE",
"91 509 OFFCURVE",
"91 381 CURVE SMOOTH",
"91 373 OFFCURVE",
"91 366 OFFCURVE",
"91 359 CURVE",
"95 365 LINE",
"23 365 LINE",
"4 321 OFFCURVE",
"5 192 OFFCURVE",
"23 148 CURVE",
"192 148 LINE",
"150 119 OFFCURVE",
"56 121 OFFCURVE",
"9 121 CURVE",
"13 127 LINE",
"12 74 OFFCURVE",
"18 18 OFFCURVE",
"31 -16 CURVE",
"282 0 OFFCURVE",
"408 -23 OFFCURVE",
"642 -23 CURVE SMOOTH"
);
},
{
closed = 1;
nodes = (
"503 504 LINE",
"577 504 LINE",
"577 450 LINE",
"503 450 LINE"
);
},
{
closed = 1;
nodes = (
"503 219 LINE",
"562 219 LINE",
"562 291 LINE",
"503 291 LINE",
"503 319 LINE",
"584 319 LINE",
"584 191 LINE",
"503 191 LINE"
);
}
);
width = 1049;
}
);
leftKerningGroup = Eth;
leftMetricsKey = "=B";
rightKerningGroup = B;
rightMetricsKey = "=B";
unicode = 0243;
},
{
color = 4;
glyphname = C;
layers = (
{
anchors = (
{
name = bottom;
position = "{505, 0}";
},
{
name = top;
position = "{505, 696}";
}
);
layerId = "863809E3-B3D3-4728-B9C6-73F0AB5A9F00";
paths = (
{
closed = 1;
nodes = (
"850 -35 OFFCURVE",
"984 94 OFFCURVE",
"994 368 CURVE",
"824 376 OFFCURVE",
"681 376 OFFCURVE",
"526 368 CURVE",
"526 321 LINE",
"473 321 LINE",
"473 450 LINE",
"526 450 LINE",
"527 409 LINE",
"622 393 OFFCURVE",
"883 393 OFFCURVE",
"987 409 CURVE",
"1006 515 OFFCURVE",
"1002 699 OFFCURVE",
"984 781 CURVE",
"904 781 OFFCURVE",
"754 774 OFFCURVE",
"658 773 CURVE",
"663 720 OFFCURVE",
"673 667 OFFCURVE",
"655 616 CURVE",
"652 753 OFFCURVE",
"560 795 OFFCURVE",
"402 795 CURVE SMOOTH",
"172 795 OFFCURVE",
"10 645 OFFCURVE",
"10 388 CURVE SMOOTH",
"10 135 OFFCURVE",
"156 -35 OFFCURVE",
"522 -35 CURVE SMOOTH"
);
}
);
width = 1009;
}
);
leftKerningGroup = O;
rightKerningGroup = C;
unicode = 0043;
},
{
color = 5;
glyphname = Cacute;
layers = (
{
anchors = (
{
name = bottom;
position = "{505, 0}";
},
{
name = top;
position = "{505, 799}";
}
);
layerId = "863809E3-B3D3-4728-B9C6-73F0AB5A9F00";
paths = (
{
closed = 1;
nodes = (
"850 -35 OFFCURVE",
"984 94 OFFCURVE",
"994 368 CURVE",
"824 376 OFFCURVE",
"681 376 OFFCURVE",
"526 368 CURVE",
"526 321 LINE",
"473 321 LINE",
"473 450 LINE",
"526 450 LINE",
"527 409 LINE",
"622 393 OFFCURVE",
"883 393 OFFCURVE",
"987 409 CURVE",
"1006 515 OFFCURVE",
"1002 699 OFFCURVE",
"984 781 CURVE",
"925 781 OFFCURVE",
"835 777 OFFCURVE",
"752 775 CURVE",
"755 786 OFFCURVE",
"758 795 OFFCURVE",
"759 803 CURVE",
"725 846 OFFCURVE",
"617 877 OFFCURVE",
"513 877 CURVE SMOOTH",
"464 877 OFFCURVE",
"416 870 OFFCURVE",
"377 854 CURVE",
"295 739 OFFCURVE",
"300 590 OFFCURVE",
"376 528 CURVE",
"246 573 OFFCURVE",
"277 729 OFFCURVE",
"298 782 CURVE",
"121 740 OFFCURVE",
"10 601 OFFCURVE",
"10 388 CURVE SMOOTH",
"10 135 OFFCURVE",
"156 -35 OFFCURVE",
"522 -35 CURVE SMOOTH"
);
}
);
width = 1009;
}
);
leftKerningGroup = O;
leftMetricsKey = "=C";
rightKerningGroup = C;
rightMetricsKey = "=C";
unicode = 0106;
},
{
color = 5;
glyphname = Ccaron;
layers = (
{
anchors = (
{
name = bottom;
position = "{505, 0}";
},
{
name = top;
position = "{505, 799}";
}
);
layerId = "863809E3-B3D3-4728-B9C6-73F0AB5A9F00";
paths = (
{
closed = 1;
nodes = (
"850 -35 OFFCURVE",
"984 94 OFFCURVE",
"994 368 CURVE",
"824 376 OFFCURVE",
"681 376 OFFCURVE",
"526 368 CURVE",
"526 321 LINE",
"473 321 LINE",
"473 450 LINE",
"526 450 LINE",
"527 409 LINE",
"622 393 OFFCURVE",
"883 393 OFFCURVE",
"987 409 CURVE",
"1006 515 OFFCURVE",
"1002 699 OFFCURVE",
"984 781 CURVE",
"942 781 OFFCURVE",
"885 779 OFFCURVE",
"827 777 CURVE",
"830 801 OFFCURVE",
"831 824 OFFCURVE",
"827 847 CURVE",
"792 865 OFFCURVE",
"694 874 OFFCURVE",
"649 875 CURVE",
"596 861 OFFCURVE",
"535 811 OFFCURVE",
"480 748 CURVE",
"455 765 LINE",
"473 785 OFFCURVE",
"491 804 OFFCURVE",
"509 821 CURVE",
"475 846 OFFCURVE",
"436 867 OFFCURVE",
"407 875 CURVE",
"366 874 OFFCURVE",
"274 865 OFFCURVE",
"239 847 CURVE",
"222 737 OFFCURVE",
"288 605 OFFCURVE",
"357 543 CURVE",
"290 564 OFFCURVE",
"214 651 OFFCURVE",
"205 742 CURVE",
"78 677 OFFCURVE",
"10 556 OFFCURVE",
"10 388 CURVE SMOOTH",
"10 135 OFFCURVE",
"156 -35 OFFCURVE",
"522 -35 CURVE SMOOTH"
);
}
);
width = 1009;
}
);
leftKerningGroup = O;
leftMetricsKey = "=C";
rightKerningGroup = C;
rightMetricsKey = "=C";
unicode = 010C;
},
{
color = 5;
glyphname = Ccedilla;
layers = (
{
anchors = (
{
name = bottom;
position = "{505, -103}";
},
{
name = top;
position = "{505, 696}";
}
);
layerId = "863809E3-B3D3-4728-B9C6-73F0AB5A9F00";
paths = (
{
closed = 1;
nodes = (
"617 -172 OFFCURVE",
"707 -135 OFFCURVE",
"719 -14 CURVE",
"905 32 OFFCURVE",
"986 157 OFFCURVE",
"994 368 CURVE",
"824 376 OFFCURVE",
"681 376 OFFCURVE",
"526 368 CURVE",
"526 321 LINE",
"473 321 LINE",
"473 450 LINE",
"526 450 LINE",
"527 409 LINE",
"622 393 OFFCURVE",
"883 393 OFFCURVE",
"987 409 CURVE",
"1006 515 OFFCURVE",
"1002 699 OFFCURVE",
"984 781 CURVE",
"904 781 OFFCURVE",
"754 774 OFFCURVE",
"658 773 CURVE",
"663 720 OFFCURVE",
"673 667 OFFCURVE",
"655 616 CURVE",
"652 753 OFFCURVE",
"560 795 OFFCURVE",
"402 795 CURVE SMOOTH",
"172 795 OFFCURVE",
"10 645 OFFCURVE",
"10 388 CURVE SMOOTH",
"10 204 OFFCURVE",
"88 63 OFFCURVE",
"272 1 CURVE",
"293 37 OFFCURVE",
"300 84 OFFCURVE",
"293 139 CURVE",
"359 10 OFFCURVE",
"277 -96 OFFCURVE",
"240 -150 CURVE",
"291 -165 OFFCURVE",
"363 -172 OFFCURVE",
"455 -172 CURVE SMOOTH"
);
}
);
width = 1009;
}
);
leftKerningGroup = O;
leftMetricsKey = "=C";
rightKerningGroup = C;
rightMetricsKey = "=C";
unicode = 00C7;
},
{
color = 7;
glyphname = Ccedillaacute;
layers = (
{
anchors = (
{
name = bottom;
position = "{505, 0}";
},
{
name = top;
position = "{505, 799}";
}
);
layerId = "863809E3-B3D3-4728-B9C6-73F0AB5A9F00";
paths = (
{
closed = 1;
nodes = (
"617 -172 OFFCURVE",
"707 -135 OFFCURVE",
"719 -14 CURVE",
"905 32 OFFCURVE",
"986 157 OFFCURVE",
"994 368 CURVE",
"824 376 OFFCURVE",
"681 376 OFFCURVE",
"526 368 CURVE",
"526 321 LINE",
"473 321 LINE",
"473 450 LINE",
"526 450 LINE",
"527 409 LINE",
"622 393 OFFCURVE",
"883 393 OFFCURVE",
"987 409 CURVE",
"1006 515 OFFCURVE",
"1002 699 OFFCURVE",
"984 781 CURVE",
"925 781 OFFCURVE",
"835 777 OFFCURVE",
"752 775 CURVE",
"755 786 OFFCURVE",
"758 795 OFFCURVE",
"759 803 CURVE",
"725 846 OFFCURVE",
"617 877 OFFCURVE",
"513 877 CURVE SMOOTH",
"464 877 OFFCURVE",
"416 870 OFFCURVE",
"377 854 CURVE",
"295 739 OFFCURVE",
"300 590 OFFCURVE",
"376 528 CURVE",
"246 573 OFFCURVE",
"277 729 OFFCURVE",
"298 782 CURVE",
"121 740 OFFCURVE",
"10 601 OFFCURVE",
"10 388 CURVE SMOOTH",
"10 204 OFFCURVE",
"88 63 OFFCURVE",
"272 1 CURVE",
"293 37 OFFCURVE",
"300 84 OFFCURVE",
"293 139 CURVE",
"359 10 OFFCURVE",
"277 -96 OFFCURVE",
"240 -150 CURVE",
"291 -165 OFFCURVE",
"363 -172 OFFCURVE",
"455 -172 CURVE SMOOTH"
);
}
);
width = 1009;
}
);
leftKerningGroup = O;
leftMetricsKey = "=C";
rightKerningGroup = C;
rightMetricsKey = "=C";
unicode = 1E08;
},
{
color = 5;
glyphname = Ccircumflex;
layers = (
{
anchors = (
{
name = bottom;
position = "{505, 0}";
},
{
name = top;
position = "{505, 799}";
}
);
layerId = "863809E3-B3D3-4728-B9C6-73F0AB5A9F00";
paths = (
{
closed = 1;
nodes = (
"850 -35 OFFCURVE",
"984 94 OFFCURVE",
"994 368 CURVE",
"824 376 OFFCURVE",
"681 376 OFFCURVE",
"526 368 CURVE",
"526 321 LINE",
"473 321 LINE",
"473 450 LINE",
"526 450 LINE",
"527 409 LINE",
"622 393 OFFCURVE",
"883 393 OFFCURVE",
"987 409 CURVE",
"1006 515 OFFCURVE",
"1002 699 OFFCURVE",
"984 781 CURVE",
"921 781 OFFCURVE",
"816 777 OFFCURVE",
"727 774 CURVE",
"701 814 OFFCURVE",
"670 847 OFFCURVE",
"641 867 CURVE",
"613 872 OFFCURVE",
"554 875 OFFCURVE",
"493 875 CURVE SMOOTH",
"436 875 OFFCURVE",
"378 873 OFFCURVE",
"339 867 CURVE",
"263 815 OFFCURVE",
"207 697 OFFCURVE",
"195 559 CURVE",
"170 594 OFFCURVE",
"178 684 OFFCURVE",
"191 743 CURVE",
"79 678 OFFCURVE",
"10 556 OFFCURVE",
"10 388 CURVE SMOOTH",
"10 135 OFFCURVE",
"156 -35 OFFCURVE",
"522 -35 CURVE SMOOTH"
);
}
);
width = 1009;
}
);
leftKerningGroup = O;
leftMetricsKey = "=C";
rightKerningGroup = C;
rightMetricsKey = "=C";
unicode = 0108;
},
{
color = 5;
glyphname = Cdotaccent;
layers = (
{
anchors = (
{
name = bottom;
position = "{505, 0}";
},
{
name = top;
position = "{505, 799}";
}
);
layerId = "863809E3-B3D3-4728-B9C6-73F0AB5A9F00";
paths = (
{
closed = 1;
nodes = (
"850 -35 OFFCURVE",
"984 94 OFFCURVE",
"994 368 CURVE",
"824 376 OFFCURVE",
"681 376 OFFCURVE",
"526 368 CURVE",
"526 321 LINE",
"473 321 LINE",
"473 450 LINE",
"526 450 LINE",
"527 409 LINE",
"622 393 OFFCURVE",
"883 393 OFFCURVE",
"987 409 CURVE",
"1006 515 OFFCURVE",
"1002 699 OFFCURVE",
"984 781 CURVE",
"914 781 OFFCURVE",
"816 776 OFFCURVE",
"729 774 CURVE",
"693 841 OFFCURVE",
"625 876 OFFCURVE",
"518 876 CURVE SMOOTH",
"369 876 OFFCURVE",
"309 788 OFFCURVE",
"309 707 CURVE SMOOTH",
"309 625 OFFCURVE",
"365 561 OFFCURVE",
"438 538 CURVE",
"330 542 OFFCURVE",
"235 628 OFFCURVE",
"271 775 CURVE",
"116 725 OFFCURVE",
"10 589 OFFCURVE",
"10 388 CURVE SMOOTH",
"10 135 OFFCURVE",
"156 -35 OFFCURVE",
"522 -35 CURVE SMOOTH"
);
}
);
width = 1009;
}
);
leftKerningGroup = O;
leftMetricsKey = "=C";
rightKerningGroup = C;
rightMetricsKey = "=C";
unicode = 010A;
},
{
color = 7;
glyphname = "Chi-latin";
layers = (
{
anchors = (
{
name = bottom;
position = "{533, -50}";
},
{
name = top;
position = "{537, 696}";
}
);
layerId = "863809E3-B3D3-4728-B9C6-73F0AB5A9F00";
paths = (
{
closed = 1;
nodes = (
"84 -149 OFFCURVE",
"190 -140 OFFCURVE",
"254 -140 CURVE SMOOTH",
"391 -140 OFFCURVE",
"444 -146 OFFCURVE",
"501 -154 CURVE",
"494 -73 OFFCURVE",
"482 10 OFFCURVE",
"399 56 CURVE",
"414 82 LINE",
"511 30 OFFCURVE",
"527 -82 OFFCURVE",
"531 -154 CURVE",
"588 -148 OFFCURVE",
"674 -140 OFFCURVE",
"762 -140 CURVE SMOOTH",
"886 -140 OFFCURVE",
"992 -149 OFFCURVE",
"1047 -154 CURVE",
"1074 -91 OFFCURVE",
"1074 39 OFFCURVE",
"1051 88 CURVE",
"979 90 OFFCURVE",
"930 158 OFFCURVE",
"822 374 CURVE",
"943 524 OFFCURVE",
"1007 530 OFFCURVE",
"1051 533 CURVE",
"1074 582 OFFCURVE",
"1074 712 OFFCURVE",
"1047 775 CURVE",
"992 770 OFFCURVE",
"886 761 OFFCURVE",
"822 761 CURVE SMOOTH",
"683 761 OFFCURVE",
"631 768 OFFCURVE",
"574 776 CURVE",
"581 685 OFFCURVE",
"593 603 OFFCURVE",
"671 557 CURVE",
"655 531 LINE",
"563 584 OFFCURVE",
"548 694 OFFCURVE",
"543 775 CURVE",
"487 769 OFFCURVE",
"390 761 OFFCURVE",
"309 761 CURVE SMOOTH",
"190 761 OFFCURVE",
"84 770 OFFCURVE",
"29 775 CURVE",
"2 712 OFFCURVE",
"2 582 OFFCURVE",
"25 533 CURVE",
"89 526 OFFCURVE",
"150 447 OFFCURVE",
"251 289 CURVE",
"143 125 OFFCURVE",
"87 85 OFFCURVE",
"25 88 CURVE",
"2 39 OFFCURVE",
"2 -91 OFFCURVE",
"29 -154 CURVE"
);
}
);
width = 1076;
}
);
leftKerningGroup = "Chi-latin";
rightKerningGroup = "Chi-latin";
unicode = A7B3;
},
{
color = 7;
glyphname = Chook;
layers = (
{
anchors = (
{
name = bottom;
position = "{505, 0}";
},
{
name = top;
position = "{505, 696}";
}
);
layerId = "863809E3-B3D3-4728-B9C6-73F0AB5A9F00";
paths = (
{
closed = 1;
nodes = (
"850 -35 OFFCURVE",
"984 94 OFFCURVE",
"994 368 CURVE",
"824 376 OFFCURVE",
"681 376 OFFCURVE",
"526 368 CURVE",
"526 321 LINE",
"473 321 LINE",
"473 450 LINE",
"526 450 LINE",
"527 409 LINE",
"622 393 OFFCURVE",
"883 393 OFFCURVE",
"987 409 CURVE",
"986 468 OFFCURVE",
"938 530 OFFCURVE",
"938 571 CURVE SMOOTH",
"938 600 OFFCURVE",
"952 608 OFFCURVE",
"975 610 CURVE",
"986 662 OFFCURVE",
"986 787 OFFCURVE",
"972 839 CURVE",
"931 858 OFFCURVE",
"874 875 OFFCURVE",
"791 875 CURVE SMOOTH",
"703 875 OFFCURVE",
"585 853 OFFCURVE",
"585 692 CURVE SMOOTH",
"585 636 LINE",
"552 753 OFFCURVE",
"470 795 OFFCURVE",
"352 795 CURVE SMOOTH",
"152 795 OFFCURVE",
"10 645 OFFCURVE",
"10 388 CURVE SMOOTH",
"10 135 OFFCURVE",
"156 -35 OFFCURVE",
"522 -35 CURVE SMOOTH"
);
}
);
width = 1004;
}
);
leftKerningGroup = O;
leftMetricsKey = "=C";
rightKerningGroup = C;
unicode = 0187;
},
{
color = 7;
glyphname = Cstroke;
layers = (
{
layerId = "863809E3-B3D3-4728-B9C6-73F0AB5A9F00";
paths = (
{
closed = 1;
nodes = (
"987 403 LINE",
"1006 516 OFFCURVE",
"1002 699 OFFCURVE",
"984 781 CURVE",
"798 781 OFFCURVE",
"770 766 OFFCURVE",
"681 618 CURVE",
"748 872 LINE",
"731 880 OFFCURVE",
"698 883 OFFCURVE",
"663 883 CURVE SMOOTH",
"623 883 OFFCURVE",
"580 879 OFFCURVE",
"553 874 CURVE",
"529 781 LINE",
"493 791 OFFCURVE",
"451 795 OFFCURVE",
"402 795 CURVE SMOOTH",
"172 795 OFFCURVE",
"10 645 OFFCURVE",
"10 388 CURVE SMOOTH",
"10 188 OFFCURVE",
"101 40 OFFCURVE",
"320 -13 CURVE",
"293 -115 LINE",
"311 -123 OFFCURVE",
"346 -127 OFFCURVE",
"383 -127 CURVE SMOOTH",
"422 -127 OFFCURVE",
"463 -123 OFFCURVE",
"488 -117 CURVE",
"510 -35 LINE",
"522 -35 LINE SMOOTH",
"850 -35 OFFCURVE",
"984 94 OFFCURVE",
"994 371 CURVE",
"609 371 LINE",
"609 403 LINE"
);
},
{
closed = 1;
nodes = (
"456 441 LINE",
"508 441 LINE",
"508 330 LINE",
"456 330 LINE"
);
}
);
width = 1009;
}
);
leftKerningGroup = O;
leftMetricsKey = "=C";
rightKerningGroup = C;
rightMetricsKey = "=C";
unicode = 023B;
},
{
color = 4;
glyphname = D;
layers = (
{
anchors = (
{
name = bottom;
position = "{507, 0}";
},
{
name = center;
position = "{507, 380}";
},
{
name = top;
position = "{507, 696}";
}
);
layerId = "863809E3-B3D3-4728-B9C6-73F0AB5A9F00";
paths = (
{
closed = 1;
nodes = (
"927 -24 OFFCURVE",
"1003 196 OFFCURVE",
"1003 413 CURVE SMOOTH",
"1003 671 OFFCURVE",
"848 783 OFFCURVE",
"566 783 CURVE SMOOTH",
"318 783 OFFCURVE",
"198 764 OFFCURVE",
"28 779 CURVE",
"1 712 OFFCURVE",
"4 592 OFFCURVE",
"24 535 CURVE",
"59 528 OFFCURVE",
"91 505 OFFCURVE",
"91 391 CURVE SMOOTH",
"91 271 OFFCURVE",
"66 233 OFFCURVE",
"24 222 CURVE",
"6 165 OFFCURVE",
"9 41 OFFCURVE",
"31 -16 CURVE",
"228 -7 OFFCURVE",
"312 -24 OFFCURVE",
"525 -24 CURVE SMOOTH"
);
},
{
closed = 1;
nodes = (
"480 450 LINE",
"541 450 LINE",
"541 321 LINE",
"480 321 LINE"
);
}
);
width = 1013;
}
);
leftKerningGroup = N;
rightKerningGroup = O;
unicode = 0044;
},
{
color = 5;
glyphname = Eth;
layers = (
{
anchors = (
{
name = bottom;
position = "{507, 0}";
},
{
name = top;
position = "{507, 696}";
}
);
layerId = "863809E3-B3D3-4728-B9C6-73F0AB5A9F00";
paths = (
{
closed = 1;
nodes = (
"927 -24 OFFCURVE",
"1003 196 OFFCURVE",
"1003 413 CURVE SMOOTH",
"1003 671 OFFCURVE",
"848 783 OFFCURVE",
"566 783 CURVE SMOOTH",
"318 783 OFFCURVE",
"198 764 OFFCURVE",
"28 779 CURVE",
"1 712 OFFCURVE",
"4 592 OFFCURVE",
"24 535 CURVE",
"56 529 OFFCURVE",
"133 519 OFFCURVE",
"184 494 CURVE",
"23 494 LINE",
"3 450 OFFCURVE",
"4 321 OFFCURVE",
"23 277 CURVE",
"83 277 LINE",
"71 243 OFFCURVE",
"51 228 OFFCURVE",
"24 222 CURVE",
"6 165 OFFCURVE",
"9 41 OFFCURVE",
"31 -16 CURVE",
"228 -7 OFFCURVE",
"312 -24 OFFCURVE",
"525 -24 CURVE SMOOTH"
);
},
{
closed = 1;
nodes = (
"480 329 LINE",
"521 329 LINE",
"521 441 LINE",
"480 441 LINE",
"480 483 LINE",
"541 483 LINE",
"541 288 LINE",
"480 288 LINE"
);
}
);
width = 1013;
}
);
leftKerningGroup = Eth;
leftMetricsKey = "=D";
rightKerningGroup = O;
rightMetricsKey = "=D";
unicode = 00D0;
},
{
color = 5;
glyphname = Dcaron;
layers = (
{
anchors = (
{
name = bottom;
position = "{507, 0}";
},
{
name = top;
position = "{507, 799}";
}
);
layerId = "863809E3-B3D3-4728-B9C6-73F0AB5A9F00";
paths = (
{
closed = 1;
nodes = (
"927 -24 OFFCURVE",
"1003 196 OFFCURVE",
"1003 413 CURVE SMOOTH",
"1003 594 OFFCURVE",
"927 703 OFFCURVE",
"784 752 CURVE",
"791 784 OFFCURVE",
"793 817 OFFCURVE",
"788 847 CURVE",
"753 865 OFFCURVE",
"655 874 OFFCURVE",
"610 875 CURVE",
"557 861 OFFCURVE",
"496 811 OFFCURVE",
"441 748 CURVE",
"416 765 LINE",
"434 785 OFFCURVE",
"452 804 OFFCURVE",
"470 821 CURVE",
"436 846 OFFCURVE",
"397 867 OFFCURVE",
"368 875 CURVE",
"327 874 OFFCURVE",
"235 865 OFFCURVE",
"200 847 CURVE",
"184 745 OFFCURVE",
"240 624 OFFCURVE",
"303 557 CURVE",
"226 590 OFFCURVE",
"160 705 OFFCURVE",
"163 773 CURVE",
"120 773 OFFCURVE",
"75 775 OFFCURVE",
"28 779 CURVE",
"1 712 OFFCURVE",
"4 592 OFFCURVE",
"24 535 CURVE",
"59 528 OFFCURVE",
"91 505 OFFCURVE",
"91 391 CURVE SMOOTH",
"91 271 OFFCURVE",
"66 233 OFFCURVE",
"24 222 CURVE",
"6 165 OFFCURVE",
"9 41 OFFCURVE",
"31 -16 CURVE",
"228 -7 OFFCURVE",
"312 -24 OFFCURVE",
"525 -24 CURVE SMOOTH"
);
},
{
closed = 1;
nodes = (
"480 450 LINE",
"541 450 LINE",
"541 321 LINE",
"480 321 LINE"
);
}
);
width = 1013;
}
);
leftKerningGroup = N;
leftMetricsKey = "=D";
rightKerningGroup = O;
rightMetricsKey = "=D";
unicode = 010E;
},
{
color = 7;
glyphname = Dcedilla;
layers = (
{
anchors = (
{
name = bottom;
position = "{507, -103}";
},
{
name = top;
position = "{507, 696}";
}
);
layerId = "863809E3-B3D3-4728-B9C6-73F0AB5A9F00";
paths = (
{
closed = 1;
nodes = (
"476 -174 OFFCURVE",
"507 -173 OFFCURVE",
"521 -170 CURVE",
"604 -130 OFFCURVE",
"664 -77 OFFCURVE",
"683 -10 CURVE",
"948 41 OFFCURVE",
"1003 228 OFFCURVE",
"1003 413 CURVE SMOOTH",
"1003 671 OFFCURVE",
"848 783 OFFCURVE",
"566 783 CURVE SMOOTH",
"318 783 OFFCURVE",
"198 764 OFFCURVE",
"28 779 CURVE",
"1 712 OFFCURVE",
"4 592 OFFCURVE",
"24 535 CURVE",
"59 528 OFFCURVE",
"91 505 OFFCURVE",
"91 391 CURVE SMOOTH",
"91 271 OFFCURVE",
"66 233 OFFCURVE",
"24 222 CURVE",
"6 165 OFFCURVE",
"9 41 OFFCURVE",
"31 -16 CURVE",
"113 -12 OFFCURVE",
"182 -13 OFFCURVE",
"248 -15 CURVE",
"260 16 OFFCURVE",
"259 72 OFFCURVE",
"258 117 CURVE",
"311 -14 OFFCURVE",
"290 -95 OFFCURVE",
"276 -163 CURVE",
"300 -170 OFFCURVE",
"377 -174 OFFCURVE",
"440 -174 CURVE SMOOTH"
);
},
{
closed = 1;
nodes = (
"480 450 LINE",
"541 450 LINE",
"541 321 LINE",
"480 321 LINE"
);
}
);
width = 1013;
}
);
leftKerningGroup = N;
leftMetricsKey = "=D";
rightKerningGroup = O;
rightMetricsKey = "=D";
unicode = 1E10;
},
{
color = 7;
glyphname = Dcircumflexbelow;
layers = (
{
anchors = (
{
name = bottom;
position = "{507, -103}";
},
{
name = top;
position = "{507, 696}";
}
);
layerId = "863809E3-B3D3-4728-B9C6-73F0AB5A9F00";
paths = (
{
closed = 1;
nodes = (
"397 -166 OFFCURVE",
"436 -145 OFFCURVE",
"470 -120 CURVE",
"452 -103 OFFCURVE",
"434 -84 OFFCURVE",
"416 -64 CURVE",
"441 -47 LINE",
"496 -110 OFFCURVE",
"557 -160 OFFCURVE",
"610 -174 CURVE",
"655 -173 OFFCURVE",
"753 -164 OFFCURVE",
"788 -146 CURVE",
"796 -95 OFFCURVE",
"785 -40 OFFCURVE",
"764 12 CURVE",
"959 82 OFFCURVE",
"1003 249 OFFCURVE",
"1003 413 CURVE SMOOTH",
"1003 671 OFFCURVE",
"848 783 OFFCURVE",
"566 783 CURVE SMOOTH",
"318 783 OFFCURVE",
"198 764 OFFCURVE",
"28 779 CURVE",
"1 712 OFFCURVE",
"4 592 OFFCURVE",
"24 535 CURVE",
"59 528 OFFCURVE",
"91 505 OFFCURVE",
"91 391 CURVE SMOOTH",
"91 271 OFFCURVE",
"66 233 OFFCURVE",
"24 222 CURVE",
"6 165 OFFCURVE",
"9 41 OFFCURVE",
"31 -16 CURVE",
"85 -13 OFFCURVE",
"131 -13 OFFCURVE",
"173 -14 CURVE",
"195 58 OFFCURVE",
"247 116 OFFCURVE",
"303 144 CURVE",
"240 77 OFFCURVE",
"184 -44 OFFCURVE",
"200 -146 CURVE",
"235 -164 OFFCURVE",
"327 -173 OFFCURVE",
"368 -174 CURVE"
);
},
{
closed = 1;
nodes = (
"480 450 LINE",
"541 450 LINE",
"541 321 LINE",
"480 321 LINE"
);
}
);
width = 1013;
}
);
leftKerningGroup = N;
leftMetricsKey = "=D";
rightKerningGroup = O;
rightMetricsKey = "=D";
unicode = 1E12;
},
{
color = 7;
glyphname = Ddotaccent;
layers = (
{
anchors = (
{
name = bottom;
position = "{507, 0}";
},
{
name = top;
position = "{507, 799}";
}
);
layerId = "863809E3-B3D3-4728-B9C6-73F0AB5A9F00";
paths = (
{
closed = 1;
nodes = (
"927 -24 OFFCURVE",
"1003 196 OFFCURVE",
"1003 413 CURVE SMOOTH",
"1003 626 OFFCURVE",
"897 740 OFFCURVE",
"701 773 CURVE",
"668 841 OFFCURVE",
"601 876 OFFCURVE",
"488 876 CURVE SMOOTH",
"332 876 OFFCURVE",
"279 788 OFFCURVE",
"279 707 CURVE SMOOTH",
"279 648 OFFCURVE",
"309 597 OFFCURVE",
"353 565 CURVE",
"273 585 OFFCURVE",
"222 659 OFFCURVE",
"251 775 CURVE",
"176 773 OFFCURVE",
"107 772 OFFCURVE",
"28 779 CURVE",
"1 712 OFFCURVE",
"4 592 OFFCURVE",
"24 535 CURVE",
"59 528 OFFCURVE",
"91 505 OFFCURVE",
"91 391 CURVE SMOOTH",
"91 271 OFFCURVE",
"66 233 OFFCURVE",
"24 222 CURVE",
"6 165 OFFCURVE",
"9 41 OFFCURVE",
"31 -16 CURVE",
"228 -7 OFFCURVE",
"312 -24 OFFCURVE",
"525 -24 CURVE SMOOTH"
);
},
{
closed = 1;
nodes = (
"480 450 LINE",
"541 450 LINE",
"541 321 LINE",
"480 321 LINE"
);
}
);
width = 1013;
}
);
leftKerningGroup = N;
leftMetricsKey = "=D";
rightKerningGroup = O;
rightMetricsKey = "=D";
unicode = 1E0A;
},
{
color = 7;
glyphname = Ddotbelow;
layers = (
{
anchors = (
{
name = bottom;
position = "{507, -103}";
},
{
name = top;
position = "{507, 696}";
}
);
layerId = "863809E3-B3D3-4728-B9C6-73F0AB5A9F00";
paths = (
{
closed = 1;
nodes = (
"631 -173 OFFCURVE",
"720 -114 OFFCURVE",
"718 -2 CURVE",
"953 58 OFFCURVE",
"1003 237 OFFCURVE",
"1003 413 CURVE SMOOTH",
"1003 671 OFFCURVE",
"848 783 OFFCURVE",
"566 783 CURVE SMOOTH",
"318 783 OFFCURVE",
"198 764 OFFCURVE",
"28 779 CURVE",
"1 712 OFFCURVE",
"4 592 OFFCURVE",
"24 535 CURVE",
"59 528 OFFCURVE",
"91 505 OFFCURVE",
"91 391 CURVE SMOOTH",
"91 271 OFFCURVE",
"66 233 OFFCURVE",
"24 222 CURVE",
"6 165 OFFCURVE",
"9 41 OFFCURVE",
"31 -16 CURVE",
"118 -12 OFFCURVE",
"183 -13 OFFCURVE",
"248 -15 CURVE",
"246 55 OFFCURVE",
"285 145 OFFCURVE",
"378 151 CURVE",
"308 119 OFFCURVE",
"281 59 OFFCURVE",
"281 5 CURVE SMOOTH",
"281 -97 OFFCURVE",
"357 -173 OFFCURVE",
"503 -173 CURVE SMOOTH"
);
},
{
closed = 1;
nodes = (
"480 450 LINE",
"541 450 LINE",
"541 321 LINE",
"480 321 LINE"
);
}
);
width = 1013;
}
);
leftKerningGroup = N;
leftMetricsKey = "=D";
rightKerningGroup = O;
rightMetricsKey = "=D";
unicode = 1E0C;
},
{
color = 7;
glyphname = Dhook;
layers = (
{
anchors = (
{
name = bottom;
position = "{662, 0}";
},
{
name = top;
position = "{662, 696}";
}
);
layerId = "863809E3-B3D3-4728-B9C6-73F0AB5A9F00";
paths = (
{
closed = 1;
nodes = (
"1082 -24 OFFCURVE",
"1158 196 OFFCURVE",
"1158 413 CURVE SMOOTH",
"1158 671 OFFCURVE",
"1003 783 OFFCURVE",
"731 783 CURVE SMOOTH",
"649 783 OFFCURVE",
"558 778 OFFCURVE",
"506 778 CURVE SMOOTH",
"446 778 OFFCURVE",
"377 780 OFFCURVE",
"323 780 CURVE SMOOTH",
"132 780 OFFCURVE",
"0 691 OFFCURVE",
"0 490 CURVE SMOOTH",
"0 432 OFFCURVE",
"3 377 OFFCURVE",
"19 299 CURVE",
"51 279 OFFCURVE",
"198 283 OFFCURVE",
"231 303 CURVE",
"231 463 LINE",
"266 463 LINE",
"266 371 LINE SMOOTH",
"266 263 OFFCURVE",
"222 233 OFFCURVE",
"179 222 CURVE",
"161 165 OFFCURVE",
"164 41 OFFCURVE",
"186 -16 CURVE",
"383 -7 OFFCURVE",
"467 -24 OFFCURVE",
"680 -24 CURVE SMOOTH"
);
},
{
closed = 1;
nodes = (
"635 450 LINE",
"696 450 LINE",
"696 321 LINE",
"635 321 LINE"
);
}
);
width = 1168;
},
{
associatedMasterId = "863809E3-B3D3-4728-B9C6-73F0AB5A9F00";
layerId = "4C303EC0-A17E-4303-A937-B16AA084CF8C";
name = "Nov 22 23, 11:58";
paths = (
{
closed = 1;
nodes = (
"1051 -24 OFFCURVE",
"1127 196 OFFCURVE",
"1127 413 CURVE SMOOTH",
"1127 671 OFFCURVE",
"972 783 OFFCURVE",
"700 783 CURVE SMOOTH",
"618 783 OFFCURVE",
"527 778 OFFCURVE",
"475 778 CURVE SMOOTH",
"410 778 OFFCURVE",
"340 780 OFFCURVE",
"282 780 CURVE SMOOTH",
"91 780 OFFCURVE",
"2 693 OFFCURVE",
"2 502 CURVE SMOOTH",
"2 444 OFFCURVE",
"11 377 OFFCURVE",
"27 299 CURVE",
"59 293 OFFCURVE",
"145 297 OFFCURVE",
"178 303 CURVE",
"178 463 LINE",
"215 463 LINE",
"215 381 LINE SMOOTH",
"215 271 OFFCURVE",
"190 233 OFFCURVE",
"148 222 CURVE",
"130 165 OFFCURVE",
"133 41 OFFCURVE",
"155 -16 CURVE",
"352 -7 OFFCURVE",
"436 -24 OFFCURVE",
"649 -24 CURVE SMOOTH"
);
},
{
closed = 1;
nodes = (
"604 450 LINE",
"665 450 LINE",
"665 321 LINE",
"604 321 LINE"
);
}
);
width = 1137;
}
);
leftKerningGroup = Bhook;
leftMetricsKey = "=Bhook";
rightKerningGroup = O;
rightMetricsKey = "=D";
unicode = 018A;
},
{
color = 7;
glyphname = Dmacronbelow;
layers = (
{
anchors = (
{
name = bottom;
position = "{507, -103}";
},
{
name = top;
position = "{507, 696}";
}
);
layerId = "863809E3-B3D3-4728-B9C6-73F0AB5A9F00";
paths = (
{
closed = 1;
nodes = (
"381 -137 OFFCURVE",
"628 -137 OFFCURVE",
"765 -143 CURVE",
"771 -115 OFFCURVE",
"774 -49 OFFCURVE",
"773 15 CURVE",
"961 88 OFFCURVE",
"1003 251 OFFCURVE",
"1003 413 CURVE SMOOTH",
"1003 671 OFFCURVE",
"848 783 OFFCURVE",
"566 783 CURVE SMOOTH",
"318 783 OFFCURVE",
"198 764 OFFCURVE",
"28 779 CURVE",
"1 712 OFFCURVE",
"4 592 OFFCURVE",
"24 535 CURVE",
"59 528 OFFCURVE",
"91 505 OFFCURVE",
"91 391 CURVE SMOOTH",
"91 271 OFFCURVE",
"66 233 OFFCURVE",
"24 222 CURVE",
"6 165 OFFCURVE",
"9 41 OFFCURVE",
"31 -16 CURVE",
"99 -13 OFFCURVE",
"153 -13 OFFCURVE",
"204 -14 CURVE",
"209 59 OFFCURVE",
"221 122 OFFCURVE",
"244 159 CURVE",
"234 123 OFFCURVE",
"232 -87 OFFCURVE",
"244 -143 CURVE"
);
},
{
closed = 1;
nodes = (
"480 450 LINE",
"541 450 LINE",
"541 321 LINE",
"480 321 LINE"
);
}
);
width = 1013;
}
);
leftKerningGroup = N;
leftMetricsKey = "=D";
rightKerningGroup = O;
rightMetricsKey = "=D";
unicode = 1E0E;
},
{
color = 4;
glyphname = E;
layers = (
{
anchors = (
{
name = bottom;
position = "{490, 0}";
},
{
name = ogonek;
position = "{882, 10}";
},
{
name = top;
position = "{490, 696}";
},
{
name = topleft;
position = "{20, 760}";
}
);
layerId = "863809E3-B3D3-4728-B9C6-73F0AB5A9F00";
paths = (
{
closed = 1;
nodes = (
"91 -11 OFFCURVE",
"319 -2 OFFCURVE",
"489 -2 CURVE SMOOTH",
"646 -2 OFFCURVE",
"818 -15 OFFCURVE",
"958 -17 CURVE",
"973 40 OFFCURVE",
"976 315 OFFCURVE",
"965 374 CURVE",
"863 381 OFFCURVE",
"741 381 OFFCURVE",
"629 374 CURVE",
"621 343 OFFCURVE",
"621 311 OFFCURVE",
"629 280 CURVE",
"512 280 LINE",
"512 323 LINE",
"606 323 LINE",
"606 462 LINE",
"513 462 LINE",
"513 504 LINE",
"629 504 LINE",
"621 473 OFFCURVE",
"621 442 OFFCURVE",
"629 411 CURVE",
"733 399 OFFCURVE",
"865 399 OFFCURVE",
"959 411 CURVE",
"979 482 OFFCURVE",
"971 713 OFFCURVE",
"954 776 CURVE",
"785 769 OFFCURVE",
"605 765 OFFCURVE",
"465 765 CURVE SMOOTH",
"327 765 OFFCURVE",
"84 770 OFFCURVE",
"29 775 CURVE",
"2 712 OFFCURVE",
"2 582 OFFCURVE",
"25 533 CURVE",
"49 532 OFFCURVE",
"91 509 OFFCURVE",
"91 381 CURVE SMOOTH",
"91 263 OFFCURVE",
"57 233 OFFCURVE",
"25 222 CURVE",
"7 165 OFFCURVE",
"10 40 OFFCURVE",
"32 -17 CURVE"
);
}
);
width = 980;
}
);
leftKerningGroup = N;
rightKerningGroup = E;
unicode = 0045;
},
{
color = 5;
glyphname = Eacute;
layers = (
{
anchors = (
{
name = bottom;
position = "{490, 0}";
},
{
name = top;
position = "{490, 799}";
}
);
layerId = "863809E3-B3D3-4728-B9C6-73F0AB5A9F00";
paths = (
{
closed = 1;
nodes = (
"91 -11 OFFCURVE",
"319 -2 OFFCURVE",
"489 -2 CURVE SMOOTH",
"646 -2 OFFCURVE",
"818 -15 OFFCURVE",
"958 -17 CURVE",
"973 40 OFFCURVE",
"976 315 OFFCURVE",
"965 374 CURVE",
"863 381 OFFCURVE",
"741 381 OFFCURVE",
"629 374 CURVE",
"621 343 OFFCURVE",
"621 311 OFFCURVE",
"629 280 CURVE",
"512 280 LINE",
"512 323 LINE",
"606 323 LINE",
"606 462 LINE",
"513 462 LINE",
"513 504 LINE",
"629 504 LINE",
"621 473 OFFCURVE",
"621 442 OFFCURVE",
"629 411 CURVE",
"733 402 OFFCURVE",
"865 399 OFFCURVE",
"959 411 CURVE",
"979 482 OFFCURVE",
"971 713 OFFCURVE",
"954 776 CURVE",
"880 773 OFFCURVE",
"815 771 OFFCURVE",
"746 769 CURVE",
"750 782 OFFCURVE",
"753 794 OFFCURVE",
"755 803 CURVE",
"721 846 OFFCURVE",
"613 877 OFFCURVE",
"509 877 CURVE SMOOTH",
"460 877 OFFCURVE",
"412 870 OFFCURVE",
"373 854 CURVE",
"296 745 OFFCURVE",
"296 607 OFFCURVE",
"359 540 CURVE",
"264 575 OFFCURVE",
"266 692 OFFCURVE",
"290 767 CURVE",
"182 769 OFFCURVE",
"62 772 OFFCURVE",
"29 775 CURVE",
"2 712 OFFCURVE",
"2 582 OFFCURVE",
"25 533 CURVE",
"49 532 OFFCURVE",
"91 509 OFFCURVE",
"91 381 CURVE SMOOTH",
"91 263 OFFCURVE",
"57 233 OFFCURVE",
"25 222 CURVE",
"7 165 OFFCURVE",
"10 40 OFFCURVE",
"32 -17 CURVE"
);
}
);
width = 980;
}
);
leftKerningGroup = N;
leftMetricsKey = "=E";
rightKerningGroup = E;
rightMetricsKey = "=E";
unicode = 00C9;
},
{
color = 5;
glyphname = Ebreve;
layers = (
{
anchors = (
{
name = bottom;
position = "{490, 0}";
},
{
name = top;
position = "{490, 799}";
}
);
layerId = "863809E3-B3D3-4728-B9C6-73F0AB5A9F00";
paths = (
{
closed = 1;
nodes = (
"91 -11 OFFCURVE",
"319 -2 OFFCURVE",
"489 -2 CURVE SMOOTH",
"646 -2 OFFCURVE",
"818 -15 OFFCURVE",
"958 -17 CURVE",
"973 40 OFFCURVE",
"976 315 OFFCURVE",
"965 374 CURVE",
"863 381 OFFCURVE",
"741 381 OFFCURVE",
"629 374 CURVE",
"621 343 OFFCURVE",
"621 311 OFFCURVE",
"629 280 CURVE",
"512 280 LINE",
"512 323 LINE",
"606 323 LINE",
"606 462 LINE",
"513 462 LINE",
"513 504 LINE",
"629 504 LINE",
"621 473 OFFCURVE",
"621 442 OFFCURVE",
"629 411 CURVE",
"733 399 OFFCURVE",
"865 399 OFFCURVE",
"959 411 CURVE",
"979 482 OFFCURVE",
"971 713 OFFCURVE",
"954 776 CURVE",
"795 770 LINE",
"794 808 OFFCURVE",
"793 828 OFFCURVE",
"789 847 CURVE",
"754 865 OFFCURVE",
"662 874 OFFCURVE",
"621 875 CURVE",
"601 845 OFFCURVE",
"560 830 OFFCURVE",
"500 830 CURVE SMOOTH",
"440 830 OFFCURVE",
"400 845 OFFCURVE",
"379 875 CURVE",
"334 874 OFFCURVE",
"236 865 OFFCURVE",
"201 847 CURVE",
"184 736 OFFCURVE",
"223 635 OFFCURVE",
"303 576 CURVE",
"218 600 OFFCURVE",
"168 675 OFFCURVE",
"159 766 CURVE",
"101 771 OFFCURVE",
"50 773 OFFCURVE",
"29 775 CURVE",
"2 712 OFFCURVE",
"2 582 OFFCURVE",
"25 533 CURVE",
"49 532 OFFCURVE",
"91 509 OFFCURVE",
"91 381 CURVE SMOOTH",
"91 263 OFFCURVE",
"57 233 OFFCURVE",
"25 222 CURVE",
"7 165 OFFCURVE",
"10 40 OFFCURVE",
"32 -17 CURVE"
);
}
);
width = 980;
}
);
leftKerningGroup = N;
leftMetricsKey = "=E";
rightKerningGroup = E;
rightMetricsKey = "=E";
unicode = 0114;
},
{
color = 5;
glyphname = Ecaron;
layers = (
{
anchors = (
{
name = bottom;
position = "{490, 0}";
},
{
name = top;
position = "{490, 799}";
}
);
layerId = "863809E3-B3D3-4728-B9C6-73F0AB5A9F00";
paths = (
{
closed = 1;
nodes = (
"91 -11 OFFCURVE",
"319 -2 OFFCURVE",
"489 -2 CURVE SMOOTH",
"646 -2 OFFCURVE",
"818 -15 OFFCURVE",
"958 -17 CURVE",
"973 40 OFFCURVE",
"976 315 OFFCURVE",
"965 374 CURVE",
"863 381 OFFCURVE",
"741 381 OFFCURVE",
"629 374 CURVE",
"621 343 OFFCURVE",
"621 311 OFFCURVE",
"629 280 CURVE",
"512 280 LINE",
"512 323 LINE",
"606 323 LINE",
"606 462 LINE",
"513 462 LINE",
"513 504 LINE",
"629 504 LINE",
"621 473 OFFCURVE",
"621 442 OFFCURVE",
"629 411 CURVE",
"733 399 OFFCURVE",
"865 399 OFFCURVE",
"959 411 CURVE",
"979 482 OFFCURVE",
"971 713 OFFCURVE",
"954 776 CURVE",
"910 774 OFFCURVE",
"856 772 OFFCURVE",
"808 771 CURVE",
"812 797 OFFCURVE",
"813 822 OFFCURVE",
"809 847 CURVE",
"774 865 OFFCURVE",
"676 874 OFFCURVE",
"631 875 CURVE",
"578 861 OFFCURVE",
"517 811 OFFCURVE",
"462 748 CURVE",
"437 765 LINE",
"455 785 OFFCURVE",
"473 804 OFFCURVE",
"491 821 CURVE",
"457 846 OFFCURVE",
"418 867 OFFCURVE",
"389 875 CURVE",
"348 874 OFFCURVE",
"256 865 OFFCURVE",
"221 847 CURVE",
"205 747 OFFCURVE",
"259 627 OFFCURVE",
"322 560 CURVE",
"248 592 OFFCURVE",
"187 694 OFFCURVE",
"187 769 CURVE",
"116 771 OFFCURVE",
"53 773 OFFCURVE",
"29 775 CURVE",
"2 712 OFFCURVE",
"2 582 OFFCURVE",
"25 533 CURVE",
"49 532 OFFCURVE",
"91 509 OFFCURVE",
"91 381 CURVE SMOOTH",
"91 263 OFFCURVE",
"57 233 OFFCURVE",
"25 222 CURVE",
"7 165 OFFCURVE",
"10 40 OFFCURVE",
"32 -17 CURVE"
);
}
);
width = 980;
}
);
leftKerningGroup = N;
leftMetricsKey = "=E";
rightKerningGroup = E;
rightMetricsKey = "=E";
unicode = 011A;
},
{
color = 7;
glyphname = Ecedilla;
layers = (
{
anchors = (
{
name = bottom;
position = "{490, -103}";
},
{
name = top;
position = "{490, 696}";
}
);
layerId = "863809E3-B3D3-4728-B9C6-73F0AB5A9F00";
paths = (
{
closed = 1;
nodes = (
"609 -172 OFFCURVE",
"700 -134 OFFCURVE",
"709 -8 CURVE",
"796 -12 OFFCURVE",
"882 -16 OFFCURVE",
"958 -17 CURVE",
"973 40 OFFCURVE",
"976 315 OFFCURVE",
"965 374 CURVE",
"863 381 OFFCURVE",
"741 381 OFFCURVE",
"629 374 CURVE",
"621 343 OFFCURVE",
"621 311 OFFCURVE",
"629 280 CURVE",
"512 280 LINE",
"512 323 LINE",
"606 323 LINE",
"606 462 LINE",
"513 462 LINE",
"513 504 LINE",
"629 504 LINE",
"621 473 OFFCURVE",
"621 442 OFFCURVE",
"629 411 CURVE",
"733 399 OFFCURVE",
"865 399 OFFCURVE",
"959 411 CURVE",
"979 482 OFFCURVE",
"971 713 OFFCURVE",
"954 776 CURVE",
"785 769 OFFCURVE",
"605 765 OFFCURVE",
"465 765 CURVE SMOOTH",
"327 765 OFFCURVE",
"84 770 OFFCURVE",
"29 775 CURVE",
"2 712 OFFCURVE",
"2 582 OFFCURVE",
"25 533 CURVE",
"49 532 OFFCURVE",
"91 509 OFFCURVE",
"91 381 CURVE SMOOTH",
"91 263 OFFCURVE",
"57 233 OFFCURVE",
"25 222 CURVE",
"7 165 OFFCURVE",
"10 40 OFFCURVE",
"32 -17 CURVE",
"66 -13 OFFCURVE",
"156 -9 OFFCURVE",
"258 -6 CURVE",
"282 31 OFFCURVE",
"290 81 OFFCURVE",
"283 139 CURVE",
"347 10 OFFCURVE",
"271 -96 OFFCURVE",
"230 -150 CURVE",
"281 -165 OFFCURVE",
"353 -172 OFFCURVE",
"445 -172 CURVE SMOOTH"
);
}
);
width = 980;
}
);
leftKerningGroup = N;
leftMetricsKey = "=E";
rightKerningGroup = E;
rightMetricsKey = "=E";
unicode = 0228;
},
{
color = 7;
glyphname = Ecedillabreve;
layers = (
{
anchors = (
{
name = bottom;
position = "{490, -103}";
},
{
name = top;
position = "{490, 799}";
}
);
layerId = "863809E3-B3D3-4728-B9C6-73F0AB5A9F00";
paths = (
{
closed = 1;
nodes = (
"609 -172 OFFCURVE",
"700 -134 OFFCURVE",
"709 -8 CURVE",
"796 -12 OFFCURVE",
"882 -16 OFFCURVE",
"958 -17 CURVE",
"973 40 OFFCURVE",
"976 315 OFFCURVE",
"965 374 CURVE",
"863 381 OFFCURVE",
"741 381 OFFCURVE",
"629 374 CURVE",
"621 343 OFFCURVE",
"621 311 OFFCURVE",
"629 280 CURVE",
"512 280 LINE",
"512 323 LINE",
"606 323 LINE",
"606 462 LINE",
"513 462 LINE",
"513 504 LINE",
"629 504 LINE",
"621 473 OFFCURVE",
"621 442 OFFCURVE",
"629 411 CURVE",
"733 399 OFFCURVE",
"865 399 OFFCURVE",
"959 411 CURVE",
"979 482 OFFCURVE",
"971 713 OFFCURVE",
"954 776 CURVE",
"795 770 LINE",
"794 808 OFFCURVE",
"793 828 OFFCURVE",
"789 847 CURVE",
"754 865 OFFCURVE",
"662 874 OFFCURVE",
"621 875 CURVE",
"601 845 OFFCURVE",
"560 830 OFFCURVE",
"500 830 CURVE SMOOTH",
"440 830 OFFCURVE",
"400 845 OFFCURVE",
"379 875 CURVE",
"334 874 OFFCURVE",
"236 865 OFFCURVE",
"201 847 CURVE",
"184 736 OFFCURVE",
"223 635 OFFCURVE",
"303 576 CURVE",
"218 600 OFFCURVE",
"168 675 OFFCURVE",
"159 766 CURVE",
"101 771 OFFCURVE",
"50 773 OFFCURVE",
"29 775 CURVE",
"2 712 OFFCURVE",
"2 582 OFFCURVE",
"25 533 CURVE",
"49 532 OFFCURVE",
"91 509 OFFCURVE",
"91 381 CURVE SMOOTH",
"91 263 OFFCURVE",
"57 233 OFFCURVE",
"25 222 CURVE",
"7 165 OFFCURVE",
"10 40 OFFCURVE",
"32 -17 CURVE",
"66 -13 OFFCURVE",
"156 -9 OFFCURVE",
"258 -6 CURVE",
"282 31 OFFCURVE",
"290 81 OFFCURVE",
"283 139 CURVE",
"347 10 OFFCURVE",
"271 -96 OFFCURVE",
"230 -150 CURVE",
"281 -165 OFFCURVE",
"353 -172 OFFCURVE",
"445 -172 CURVE SMOOTH"
);
}
);
width = 980;
}
);
leftKerningGroup = N;
leftMetricsKey = "=E";
rightKerningGroup = E;
rightMetricsKey = "=E";
unicode = 1E1C;
},
{
color = 5;
glyphname = Ecircumflex;
layers = (
{
anchors = (
{
name = bottom;
position = "{490, 0}";
},
{
name = top;
position = "{490, 799}";
}
);
layerId = "863809E3-B3D3-4728-B9C6-73F0AB5A9F00";
paths = (
{
closed = 1;
nodes = (
"91 -11 OFFCURVE",
"319 -2 OFFCURVE",
"489 -2 CURVE SMOOTH",
"646 -2 OFFCURVE",
"818 -15 OFFCURVE",
"958 -17 CURVE",
"973 40 OFFCURVE",
"976 315 OFFCURVE",
"965 374 CURVE",
"863 381 OFFCURVE",
"741 381 OFFCURVE",
"629 374 CURVE",
"621 343 OFFCURVE",
"621 311 OFFCURVE",
"629 280 CURVE",
"512 280 LINE",
"512 323 LINE",
"606 323 LINE",
"606 462 LINE",
"513 462 LINE",
"513 504 LINE",
"629 504 LINE",
"621 473 OFFCURVE",
"621 442 OFFCURVE",
"629 411 CURVE",
"733 399 OFFCURVE",
"865 399 OFFCURVE",
"959 411 CURVE",
"979 482 OFFCURVE",
"971 713 OFFCURVE",
"954 776 CURVE",
"899 773 OFFCURVE",
"828 770 OFFCURVE",
"755 769 CURVE",
"729 811 OFFCURVE",
"696 846 OFFCURVE",
"666 867 CURVE",
"638 872 OFFCURVE",
"579 875 OFFCURVE",
"518 875 CURVE SMOOTH",
"462 875 OFFCURVE",
"403 873 OFFCURVE",
"364 867 CURVE",
"288 815 OFFCURVE",
"211 687 OFFCURVE",
"220 559 CURVE",
"192 601 OFFCURVE",
"199 713 OFFCURVE",
"231 768 CURVE",
"149 770 OFFCURVE",
"56 772 OFFCURVE",
"29 775 CURVE",
"2 712 OFFCURVE",
"2 582 OFFCURVE",
"25 533 CURVE",
"49 532 OFFCURVE",
"91 509 OFFCURVE",
"91 381 CURVE SMOOTH",
"91 263 OFFCURVE",
"57 233 OFFCURVE",
"25 222 CURVE",
"7 165 OFFCURVE",
"10 40 OFFCURVE",
"32 -17 CURVE"
);
}
);
width = 980;
}
);
leftKerningGroup = N;
leftMetricsKey = "=E";
rightKerningGroup = E;
rightMetricsKey = "=E";
unicode = 00CA;
},
{
color = 5;
glyphname = Ecircumflexacute;
layers = (
{
anchors = (
{
name = bottom;
position = "{490, 0}";
}
);
layerId = "863809E3-B3D3-4728-B9C6-73F0AB5A9F00";
paths = (
{
closed = 1;
nodes = (
"91 -11 OFFCURVE",
"319 -2 OFFCURVE",
"489 -2 CURVE SMOOTH",
"646 -2 OFFCURVE",
"818 -15 OFFCURVE",
"958 -17 CURVE",
"973 40 OFFCURVE",
"976 315 OFFCURVE",
"965 374 CURVE",
"863 381 OFFCURVE",
"741 381 OFFCURVE",
"629 374 CURVE",
"621 343 OFFCURVE",
"621 311 OFFCURVE",
"629 280 CURVE",
"512 280 LINE",
"512 323 LINE",
"606 323 LINE",
"606 462 LINE",
"513 462 LINE",
"513 504 LINE",
"629 504 LINE",
"621 473 OFFCURVE",
"621 442 OFFCURVE",
"629 411 CURVE",
"733 399 OFFCURVE",
"865 399 OFFCURVE",
"959 411 CURVE",
"979 482 OFFCURVE",
"971 713 OFFCURVE",
"954 776 CURVE",
"811 770 LINE",
"844 823 OFFCURVE",
"857 855 OFFCURVE",
"862 887 CURVE",
"834 922 OFFCURVE",
"745 948 OFFCURVE",
"659 948 CURVE SMOOTH",
"618 948 OFFCURVE",
"578 943 OFFCURVE",
"546 929 CURVE",
"512 883 OFFCURVE",
"476 776 OFFCURVE",
"515 699 CURVE",
"471 734 OFFCURVE",
"459 797 OFFCURVE",
"480 875 CURVE",
"436 874 OFFCURVE",
"394 872 OFFCURVE",
"364 867 CURVE",
"288 815 OFFCURVE",
"211 687 OFFCURVE",
"220 559 CURVE",
"192 601 OFFCURVE",
"199 713 OFFCURVE",
"231 768 CURVE",
"149 770 OFFCURVE",
"56 772 OFFCURVE",
"29 775 CURVE",
"2 712 OFFCURVE",
"2 582 OFFCURVE",
"25 533 CURVE",
"49 532 OFFCURVE",
"91 509 OFFCURVE",
"91 381 CURVE SMOOTH",
"91 263 OFFCURVE",
"57 233 OFFCURVE",
"25 222 CURVE",
"7 165 OFFCURVE",
"10 40 OFFCURVE",
"32 -17 CURVE"
);
}
);
width = 980;
}
);
leftKerningGroup = N;
leftMetricsKey = "=E";
rightKerningGroup = E;
rightMetricsKey = "=E";
unicode = 1EBE;
},
{
color = 7;
glyphname = Ecircumflexbelow;
layers = (
{
anchors = (
{
name = bottom;
position = "{490, -103}";
},
{
name = top;
position = "{490, 696}";
}
);
layerId = "863809E3-B3D3-4728-B9C6-73F0AB5A9F00";
paths = (
{
closed = 1;
nodes = (
"422 -166 OFFCURVE",
"461 -145 OFFCURVE",
"495 -120 CURVE",
"477 -103 OFFCURVE",
"459 -84 OFFCURVE",
"441 -64 CURVE",
"466 -47 LINE",
"521 -110 OFFCURVE",
"582 -160 OFFCURVE",
"635 -174 CURVE",
"680 -173 OFFCURVE",
"778 -164 OFFCURVE",
"813 -146 CURVE",
"820 -103 OFFCURVE",
"813 -57 OFFCURVE",
"798 -12 CURVE",
"854 -14 OFFCURVE",
"908 -16 OFFCURVE",
"958 -17 CURVE",
"973 40 OFFCURVE",
"976 315 OFFCURVE",
"965 374 CURVE",
"863 381 OFFCURVE",
"741 381 OFFCURVE",
"629 374 CURVE",
"621 343 OFFCURVE",
"621 311 OFFCURVE",
"629 280 CURVE",
"512 280 LINE",
"512 323 LINE",
"606 323 LINE",
"606 462 LINE",
"513 462 LINE",
"513 504 LINE",
"629 504 LINE",
"621 473 OFFCURVE",
"621 442 OFFCURVE",
"629 411 CURVE",
"733 399 OFFCURVE",
"865 399 OFFCURVE",
"959 411 CURVE",
"979 482 OFFCURVE",
"971 713 OFFCURVE",
"954 776 CURVE",
"785 769 OFFCURVE",
"605 765 OFFCURVE",
"465 765 CURVE SMOOTH",
"327 765 OFFCURVE",
"84 770 OFFCURVE",
"29 775 CURVE",
"2 712 OFFCURVE",
"2 582 OFFCURVE",
"25 533 CURVE",
"49 532 OFFCURVE",
"91 509 OFFCURVE",
"91 381 CURVE SMOOTH",
"91 263 OFFCURVE",
"57 233 OFFCURVE",
"25 222 CURVE",
"7 165 OFFCURVE",
"10 40 OFFCURVE",
"32 -17 CURVE",
"60 -14 OFFCURVE",
"123 -10 OFFCURVE",
"200 -8 CURVE",
"223 62 OFFCURVE",
"274 117 OFFCURVE",
"328 144 CURVE",
"265 77 OFFCURVE",
"209 -44 OFFCURVE",
"225 -146 CURVE",
"260 -164 OFFCURVE",
"352 -173 OFFCURVE",
"393 -174 CURVE"
);
}
);
width = 980;
}
);
leftKerningGroup = N;
leftMetricsKey = "=E";
rightKerningGroup = E;
rightMetricsKey = "=E";
unicode = 1E18;
},
{
color = 5;
glyphname = Ecircumflexdotbelow;
layers = (
{
anchors = (
{
name = bottom;
position = "{490, -103}";
},
{
name = top;
position = "{490, 799}";
}
);
layerId = "863809E3-B3D3-4728-B9C6-73F0AB5A9F00";
paths = (
{
closed = 1;
nodes = (
"666 -173 OFFCURVE",
"723 -92 OFFCURVE",
"725 -9 CURVE",
"807 -12 OFFCURVE",
"886 -16 OFFCURVE",
"958 -17 CURVE",
"973 40 OFFCURVE",
"976 315 OFFCURVE",
"965 374 CURVE",
"863 381 OFFCURVE",
"741 381 OFFCURVE",
"629 374 CURVE",
"621 343 OFFCURVE",
"621 311 OFFCURVE",
"629 280 CURVE",
"512 280 LINE",
"512 323 LINE",
"606 323 LINE",
"606 462 LINE",
"513 462 LINE",
"513 504 LINE",
"629 504 LINE",
"621 473 OFFCURVE",
"621 442 OFFCURVE",
"629 411 CURVE",
"733 399 OFFCURVE",
"865 399 OFFCURVE",
"959 411 CURVE",
"979 482 OFFCURVE",
"971 713 OFFCURVE",
"954 776 CURVE",
"899 773 OFFCURVE",
"828 770 OFFCURVE",
"755 769 CURVE",
"729 811 OFFCURVE",
"696 846 OFFCURVE",
"666 867 CURVE",
"638 872 OFFCURVE",
"579 875 OFFCURVE",
"518 875 CURVE SMOOTH",
"462 875 OFFCURVE",
"403 873 OFFCURVE",
"364 867 CURVE",
"288 815 OFFCURVE",
"211 687 OFFCURVE",
"220 559 CURVE",
"192 601 OFFCURVE",
"199 713 OFFCURVE",
"231 768 CURVE",
"149 770 OFFCURVE",
"56 772 OFFCURVE",
"29 775 CURVE",
"2 712 OFFCURVE",
"2 582 OFFCURVE",
"25 533 CURVE",
"49 532 OFFCURVE",
"91 509 OFFCURVE",
"91 381 CURVE SMOOTH",
"91 263 OFFCURVE",
"57 233 OFFCURVE",
"25 222 CURVE",
"7 165 OFFCURVE",
"10 40 OFFCURVE",
"32 -17 CURVE",
"66 -13 OFFCURVE",
"154 -9 OFFCURVE",
"254 -6 CURVE",
"257 63 OFFCURVE",
"297 146 OFFCURVE",
"385 151 CURVE",
"315 119 OFFCURVE",
"288 59 OFFCURVE",
"288 5 CURVE SMOOTH",
"288 -97 OFFCURVE",
"364 -173 OFFCURVE",
"510 -173 CURVE SMOOTH"
);
}
);
width = 980;
}
);
leftKerningGroup = N;
rightKerningGroup = E;
unicode = 1EC6;
},
{
color = 5;
glyphname = Ecircumflexgrave;
layers = (
{
anchors = (
{
name = bottom;
position = "{490, 0}";
}
);
layerId = "863809E3-B3D3-4728-B9C6-73F0AB5A9F00";
paths = (
{
closed = 1;
nodes = (
"91 -11 OFFCURVE",
"319 -2 OFFCURVE",
"489 -2 CURVE SMOOTH",
"646 -2 OFFCURVE",
"818 -15 OFFCURVE",
"958 -17 CURVE",
"973 40 OFFCURVE",
"976 315 OFFCURVE",
"965 374 CURVE",
"863 381 OFFCURVE",
"741 381 OFFCURVE",
"629 374 CURVE",
"621 343 OFFCURVE",
"621 311 OFFCURVE",
"629 280 CURVE",
"512 280 LINE",
"512 323 LINE",
"606 323 LINE",
"606 462 LINE",
"513 462 LINE",
"513 504 LINE",
"629 504 LINE",
"621 473 OFFCURVE",
"621 442 OFFCURVE",
"629 411 CURVE",
"733 399 OFFCURVE",
"865 399 OFFCURVE",
"959 411 CURVE",
"979 482 OFFCURVE",
"971 713 OFFCURVE",
"954 776 CURVE",
"931 775 OFFCURVE",
"905 773 OFFCURVE",
"878 772 CURVE",
"880 835 OFFCURVE",
"855 901 OFFCURVE",
"830 934 CURVE",
"798 948 OFFCURVE",
"758 953 OFFCURVE",
"717 953 CURVE SMOOTH",
"631 953 OFFCURVE",
"542 927 OFFCURVE",
"514 892 CURVE",
"525 827 OFFCURVE",
"571 758 OFFCURVE",
"622 709 CURVE",
"549 731 OFFCURVE",
"501 797 OFFCURVE",
"480 875 CURVE",
"436 874 OFFCURVE",
"394 872 OFFCURVE",
"364 867 CURVE",
"288 815 OFFCURVE",
"211 687 OFFCURVE",
"220 559 CURVE",
"192 601 OFFCURVE",
"199 713 OFFCURVE",
"231 768 CURVE",
"149 770 OFFCURVE",
"56 772 OFFCURVE",
"29 775 CURVE",
"2 712 OFFCURVE",
"2 582 OFFCURVE",
"25 533 CURVE",
"49 532 OFFCURVE",
"91 509 OFFCURVE",
"91 381 CURVE SMOOTH",
"91 263 OFFCURVE",
"57 233 OFFCURVE",
"25 222 CURVE",
"7 165 OFFCURVE",
"10 40 OFFCURVE",
"32 -17 CURVE"
);
}
);
width = 980;
}
);
leftKerningGroup = N;
leftMetricsKey = "=E";
rightKerningGroup = E;
rightMetricsKey = "=E";
unicode = 1EC0;
},
{
color = 5;
glyphname = Ecircumflexhookabove;
layers = (
{
anchors = (
{
name = bottom;
position = "{490, 0}";
}
);
layerId = "863809E3-B3D3-4728-B9C6-73F0AB5A9F00";
paths = (
{
closed = 1;
nodes = (
"91 -11 OFFCURVE",
"319 -2 OFFCURVE",
"489 -2 CURVE SMOOTH",
"646 -2 OFFCURVE",
"818 -15 OFFCURVE",
"958 -17 CURVE",
"973 40 OFFCURVE",
"976 315 OFFCURVE",
"965 374 CURVE",
"863 381 OFFCURVE",
"741 381 OFFCURVE",
"629 374 CURVE",
"621 343 OFFCURVE",
"621 311 OFFCURVE",
"629 280 CURVE",
"512 280 LINE",
"512 323 LINE",
"606 323 LINE",
"606 462 LINE",
"513 462 LINE",
"513 504 LINE",
"629 504 LINE",
"621 473 OFFCURVE",
"621 442 OFFCURVE",
"629 411 CURVE",
"733 399 OFFCURVE",
"865 399 OFFCURVE",
"959 411 CURVE",
"979 482 OFFCURVE",
"971 713 OFFCURVE",
"954 776 CURVE",
"929 775 OFFCURVE",
"900 773 OFFCURVE",
"870 772 CURVE",
"877 794 OFFCURVE",
"880 814 OFFCURVE",
"880 832 CURVE SMOOTH",
"880 906 OFFCURVE",
"829 953 OFFCURVE",
"733 953 CURVE SMOOTH",
"650 953 OFFCURVE",
"587 941 OFFCURVE",
"518 937 CURVE",
"501 901 OFFCURVE",
"502 801 OFFCURVE",
"517 758 CURVE",
"543 761 OFFCURVE",
"568 752 OFFCURVE",
"582 723 CURVE",
"553 737 OFFCURVE",
"521 734 OFFCURVE",
"500 731 CURVE",
"483 763 OFFCURVE",
"474 819 OFFCURVE",
"477 875 CURVE",
"434 874 OFFCURVE",
"393 871 OFFCURVE",
"364 867 CURVE",
"288 815 OFFCURVE",
"211 687 OFFCURVE",
"220 559 CURVE",
"192 601 OFFCURVE",
"199 713 OFFCURVE",
"231 768 CURVE",
"149 770 OFFCURVE",
"56 772 OFFCURVE",
"29 775 CURVE",
"2 712 OFFCURVE",
"2 582 OFFCURVE",
"25 533 CURVE",
"49 532 OFFCURVE",
"91 509 OFFCURVE",
"91 381 CURVE SMOOTH",
"91 263 OFFCURVE",
"57 233 OFFCURVE",
"25 222 CURVE",
"7 165 OFFCURVE",
"10 40 OFFCURVE",
"32 -17 CURVE"
);
}
);
width = 980;
}
);
leftKerningGroup = N;
leftMetricsKey = "=E";
rightKerningGroup = E;
rightMetricsKey = "=E";
unicode = 1EC2;
},
{
color = 5;
glyphname = Ecircumflextilde;
layers = (
{
anchors = (
{
name = bottom;
position = "{490, 0}";
}
);
layerId = "863809E3-B3D3-4728-B9C6-73F0AB5A9F00";
paths = (
{
closed = 1;
nodes = (
"91 -11 OFFCURVE",
"319 -2 OFFCURVE",
"489 -2 CURVE SMOOTH",
"646 -2 OFFCURVE",
"818 -15 OFFCURVE",
"958 -17 CURVE",
"973 40 OFFCURVE",
"976 315 OFFCURVE",
"965 374 CURVE",
"863 381 OFFCURVE",
"741 381 OFFCURVE",
"629 374 CURVE",
"621 343 OFFCURVE",
"621 311 OFFCURVE",
"629 280 CURVE",
"512 280 LINE",
"512 323 LINE",
"606 323 LINE",
"606 462 LINE",
"513 462 LINE",
"513 504 LINE",
"629 504 LINE",
"621 473 OFFCURVE",
"621 442 OFFCURVE",
"629 411 CURVE",
"733 399 OFFCURVE",
"865 399 OFFCURVE",
"959 411 CURVE",
"979 482 OFFCURVE",
"971 713 OFFCURVE",
"954 776 CURVE",
"899 773 LINE",
"910 811 OFFCURVE",
"916 862 OFFCURVE",
"916 928 CURVE",
"890 943 OFFCURVE",
"821 951 OFFCURVE",
"791 952 CURVE",
"781 934 OFFCURVE",
"763 923 OFFCURVE",
"736 923 CURVE SMOOTH",
"698 923 OFFCURVE",
"655 948 OFFCURVE",
"603 948 CURVE SMOOTH",
"524 948 OFFCURVE",
"483 891 OFFCURVE",
"477 747 CURVE",
"459 781 OFFCURVE",
"456 827 OFFCURVE",
"467 875 CURVE",
"428 874 OFFCURVE",
"392 871 OFFCURVE",
"364 867 CURVE",
"288 815 OFFCURVE",
"211 687 OFFCURVE",
"220 559 CURVE",
"192 601 OFFCURVE",
"199 713 OFFCURVE",
"231 768 CURVE",
"149 770 OFFCURVE",
"56 772 OFFCURVE",
"29 775 CURVE",
"2 712 OFFCURVE",
"2 582 OFFCURVE",
"25 533 CURVE",
"49 532 OFFCURVE",
"91 509 OFFCURVE",
"91 381 CURVE SMOOTH",
"91 263 OFFCURVE",
"57 233 OFFCURVE",
"25 222 CURVE",
"7 165 OFFCURVE",
"10 40 OFFCURVE",
"32 -17 CURVE"
);
}
);
width = 980;
}
);
leftKerningGroup = N;
leftMetricsKey = "=E";
rightKerningGroup = E;
rightMetricsKey = "=E";
unicode = 1EC4;
},
{
color = 5;
glyphname = Edblgrave;
layers = (
{
anchors = (
{
name = bottom;
position = "{490, 0}";
},
{
name = top;
position = "{490, 799}";
}
);
layerId = "863809E3-B3D3-4728-B9C6-73F0AB5A9F00";
paths = (
{
closed = 1;
nodes = (
"91 -11 OFFCURVE",
"319 -2 OFFCURVE",
"489 -2 CURVE SMOOTH",
"646 -2 OFFCURVE",
"818 -15 OFFCURVE",
"958 -17 CURVE",
"973 40 OFFCURVE",
"976 315 OFFCURVE",
"965 374 CURVE",
"863 381 OFFCURVE",
"741 381 OFFCURVE",
"629 374 CURVE",
"621 343 OFFCURVE",
"621 311 OFFCURVE",
"629 280 CURVE",
"512 280 LINE",
"512 323 LINE",
"606 323 LINE",
"606 462 LINE",
"513 462 LINE",
"513 504 LINE",
"629 504 LINE",
"621 473 OFFCURVE",
"621 442 OFFCURVE",
"629 411 CURVE",
"733 399 OFFCURVE",
"865 399 OFFCURVE",
"959 411 CURVE",
"979 482 OFFCURVE",
"971 713 OFFCURVE",
"954 776 CURVE",
"913 774 OFFCURVE",
"872 773 OFFCURVE",
"831 771 CURVE",
"820 805 OFFCURVE",
"805 834 OFFCURVE",
"790 854 CURVE",
"751 870 OFFCURVE",
"703 877 OFFCURVE",
"654 877 CURVE SMOOTH",
"550 877 OFFCURVE",
"442 846 OFFCURVE",
"408 803 CURVE",
"417 835 OFFCURVE",
"444 864 OFFCURVE",
"465 872 CURVE",
"344 891 OFFCURVE",
"190 856 OFFCURVE",
"148 803 CURVE",
"163 712 OFFCURVE",
"234 615 OFFCURVE",
"307 557 CURVE",
"227 582 OFFCURVE",
"157 644 OFFCURVE",
"113 771 CURVE",
"75 772 OFFCURVE",
"44 773 OFFCURVE",
"29 775 CURVE",
"2 712 OFFCURVE",
"2 582 OFFCURVE",
"25 533 CURVE",
"49 532 OFFCURVE",
"91 509 OFFCURVE",
"91 381 CURVE SMOOTH",
"91 263 OFFCURVE",
"57 233 OFFCURVE",
"25 222 CURVE",
"7 165 OFFCURVE",
"10 40 OFFCURVE",
"32 -17 CURVE"
);
}
);
width = 980;
}
);
leftKerningGroup = N;
leftMetricsKey = "=E";
rightKerningGroup = E;
rightMetricsKey = "=E";
unicode = 0204;
},
{
color = 5;
glyphname = Edieresis;
layers = (
{
anchors = (
{
name = bottom;
position = "{490, 0}";
},
{
name = top;
position = "{490, 799}";
}
);
layerId = "863809E3-B3D3-4728-B9C6-73F0AB5A9F00";
paths = (
{
closed = 1;
nodes = (
"91 -11 OFFCURVE",
"319 -2 OFFCURVE",
"489 -2 CURVE SMOOTH",
"646 -2 OFFCURVE",
"818 -15 OFFCURVE",
"958 -17 CURVE",
"973 40 OFFCURVE",
"976 315 OFFCURVE",
"965 374 CURVE",
"863 381 OFFCURVE",
"741 381 OFFCURVE",
"629 374 CURVE",
"621 343 OFFCURVE",
"621 311 OFFCURVE",
"629 280 CURVE",
"512 280 LINE",
"512 323 LINE",
"606 323 LINE",
"606 462 LINE",
"513 462 LINE",
"513 504 LINE",
"629 504 LINE",
"621 473 OFFCURVE",
"621 442 OFFCURVE",
"629 411 CURVE",
"733 399 OFFCURVE",
"865 399 OFFCURVE",
"959 411 CURVE",
"979 482 OFFCURVE",
"971 713 OFFCURVE",
"954 776 CURVE",
"923 774 OFFCURVE",
"890 773 OFFCURVE",
"858 772 CURVE",
"833 831 OFFCURVE",
"771 876 OFFCURVE",
"657 876 CURVE SMOOTH",
"529 876 OFFCURVE",
"466 822 OFFCURVE",
"445 760 CURVE",
"437 795 OFFCURVE",
"449 837 OFFCURVE",
"493 866 CURVE",
"469 871 OFFCURVE",
"440 876 OFFCURVE",
"407 876 CURVE SMOOTH",
"242 876 OFFCURVE",
"187 786 OFFCURVE",
"187 707 CURVE SMOOTH",
"187 633 OFFCURVE",
"233 573 OFFCURVE",
"296 546 CURVE",
"198 555 OFFCURVE",
"127 640 OFFCURVE",
"158 770 CURVE",
"93 771 OFFCURVE",
"47 773 OFFCURVE",
"29 775 CURVE",
"2 712 OFFCURVE",
"2 582 OFFCURVE",
"25 533 CURVE",
"49 532 OFFCURVE",
"91 509 OFFCURVE",
"91 381 CURVE SMOOTH",
"91 263 OFFCURVE",
"57 233 OFFCURVE",
"25 222 CURVE",
"7 165 OFFCURVE",
"10 40 OFFCURVE",
"32 -17 CURVE"
);
}
);
width = 980;
}
);
leftKerningGroup = N;
leftMetricsKey = "=E";
rightKerningGroup = E;
rightMetricsKey = "=E";
unicode = 00CB;
},
{
color = 5;
glyphname = Edotaccent;
layers = (
{
anchors = (
{
name = bottom;
position = "{490, 0}";
},
{
name = top;
position = "{490, 799}";
}
);
layerId = "863809E3-B3D3-4728-B9C6-73F0AB5A9F00";
paths = (
{
closed = 1;
nodes = (
"91 -11 OFFCURVE",
"319 -2 OFFCURVE",
"489 -2 CURVE SMOOTH",
"646 -2 OFFCURVE",
"818 -15 OFFCURVE",
"958 -17 CURVE",
"973 40 OFFCURVE",
"976 315 OFFCURVE",
"965 374 CURVE",
"863 381 OFFCURVE",
"741 381 OFFCURVE",
"629 374 CURVE",
"621 343 OFFCURVE",
"621 311 OFFCURVE",
"629 280 CURVE",
"512 280 LINE",
"512 323 LINE",
"606 323 LINE",
"606 462 LINE",
"513 462 LINE",
"513 504 LINE",
"629 504 LINE",
"621 473 OFFCURVE",
"621 442 OFFCURVE",
"629 411 CURVE",
"733 399 OFFCURVE",
"865 399 OFFCURVE",
"959 411 CURVE",
"979 482 OFFCURVE",
"971 713 OFFCURVE",
"954 776 CURVE",
"868 772 OFFCURVE",
"792 770 OFFCURVE",
"713 768 CURVE",
"681 839 OFFCURVE",
"613 876 OFFCURVE",
"498 876 CURVE SMOOTH",
"342 876 OFFCURVE",
"289 788 OFFCURVE",
"289 707 CURVE SMOOTH",
"289 648 OFFCURVE",
"319 597 OFFCURVE",
"363 565 CURVE",
"284 584 OFFCURVE",
"234 656 OFFCURVE",
"259 767 CURVE",
"154 769 OFFCURVE",
"59 772 OFFCURVE",
"29 775 CURVE",
"2 712 OFFCURVE",
"2 582 OFFCURVE",
"25 533 CURVE",
"49 532 OFFCURVE",
"91 509 OFFCURVE",
"91 381 CURVE SMOOTH",
"91 263 OFFCURVE",
"57 233 OFFCURVE",
"25 222 CURVE",
"7 165 OFFCURVE",
"10 40 OFFCURVE",
"32 -17 CURVE"
);
}
);
width = 980;
}
);
leftKerningGroup = N;
leftMetricsKey = "=E";
rightKerningGroup = E;
rightMetricsKey = "=E";
unicode = 0116;
},
{
color = 5;
glyphname = Edotbelow;
layers = (
{
anchors = (
{
name = bottom;
position = "{490, -103}";
},
{
name = top;
position = "{490, 696}";
}
);
layerId = "863809E3-B3D3-4728-B9C6-73F0AB5A9F00";
paths = (
{
closed = 1;
nodes = (
"666 -173 OFFCURVE",
"723 -92 OFFCURVE",
"725 -9 CURVE",
"807 -12 OFFCURVE",
"886 -16 OFFCURVE",
"958 -17 CURVE",
"973 40 OFFCURVE",
"976 315 OFFCURVE",
"965 374 CURVE",
"863 381 OFFCURVE",
"741 381 OFFCURVE",
"629 374 CURVE",
"621 343 OFFCURVE",
"621 311 OFFCURVE",
"629 280 CURVE",
"512 280 LINE",
"512 323 LINE",
"606 323 LINE",
"606 462 LINE",
"513 462 LINE",
"513 504 LINE",
"629 504 LINE",
"621 473 OFFCURVE",
"621 442 OFFCURVE",
"629 411 CURVE",
"733 399 OFFCURVE",
"865 399 OFFCURVE",
"959 411 CURVE",
"979 482 OFFCURVE",
"971 713 OFFCURVE",
"954 776 CURVE",
"785 769 OFFCURVE",
"605 765 OFFCURVE",
"465 765 CURVE SMOOTH",
"327 765 OFFCURVE",
"84 770 OFFCURVE",
"29 775 CURVE",
"2 712 OFFCURVE",
"2 582 OFFCURVE",
"25 533 CURVE",
"49 532 OFFCURVE",
"91 509 OFFCURVE",
"91 381 CURVE SMOOTH",
"91 263 OFFCURVE",
"57 233 OFFCURVE",
"25 222 CURVE",
"7 165 OFFCURVE",
"10 40 OFFCURVE",
"32 -17 CURVE",
"66 -13 OFFCURVE",
"154 -9 OFFCURVE",
"254 -6 CURVE",
"257 63 OFFCURVE",
"297 146 OFFCURVE",
"385 151 CURVE",
"315 119 OFFCURVE",
"288 59 OFFCURVE",
"288 5 CURVE SMOOTH",
"288 -97 OFFCURVE",
"364 -173 OFFCURVE",
"510 -173 CURVE SMOOTH"
);
}
);
width = 980;
}
);
leftKerningGroup = N;
leftMetricsKey = "=E";
rightKerningGroup = E;
rightMetricsKey = "=E";
unicode = 1EB8;
},
{
color = 5;
glyphname = Egrave;
layers = (
{
anchors = (
{
name = bottom;
position = "{490, 0}";
},
{
name = top;
position = "{490, 799}";
}
);
layerId = "863809E3-B3D3-4728-B9C6-73F0AB5A9F00";
paths = (
{
closed = 1;
nodes = (
"91 -11 OFFCURVE",
"319 -2 OFFCURVE",
"489 -2 CURVE SMOOTH",
"646 -2 OFFCURVE",
"818 -15 OFFCURVE",
"958 -17 CURVE",
"973 40 OFFCURVE",
"976 315 OFFCURVE",
"965 374 CURVE",
"863 381 OFFCURVE",
"741 381 OFFCURVE",
"629 374 CURVE",
"621 343 OFFCURVE",
"621 311 OFFCURVE",
"629 280 CURVE",
"512 280 LINE",
"512 323 LINE",
"606 323 LINE",
"606 462 LINE",
"513 462 LINE",
"513 504 LINE",
"629 504 LINE",
"621 473 OFFCURVE",
"621 442 OFFCURVE",
"629 411 CURVE",
"733 399 OFFCURVE",
"865 399 OFFCURVE",
"959 411 CURVE",
"979 482 OFFCURVE",
"971 713 OFFCURVE",
"954 776 CURVE",
"854 772 OFFCURVE",
"750 769 OFFCURVE",
"652 767 CURVE",
"641 802 OFFCURVE",
"625 833 OFFCURVE",
"610 854 CURVE",
"571 870 OFFCURVE",
"523 877 OFFCURVE",
"474 877 CURVE SMOOTH",
"370 877 OFFCURVE",
"262 846 OFFCURVE",
"228 803 CURVE",
"242 718 OFFCURVE",
"305 629 OFFCURVE",
"372 569 CURVE",
"297 594 OFFCURVE",
"232 654 OFFCURVE",
"193 768 CURVE",
"117 770 OFFCURVE",
"54 773 OFFCURVE",
"29 775 CURVE",
"2 712 OFFCURVE",
"2 582 OFFCURVE",
"25 533 CURVE",
"49 532 OFFCURVE",
"91 509 OFFCURVE",
"91 381 CURVE SMOOTH",
"91 263 OFFCURVE",
"57 233 OFFCURVE",
"25 222 CURVE",
"7 165 OFFCURVE",
"10 40 OFFCURVE",
"32 -17 CURVE"
);
}
);
width = 980;
}
);
leftKerningGroup = N;
leftMetricsKey = "=E";
rightKerningGroup = E;
rightMetricsKey = "=E";
unicode = 00C8;
},
{
color = 5;
glyphname = Ehookabove;
layers = (
{
anchors = (
{
name = bottom;
position = "{490, 0}";
},
{
name = top;
position = "{490, 799}";
}
);
layerId = "863809E3-B3D3-4728-B9C6-73F0AB5A9F00";
paths = (
{
closed = 1;
nodes = (
"91 -11 OFFCURVE",
"319 -2 OFFCURVE",
"489 -2 CURVE SMOOTH",
"646 -2 OFFCURVE",
"818 -15 OFFCURVE",
"958 -17 CURVE",
"973 40 OFFCURVE",
"976 315 OFFCURVE",
"965 374 CURVE",
"863 381 OFFCURVE",
"741 381 OFFCURVE",
"629 374 CURVE",
"621 343 OFFCURVE",
"621 311 OFFCURVE",
"629 280 CURVE",
"512 280 LINE",
"512 323 LINE",
"606 323 LINE",
"606 462 LINE",
"513 462 LINE",
"513 504 LINE",
"629 504 LINE",
"621 473 OFFCURVE",
"621 442 OFFCURVE",
"629 411 CURVE",
"733 399 OFFCURVE",
"865 399 OFFCURVE",
"959 411 CURVE",
"979 482 OFFCURVE",
"971 713 OFFCURVE",
"954 776 CURVE",
"878 773 OFFCURVE",
"799 770 OFFCURVE",
"723 768 CURVE",
"707 835 OFFCURVE",
"648 876 OFFCURVE",
"550 876 CURVE SMOOTH",
"449 876 OFFCURVE",
"373 861 OFFCURVE",
"289 856 CURVE",
"269 813 OFFCURVE",
"270 692 OFFCURVE",
"288 639 CURVE",
"323 644 OFFCURVE",
"355 630 OFFCURVE",
"370 588 CURVE",
"346 605 OFFCURVE",
"314 614 OFFCURVE",
"273 609 CURVE",
"255 632 OFFCURVE",
"241 699 OFFCURVE",
"243 768 CURVE",
"147 770 OFFCURVE",
"59 772 OFFCURVE",
"29 775 CURVE",
"2 712 OFFCURVE",
"2 582 OFFCURVE",
"25 533 CURVE",
"49 532 OFFCURVE",
"91 509 OFFCURVE",
"91 381 CURVE SMOOTH",
"91 263 OFFCURVE",
"57 233 OFFCURVE",
"25 222 CURVE",
"7 165 OFFCURVE",
"10 40 OFFCURVE",
"32 -17 CURVE"
);
}
);
width = 980;
}
);
leftKerningGroup = N;
leftMetricsKey = "=E";
rightKerningGroup = E;
rightMetricsKey = "=E";
unicode = 1EBA;
},
{
color = 5;
glyphname = Einvertedbreve;
layers = (
{
anchors = (
{
name = bottom;
position = "{490, 0}";
},
{
name = top;
position = "{490, 799}";
}
);
layerId = "863809E3-B3D3-4728-B9C6-73F0AB5A9F00";
paths = (
{
closed = 1;
nodes = (
"91 -11 OFFCURVE",
"319 -2 OFFCURVE",
"489 -2 CURVE SMOOTH",
"646 -2 OFFCURVE",
"818 -15 OFFCURVE",
"958 -17 CURVE",
"973 40 OFFCURVE",
"976 315 OFFCURVE",
"965 374 CURVE",
"863 381 OFFCURVE",
"741 381 OFFCURVE",
"629 374 CURVE",
"621 343 OFFCURVE",
"621 311 OFFCURVE",
"629 280 CURVE",
"512 280 LINE",
"512 323 LINE",
"606 323 LINE",
"606 462 LINE",
"513 462 LINE",
"513 504 LINE",
"629 504 LINE",
"621 473 OFFCURVE",
"621 442 OFFCURVE",
"629 411 CURVE",
"733 399 OFFCURVE",
"865 399 OFFCURVE",
"959 411 CURVE",
"979 482 OFFCURVE",
"971 713 OFFCURVE",
"954 776 CURVE",
"883 773 OFFCURVE",
"824 771 OFFCURVE",
"753 769 CURVE",
"704 834 OFFCURVE",
"624 875 OFFCURVE",
"520 875 CURVE SMOOTH",
"295 875 OFFCURVE",
"183 745 OFFCURVE",
"214 550 CURVE",
"176 618 OFFCURVE",
"175 700 OFFCURVE",
"209 768 CURVE",
"120 770 OFFCURVE",
"55 773 OFFCURVE",
"29 775 CURVE",
"2 712 OFFCURVE",
"2 582 OFFCURVE",
"25 533 CURVE",
"49 532 OFFCURVE",
"91 509 OFFCURVE",
"91 381 CURVE SMOOTH",
"91 263 OFFCURVE",
"57 233 OFFCURVE",
"25 222 CURVE",
"7 165 OFFCURVE",
"10 40 OFFCURVE",
"32 -17 CURVE"
);
}
);
width = 980;
}
);
leftKerningGroup = N;
leftMetricsKey = "=E";
rightKerningGroup = E;
rightMetricsKey = "=E";
unicode = 0206;
},
{
color = 5;
glyphname = Emacron;
layers = (
{
anchors = (
{
name = bottom;
position = "{490, 0}";
},
{
name = top;
position = "{490, 799}";
}
);
layerId = "863809E3-B3D3-4728-B9C6-73F0AB5A9F00";
paths = (
{
closed = 1;
nodes = (
"91 -11 OFFCURVE",
"319 -2 OFFCURVE",
"489 -2 CURVE SMOOTH",
"646 -2 OFFCURVE",
"818 -15 OFFCURVE",
"958 -17 CURVE",
"973 40 OFFCURVE",
"976 315 OFFCURVE",
"965 374 CURVE",
"863 381 OFFCURVE",
"741 381 OFFCURVE",
"629 374 CURVE",
"621 343 OFFCURVE",
"621 311 OFFCURVE",
"629 280 CURVE",
"512 280 LINE",
"512 323 LINE",
"606 323 LINE",
"606 462 LINE",
"513 462 LINE",
"513 504 LINE",
"629 504 LINE",
"621 473 OFFCURVE",
"621 442 OFFCURVE",
"629 411 CURVE",
"733 399 OFFCURVE",
"865 399 OFFCURVE",
"959 411 CURVE",
"979 482 OFFCURVE",
"971 713 OFFCURVE",
"954 776 CURVE",
"891 774 OFFCURVE",
"829 771 OFFCURVE",
"767 770 CURVE",
"766 803 OFFCURVE",
"763 837 OFFCURVE",
"758 854 CURVE",
"621 844 OFFCURVE",
"369 844 OFFCURVE",
"234 854 CURVE",
"222 798 OFFCURVE",
"224 588 OFFCURVE",
"234 552 CURVE",
"200 608 OFFCURVE",
"193 724 OFFCURVE",
"191 768 CURVE",
"120 770 OFFCURVE",
"53 773 OFFCURVE",
"29 775 CURVE",
"2 712 OFFCURVE",
"2 582 OFFCURVE",
"25 533 CURVE",
"49 532 OFFCURVE",
"91 509 OFFCURVE",
"91 381 CURVE SMOOTH",
"91 263 OFFCURVE",
"57 233 OFFCURVE",
"25 222 CURVE",
"7 165 OFFCURVE",
"10 40 OFFCURVE",
"32 -17 CURVE"
);
}
);
width = 980;
}
);
leftKerningGroup = N;
leftMetricsKey = "=E";
rightKerningGroup = E;
rightMetricsKey = "=E";
unicode = 0112;
},
{
color = 7;
glyphname = Emacronacute;
layers = (
{
anchors = (
{
name = bottom;
position = "{490, 0}";
}
);
layerId = "863809E3-B3D3-4728-B9C6-73F0AB5A9F00";
paths = (
{
closed = 1;
nodes = (
"91 -11 OFFCURVE",
"319 -2 OFFCURVE",
"489 -2 CURVE SMOOTH",
"646 -2 OFFCURVE",
"818 -15 OFFCURVE",
"958 -17 CURVE",
"973 40 OFFCURVE",
"976 315 OFFCURVE",
"965 374 CURVE",
"863 381 OFFCURVE",
"741 381 OFFCURVE",
"629 374 CURVE",
"621 343 OFFCURVE",
"621 311 OFFCURVE",
"629 280 CURVE",
"512 280 LINE",
"512 323 LINE",
"606 323 LINE",
"606 462 LINE",
"513 462 LINE",
"513 504 LINE",
"629 504 LINE",
"621 473 OFFCURVE",
"621 442 OFFCURVE",
"629 411 CURVE",
"733 399 OFFCURVE",
"865 399 OFFCURVE",
"959 411 CURVE",
"979 482 OFFCURVE",
"971 713 OFFCURVE",
"954 776 CURVE",
"891 774 OFFCURVE",
"829 771 OFFCURVE",
"767 770 CURVE",
"766 803 OFFCURVE",
"763 837 OFFCURVE",
"758 854 CURVE",
"747 853 OFFCURVE",
"724 852 OFFCURVE",
"711 852 CURVE",
"715 863 OFFCURVE",
"718 875 OFFCURVE",
"720 887 CURVE",
"692 922 OFFCURVE",
"603 948 OFFCURVE",
"517 948 CURVE SMOOTH",
"476 948 OFFCURVE",
"436 943 OFFCURVE",
"404 929 CURVE",
"370 883 OFFCURVE",
"334 776 OFFCURVE",
"373 699 CURVE",
"334 730 OFFCURVE",
"320 783 OFFCURVE",
"332 849 CURVE",
"302 850 OFFCURVE",
"264 852 OFFCURVE",
"234 854 CURVE",
"222 798 OFFCURVE",
"224 588 OFFCURVE",
"234 552 CURVE",
"200 608 OFFCURVE",
"193 724 OFFCURVE",
"191 768 CURVE",
"120 770 OFFCURVE",
"53 773 OFFCURVE",
"29 775 CURVE",
"2 712 OFFCURVE",
"2 582 OFFCURVE",
"25 533 CURVE",
"49 532 OFFCURVE",
"91 509 OFFCURVE",
"91 381 CURVE SMOOTH",
"91 263 OFFCURVE",
"57 233 OFFCURVE",
"25 222 CURVE",
"7 165 OFFCURVE",
"10 40 OFFCURVE",
"32 -17 CURVE"
);
}
);
width = 980;
}
);
leftKerningGroup = N;
leftMetricsKey = "=E";
rightKerningGroup = E;
rightMetricsKey = "=E";
unicode = 1E16;
},
{
color = 7;
glyphname = Emacrongrave;
layers = (
{
anchors = (
{
name = bottom;
position = "{490, 0}";
}
);
layerId = "863809E3-B3D3-4728-B9C6-73F0AB5A9F00";
paths = (
{
closed = 1;
nodes = (
"91 -11 OFFCURVE",
"319 -2 OFFCURVE",
"489 -2 CURVE SMOOTH",
"646 -2 OFFCURVE",
"818 -15 OFFCURVE",
"958 -17 CURVE",
"973 40 OFFCURVE",
"976 315 OFFCURVE",
"965 374 CURVE",
"863 381 OFFCURVE",
"741 381 OFFCURVE",
"629 374 CURVE",
"621 343 OFFCURVE",
"621 311 OFFCURVE",
"629 280 CURVE",
"512 280 LINE",
"512 323 LINE",
"606 323 LINE",
"606 462 LINE",
"513 462 LINE",
"513 504 LINE",
"629 504 LINE",
"621 473 OFFCURVE",
"621 442 OFFCURVE",
"629 411 CURVE",
"733 399 OFFCURVE",
"865 399 OFFCURVE",
"959 411 CURVE",
"979 482 OFFCURVE",
"971 713 OFFCURVE",
"954 776 CURVE",
"891 774 OFFCURVE",
"829 771 OFFCURVE",
"767 770 CURVE",
"766 803 OFFCURVE",
"763 837 OFFCURVE",
"758 854 CURVE",
"726 852 OFFCURVE",
"687 850 OFFCURVE",
"646 849 CURVE",
"636 882 OFFCURVE",
"622 910 OFFCURVE",
"608 929 CURVE",
"576 943 OFFCURVE",
"527 948 OFFCURVE",
"486 948 CURVE SMOOTH",
"400 948 OFFCURVE",
"314 922 OFFCURVE",
"286 887 CURVE",
"297 822 OFFCURVE",
"340 753 OFFCURVE",
"371 724 CURVE",
"322 735 OFFCURVE",
"278 783 OFFCURVE",
"254 853 CURVE",
"247 853 OFFCURVE",
"240 853 OFFCURVE",
"234 854 CURVE",
"222 798 OFFCURVE",
"224 588 OFFCURVE",
"234 552 CURVE",
"200 608 OFFCURVE",
"193 724 OFFCURVE",
"191 768 CURVE",
"120 770 OFFCURVE",
"53 773 OFFCURVE",
"29 775 CURVE",
"2 712 OFFCURVE",
"2 582 OFFCURVE",
"25 533 CURVE",
"49 532 OFFCURVE",
"91 509 OFFCURVE",
"91 381 CURVE SMOOTH",
"91 263 OFFCURVE",
"57 233 OFFCURVE",
"25 222 CURVE",
"7 165 OFFCURVE",
"10 40 OFFCURVE",
"32 -17 CURVE"
);
}
);
width = 980;
}
);
leftKerningGroup = N;
leftMetricsKey = "=E";
rightKerningGroup = E;
rightMetricsKey = "=E";
unicode = 1E14;
},
{
color = 5;
glyphname = Eogonek;
layers = (
{
anchors = (
{
name = bottom;
position = "{490, 0}";
},
{
name = top;
position = "{490, 696}";
}
);
layerId = "863809E3-B3D3-4728-B9C6-73F0AB5A9F00";
paths = (
{
closed = 1;
nodes = (
"810 -169 OFFCURVE",
"864 -152 OFFCURVE",
"953 -159 CURVE",
"973 30 OFFCURVE",
"976 315 OFFCURVE",
"965 374 CURVE",
"863 381 OFFCURVE",
"741 381 OFFCURVE",
"629 374 CURVE",
"621 343 OFFCURVE",
"621 311 OFFCURVE",
"629 280 CURVE",
"512 280 LINE",
"512 323 LINE",
"606 323 LINE",
"606 462 LINE",
"513 462 LINE",
"513 504 LINE",
"629 504 LINE",
"621 473 OFFCURVE",
"621 442 OFFCURVE",
"629 411 CURVE",
"733 399 OFFCURVE",
"865 399 OFFCURVE",
"959 411 CURVE",
"979 482 OFFCURVE",
"971 713 OFFCURVE",
"954 776 CURVE",
"785 769 OFFCURVE",
"605 765 OFFCURVE",
"465 765 CURVE SMOOTH",
"327 765 OFFCURVE",
"84 770 OFFCURVE",
"29 775 CURVE",
"2 712 OFFCURVE",
"2 582 OFFCURVE",
"25 533 CURVE",
"49 532 OFFCURVE",
"91 509 OFFCURVE",
"91 381 CURVE SMOOTH",
"91 263 OFFCURVE",
"57 233 OFFCURVE",
"25 222 CURVE",
"7 165 OFFCURVE",
"10 40 OFFCURVE",
"32 -17 CURVE",
"67 -13 OFFCURVE",
"170 -7 OFFCURVE",
"480 -5 CURVE",
"491 24 OFFCURVE",
"519 93 OFFCURVE",
"583 106 CURVE",
"539 59 OFFCURVE",
"521 7 OFFCURVE",
"521 -34 CURVE SMOOTH",
"521 -123 OFFCURVE",
"583 -169 OFFCURVE",
"699 -169 CURVE SMOOTH"
);
}
);
width = 979;
}
);
leftKerningGroup = N;
leftMetricsKey = "=E";
rightKerningGroup = E;
rightMetricsKey = "=E";
unicode = 0118;
},
{
color = 7;
glyphname = Eopen;
layers = (
{
anchors = (
{
name = bottom;
position = "{508, 0}";
},
{
name = top;
position = "{508, 696}";
}
);
layerId = "863809E3-B3D3-4728-B9C6-73F0AB5A9F00";
paths = (
{
closed = 1;
nodes = (
"869 -35 OFFCURVE",
"1002 84 OFFCURVE",
"1002 368 CURVE",
"832 376 OFFCURVE",
"736 376 OFFCURVE",
"581 368 CURVE",
"581 289 LINE",
"466 289 LINE",
"466 332 LINE",
"561 332 LINE",
"561 453 LINE",
"466 453 LINE",
"466 496 LINE",
"581 496 LINE",
"582 409 LINE",
"677 393 OFFCURVE",
"891 393 OFFCURVE",
"995 409 CURVE",
"1014 515 OFFCURVE",
"1010 699 OFFCURVE",
"992 781 CURVE",
"912 781 OFFCURVE",
"713 775 OFFCURVE",
"636 773 CURVE",
"664 732 OFFCURVE",
"681 674 OFFCURVE",
"663 616 CURVE",
"650 753 OFFCURVE",
"539 795 OFFCURVE",
"362 795 CURVE SMOOTH",
"191 795 OFFCURVE",
"21 739 OFFCURVE",
"21 560 CURVE SMOOTH",
"21 484 OFFCURVE",
"53 429 OFFCURVE",
"101 388 CURVE",
"31 348 OFFCURVE",
"8 299 OFFCURVE",
"8 233 CURVE SMOOTH",
"8 67 OFFCURVE",
"162 -35 OFFCURVE",
"476 -35 CURVE SMOOTH"
);
}
);
width = 1015;
}
);
leftKerningGroup = Eopen;
leftMetricsKey = "=|B";
rightKerningGroup = Eopen;
unicode = 0190;
},
{
color = 7;
glyphname = Ereversed;
layers = (
{
anchors = (
{
name = bottom;
position = "{490, 0}";
},
{
name = top;
position = "{490, 696}";
}
);
layerId = "863809E3-B3D3-4728-B9C6-73F0AB5A9F00";
paths = (
{
closed = 1;
nodes = (
"162 -15 OFFCURVE",
"334 -2 OFFCURVE",
"491 -2 CURVE SMOOTH",
"661 -2 OFFCURVE",
"889 -11 OFFCURVE",
"948 -17 CURVE",
"970 40 OFFCURVE",
"973 165 OFFCURVE",
"955 222 CURVE",
"923 233 OFFCURVE",
"889 263 OFFCURVE",
"889 381 CURVE SMOOTH",
"889 509 OFFCURVE",
"931 532 OFFCURVE",
"955 533 CURVE",
"978 582 OFFCURVE",
"978 712 OFFCURVE",
"951 775 CURVE",
"896 770 OFFCURVE",
"653 765 OFFCURVE",
"515 765 CURVE SMOOTH",
"375 765 OFFCURVE",
"195 769 OFFCURVE",
"26 776 CURVE",
"9 713 OFFCURVE",
"1 482 OFFCURVE",
"21 411 CURVE",
"115 399 OFFCURVE",
"247 399 OFFCURVE",
"351 411 CURVE",
"359 442 OFFCURVE",
"359 473 OFFCURVE",
"351 504 CURVE",
"467 504 LINE",
"467 462 LINE",
"374 462 LINE",
"374 323 LINE",
"468 323 LINE",
"468 280 LINE",
"351 280 LINE",
"359 311 OFFCURVE",
"359 343 OFFCURVE",
"351 374 CURVE",
"239 381 OFFCURVE",
"117 381 OFFCURVE",
"15 374 CURVE",
"4 315 OFFCURVE",
"7 40 OFFCURVE",
"22 -17 CURVE"
);
}
);
width = 980;
}
);
leftKerningGroup = Z;
rightKerningGroup = N;
unicode = 018E;
},
{
color = 7;
glyphname = Estroke;
layers = (
{
associatedMasterId = "863809E3-B3D3-4728-B9C6-73F0AB5A9F00";
background = {
paths = (
{
closed = 1;
nodes = (
"91 -11 OFFCURVE",
"319 -2 OFFCURVE",
"489 -2 CURVE SMOOTH",
"646 -2 OFFCURVE",
"818 -15 OFFCURVE",
"958 -17 CURVE",
"973 40 OFFCURVE",
"976 315 OFFCURVE",
"965 374 CURVE",
"863 381 OFFCURVE",
"741 381 OFFCURVE",
"629 374 CURVE",
"621 343 OFFCURVE",
"621 311 OFFCURVE",
"629 280 CURVE",
"512 280 LINE",
"512 323 LINE",
"606 323 LINE",
"606 462 LINE",
"513 462 LINE",
"513 504 LINE",
"629 504 LINE",
"621 473 OFFCURVE",
"621 442 OFFCURVE",
"629 411 CURVE",
"733 399 OFFCURVE",
"865 399 OFFCURVE",
"959 411 CURVE",
"979 482 OFFCURVE",
"971 713 OFFCURVE",
"954 776 CURVE",
"785 769 OFFCURVE",
"605 765 OFFCURVE",
"465 765 CURVE SMOOTH",
"327 765 OFFCURVE",
"84 770 OFFCURVE",
"29 775 CURVE",
"2 712 OFFCURVE",
"2 582 OFFCURVE",
"25 533 CURVE",
"49 532 OFFCURVE",
"91 509 OFFCURVE",
"91 381 CURVE SMOOTH",
"91 263 OFFCURVE",
"57 233 OFFCURVE",
"25 222 CURVE",
"7 165 OFFCURVE",
"10 40 OFFCURVE",
"32 -17 CURVE"
);
}
);
};
layerId = "86F0F8E8-D284-4A92-9BFE-8D5EC9ACFD69";
name = "Nov 19 23, 00:11";
paths = (
{
closed = 1;
nodes = (
"437 -127 OFFCURVE",
"478 -123 OFFCURVE",
"503 -117 CURVE",
"533 -2 LINE",
"678 -4 OFFCURVE",
"831 -15 OFFCURVE",
"958 -17 CURVE",
"973 40 OFFCURVE",
"976 315 OFFCURVE",
"965 374 CURVE",
"864 381 OFFCURVE",
"743 381 OFFCURVE",
"632 374 CURVE",
"641 410 LINE",
"743 399 OFFCURVE",
"869 399 OFFCURVE",
"959 411 CURVE",
"979 482 OFFCURVE",
"971 713 OFFCURVE",
"954 776 CURVE",
"882 773 OFFCURVE",
"808 771 OFFCURVE",
"736 769 CURVE",
"763 872 LINE",
"746 880 OFFCURVE",
"713 883 OFFCURVE",
"678 883 CURVE SMOOTH",
"638 883 OFFCURVE",
"595 879 OFFCURVE",
"568 874 CURVE",
"539 765 LINE",
"465 765 LINE SMOOTH",
"327 765 OFFCURVE",
"84 770 OFFCURVE",
"29 775 CURVE",
"2 712 OFFCURVE",
"2 582 OFFCURVE",
"25 533 CURVE",
"49 532 OFFCURVE",
"91 509 OFFCURVE",
"91 381 CURVE SMOOTH",
"91 263 OFFCURVE",
"57 233 OFFCURVE",
"25 222 CURVE",
"7 165 OFFCURVE",
"10 40 OFFCURVE",
"32 -17 CURVE",
"74 -13 OFFCURVE",
"204 -7 OFFCURVE",
"337 -4 CURVE",
"308 -115 LINE",
"326 -123 OFFCURVE",
"361 -127 OFFCURVE",
"398 -127 CURVE SMOOTH"
);
},
{
closed = 1;
nodes = (
"473 324 LINE",
"566 324 LINE",
"566 280 LINE",
"473 280 LINE"
);
},
{
closed = 1;
nodes = (
"473 504 LINE",
"566 504 LINE",
"566 462 LINE",
"473 462 LINE"
);
}
);
width = 980;
},
{
associatedMasterId = "863809E3-B3D3-4728-B9C6-73F0AB5A9F00";
background = {
paths = (
{
closed = 1;
nodes = (
"91 -11 OFFCURVE",
"319 -2 OFFCURVE",
"489 -2 CURVE SMOOTH",
"646 -2 OFFCURVE",
"818 -15 OFFCURVE",
"958 -17 CURVE",
"973 40 OFFCURVE",
"976 315 OFFCURVE",
"965 374 CURVE",
"863 381 OFFCURVE",
"741 381 OFFCURVE",
"629 374 CURVE",
"621 343 OFFCURVE",
"621 311 OFFCURVE",
"629 280 CURVE",
"512 280 LINE",
"512 323 LINE",
"606 323 LINE",
"606 462 LINE",
"513 462 LINE",
"513 504 LINE",
"629 504 LINE",
"621 473 OFFCURVE",
"621 442 OFFCURVE",
"629 411 CURVE",
"733 399 OFFCURVE",
"865 399 OFFCURVE",
"959 411 CURVE",
"979 482 OFFCURVE",
"971 713 OFFCURVE",
"954 776 CURVE",
"785 769 OFFCURVE",
"605 765 OFFCURVE",
"465 765 CURVE SMOOTH",
"327 765 OFFCURVE",
"84 770 OFFCURVE",
"29 775 CURVE",
"2 712 OFFCURVE",
"2 582 OFFCURVE",
"25 533 CURVE",
"49 532 OFFCURVE",
"91 509 OFFCURVE",
"91 381 CURVE SMOOTH",
"91 263 OFFCURVE",
"57 233 OFFCURVE",
"25 222 CURVE",
"7 165 OFFCURVE",
"10 40 OFFCURVE",
"32 -17 CURVE"
);
}
);
};
layerId = "52495F64-11BC-4E72-AD89-5C56B30B2F28";
name = "Nov 19 23, 00:12";
paths = (
{
closed = 1;
nodes = (
"437 -127 OFFCURVE",
"478 -123 OFFCURVE",
"503 -117 CURVE",
"533 -2 LINE",
"678 -4 OFFCURVE",
"831 -15 OFFCURVE",
"958 -17 CURVE",
"973 40 OFFCURVE",
"976 315 OFFCURVE",
"965 374 CURVE",
"864 381 OFFCURVE",
"743 381 OFFCURVE",
"632 374 CURVE",
"641 410 LINE",
"743 399 OFFCURVE",
"869 399 OFFCURVE",
"959 411 CURVE",
"979 482 OFFCURVE",
"971 713 OFFCURVE",
"954 776 CURVE",
"882 773 OFFCURVE",
"808 771 OFFCURVE",
"716 689 CURVE",
"763 872 LINE",
"746 880 OFFCURVE",
"713 883 OFFCURVE",
"678 883 CURVE SMOOTH",
"638 883 OFFCURVE",
"595 879 OFFCURVE",
"568 874 CURVE",
"539 765 LINE",
"465 765 LINE SMOOTH",
"327 765 OFFCURVE",
"84 770 OFFCURVE",
"29 775 CURVE",
"2 712 OFFCURVE",
"2 582 OFFCURVE",
"25 533 CURVE",
"49 532 OFFCURVE",
"91 509 OFFCURVE",
"91 381 CURVE SMOOTH",
"91 263 OFFCURVE",
"57 233 OFFCURVE",
"25 222 CURVE",
"7 165 OFFCURVE",
"10 40 OFFCURVE",
"32 -17 CURVE",
"74 -13 OFFCURVE",
"204 -7 OFFCURVE",
"337 -4 CURVE",
"308 -115 LINE",
"326 -123 OFFCURVE",
"361 -127 OFFCURVE",
"398 -127 CURVE SMOOTH"
);
},
{
closed = 1;
nodes = (
"473 324 LINE",
"566 324 LINE",
"566 280 LINE",
"473 280 LINE"
);
},
{
closed = 1;
nodes = (
"473 504 LINE",
"566 504 LINE",
"566 462 LINE",
"473 462 LINE"
);
}
);
width = 980;
},
{
layerId = "863809E3-B3D3-4728-B9C6-73F0AB5A9F00";
paths = (
{
closed = 1;
nodes = (
"437 -127 OFFCURVE",
"478 -123 OFFCURVE",
"503 -117 CURVE",
"533 -2 LINE",
"678 -4 OFFCURVE",
"831 -15 OFFCURVE",
"958 -17 CURVE",
"973 40 OFFCURVE",
"976 315 OFFCURVE",
"965 374 CURVE",
"864 381 OFFCURVE",
"743 381 OFFCURVE",
"632 374 CURVE",
"641 410 LINE",
"743 399 OFFCURVE",
"869 399 OFFCURVE",
"959 411 CURVE",
"979 482 OFFCURVE",
"971 713 OFFCURVE",
"954 776 CURVE",
"882 773 OFFCURVE",
"808 771 OFFCURVE",
"736 769 CURVE",
"763 872 LINE",
"746 880 OFFCURVE",
"713 883 OFFCURVE",
"678 883 CURVE SMOOTH",
"638 883 OFFCURVE",
"595 879 OFFCURVE",
"568 874 CURVE",
"505 638 LINE",
"504 738 OFFCURVE",
"481 765 OFFCURVE",
"355 765 CURVE SMOOTH",
"277 765 OFFCURVE",
"84 770 OFFCURVE",
"29 775 CURVE",
"2 712 OFFCURVE",
"2 582 OFFCURVE",
"25 533 CURVE",
"49 532 OFFCURVE",
"91 509 OFFCURVE",
"91 381 CURVE SMOOTH",
"91 263 OFFCURVE",
"57 233 OFFCURVE",
"25 222 CURVE",
"7 165 OFFCURVE",
"10 40 OFFCURVE",
"32 -17 CURVE",
"74 -13 OFFCURVE",
"204 -7 OFFCURVE",
"337 -4 CURVE",
"308 -115 LINE",
"326 -123 OFFCURVE",
"361 -127 OFFCURVE",
"398 -127 CURVE SMOOTH"
);
},
{
closed = 1;
nodes = (
"473 324 LINE",
"566 324 LINE",
"566 280 LINE",
"473 280 LINE"
);
},
{
closed = 1;
nodes = (
"473 504 LINE",
"566 504 LINE",
"566 462 LINE",
"473 462 LINE"
);
}
);
width = 980;
}
);
leftKerningGroup = N;
leftMetricsKey = "=E";
rightKerningGroup = E;
rightMetricsKey = "=E";
unicode = 0246;
},
{
color = 5;
glyphname = Etilde;
layers = (
{
anchors = (
{
name = bottom;
position = "{490, 0}";
},
{
name = top;
position = "{490, 799}";
}
);
layerId = "863809E3-B3D3-4728-B9C6-73F0AB5A9F00";
paths = (
{
closed = 1;
nodes = (
"91 -11 OFFCURVE",
"319 -2 OFFCURVE",
"489 -2 CURVE SMOOTH",
"646 -2 OFFCURVE",
"818 -15 OFFCURVE",
"958 -17 CURVE",
"973 40 OFFCURVE",
"976 315 OFFCURVE",
"965 374 CURVE",
"863 381 OFFCURVE",
"741 381 OFFCURVE",
"629 374 CURVE",
"621 343 OFFCURVE",
"621 311 OFFCURVE",
"629 280 CURVE",
"512 280 LINE",
"512 323 LINE",
"606 323 LINE",
"606 462 LINE",
"513 462 LINE",
"513 504 LINE",
"629 504 LINE",
"621 473 OFFCURVE",
"621 442 OFFCURVE",
"629 411 CURVE",
"733 399 OFFCURVE",
"865 399 OFFCURVE",
"959 411 CURVE",
"979 482 OFFCURVE",
"971 713 OFFCURVE",
"954 776 CURVE",
"803 770 LINE",
"804 788 OFFCURVE",
"805 807 OFFCURVE",
"805 827 CURVE",
"770 845 OFFCURVE",
"678 854 OFFCURVE",
"637 855 CURVE",
"623 834 OFFCURVE",
"600 821 OFFCURVE",
"564 821 CURVE SMOOTH",
"513 821 OFFCURVE",
"457 851 OFFCURVE",
"386 851 CURVE SMOOTH",
"276 851 OFFCURVE",
"221 780 OFFCURVE",
"217 581 CURVE",
"196 614 OFFCURVE",
"189 692 OFFCURVE",
"206 768 CURVE",
"145 769 OFFCURVE",
"74 771 OFFCURVE",
"29 775 CURVE",
"2 712 OFFCURVE",
"2 582 OFFCURVE",
"25 533 CURVE",
"49 532 OFFCURVE",
"91 509 OFFCURVE",
"91 381 CURVE SMOOTH",
"91 263 OFFCURVE",
"57 233 OFFCURVE",
"25 222 CURVE",
"7 165 OFFCURVE",
"10 40 OFFCURVE",
"32 -17 CURVE"
);
}
);
width = 980;
}
);
leftKerningGroup = N;
leftMetricsKey = "=E";
rightKerningGroup = E;
rightMetricsKey = "=E";
unicode = 1EBC;
},
{
color = 7;
glyphname = Etildebelow;
layers = (
{
anchors = (
{
name = bottom;
position = "{490, -103}";
},
{
name = top;
position = "{490, 696}";
}
);
layerId = "863809E3-B3D3-4728-B9C6-73F0AB5A9F00";
paths = (
{
closed = 1;
nodes = (
"395 -148 OFFCURVE",
"418 -135 OFFCURVE",
"454 -135 CURVE SMOOTH",
"505 -135 OFFCURVE",
"561 -165 OFFCURVE",
"632 -165 CURVE SMOOTH",
"716 -165 OFFCURVE",
"768 -121 OFFCURVE",
"789 -12 CURVE",
"849 -14 OFFCURVE",
"905 -16 OFFCURVE",
"958 -17 CURVE",
"973 40 OFFCURVE",
"976 315 OFFCURVE",
"965 374 CURVE",
"863 381 OFFCURVE",
"741 381 OFFCURVE",
"629 374 CURVE",
"621 343 OFFCURVE",
"621 311 OFFCURVE",
"629 280 CURVE",
"512 280 LINE",
"512 323 LINE",
"606 323 LINE",
"606 462 LINE",
"513 462 LINE",
"513 504 LINE",
"629 504 LINE",
"621 473 OFFCURVE",
"621 442 OFFCURVE",
"629 411 CURVE",
"733 399 OFFCURVE",
"865 399 OFFCURVE",
"959 411 CURVE",
"979 482 OFFCURVE",
"971 713 OFFCURVE",
"954 776 CURVE",
"785 769 OFFCURVE",
"605 765 OFFCURVE",
"465 765 CURVE SMOOTH",
"327 765 OFFCURVE",
"84 770 OFFCURVE",
"29 775 CURVE",
"2 712 OFFCURVE",
"2 582 OFFCURVE",
"25 533 CURVE",
"49 532 OFFCURVE",
"91 509 OFFCURVE",
"91 381 CURVE SMOOTH",
"91 263 OFFCURVE",
"57 233 OFFCURVE",
"25 222 CURVE",
"7 165 OFFCURVE",
"10 40 OFFCURVE",
"32 -17 CURVE",
"57 -14 OFFCURVE",
"112 -11 OFFCURVE",
"179 -8 CURVE",
"199 59 OFFCURVE",
"236 122 OFFCURVE",
"293 130 CURVE",
"239 92 OFFCURVE",
"213 7 OFFCURVE",
"213 -141 CURVE",
"248 -159 OFFCURVE",
"340 -168 OFFCURVE",
"381 -169 CURVE"
);
}
);
width = 980;
}
);
leftKerningGroup = N;
leftMetricsKey = "=E";
rightKerningGroup = E;
rightMetricsKey = "=E";
unicode = 1E1A;
},
{
color = 7;
glyphname = Ezh;
layers = (
{
anchors = (
{
name = bottom;
position = "{496, 0}";
},
{
name = top;
position = "{496, 696}";
}
);
layerId = "863809E3-B3D3-4728-B9C6-73F0AB5A9F00";
paths = (
{
closed = 1;
nodes = (
"838 -35 OFFCURVE",
"984 66 OFFCURVE",
"984 248 CURVE SMOOTH",
"984 345 OFFCURVE",
"945 396 OFFCURVE",
"854 432 CURVE",
"886 462 OFFCURVE",
"933 501 OFFCURVE",
"967 523 CURVE",
"990 572 OFFCURVE",
"990 712 OFFCURVE",
"963 775 CURVE",
"899 770 OFFCURVE",
"655 765 OFFCURVE",
"501 765 CURVE SMOOTH",
"332 765 OFFCURVE",
"192 769 OFFCURVE",
"23 776 CURVE",
"8 713 OFFCURVE",
"0 525 OFFCURVE",
"18 408 CURVE",
"122 392 OFFCURVE",
"330 392 OFFCURVE",
"409 408 CURVE",
"415 437 OFFCURVE",
"414 469 OFFCURVE",
"412 496 CURVE",
"520 496 LINE",
"520 453 LINE",
"433 453 LINE",
"433 332 LINE",
"520 332 LINE",
"520 289 LINE",
"412 289 LINE",
"414 315 OFFCURVE",
"414 342 OFFCURVE",
"412 368 CURVE",
"257 375 OFFCURVE",
"179 375 OFFCURVE",
"8 368 CURVE",
"9 84 OFFCURVE",
"121 -35 OFFCURVE",
"504 -35 CURVE SMOOTH"
);
}
);
width = 992;
}
);
leftKerningGroup = Ezh;
rightKerningGroup = Ezh;
unicode = 01B7;
},
{
color = 7;
glyphname = Ezhcaron;
layers = (
{
anchors = (
{
name = bottom;
position = "{496, 0}";
},
{
name = top;
position = "{496, 799}";
}
);
layerId = "863809E3-B3D3-4728-B9C6-73F0AB5A9F00";
paths = (
{
closed = 1;
nodes = (
"838 -35 OFFCURVE",
"984 66 OFFCURVE",
"984 248 CURVE SMOOTH",
"984 345 OFFCURVE",
"945 396 OFFCURVE",
"854 432 CURVE",
"886 462 OFFCURVE",
"933 501 OFFCURVE",
"967 523 CURVE",
"990 572 OFFCURVE",
"990 712 OFFCURVE",
"963 775 CURVE",
"919 772 OFFCURVE",
"857 770 OFFCURVE",
"809 769 CURVE",
"813 795 OFFCURVE",
"814 822 OFFCURVE",
"810 847 CURVE",
"775 865 OFFCURVE",
"677 874 OFFCURVE",
"632 875 CURVE",
"579 861 OFFCURVE",
"518 811 OFFCURVE",
"463 748 CURVE",
"438 765 LINE",
"456 785 OFFCURVE",
"474 804 OFFCURVE",
"492 821 CURVE",
"458 846 OFFCURVE",
"419 867 OFFCURVE",
"390 875 CURVE",
"349 874 OFFCURVE",
"257 865 OFFCURVE",
"222 847 CURVE",
"206 747 OFFCURVE",
"260 627 OFFCURVE",
"303 580 CURVE",
"249 592 OFFCURVE",
"188 695 OFFCURVE",
"186 770 CURVE",
"117 772 OFFCURVE",
"51 774 OFFCURVE",
"23 776 CURVE",
"8 713 OFFCURVE",
"0 525 OFFCURVE",
"18 408 CURVE",
"122 392 OFFCURVE",
"330 392 OFFCURVE",
"409 408 CURVE",
"415 437 OFFCURVE",
"414 469 OFFCURVE",
"412 496 CURVE",
"520 496 LINE",
"520 453 LINE",
"433 453 LINE",
"433 332 LINE",
"520 332 LINE",
"520 289 LINE",
"412 289 LINE",
"414 315 OFFCURVE",
"414 342 OFFCURVE",
"412 368 CURVE",
"257 375 OFFCURVE",
"179 375 OFFCURVE",
"8 368 CURVE",
"9 84 OFFCURVE",
"121 -35 OFFCURVE",
"504 -35 CURVE SMOOTH"
);
}
);
width = 992;
}
);
leftKerningGroup = Ezh;
leftMetricsKey = "=Ezh";
rightKerningGroup = Ezh;
rightMetricsKey = "=Ezh";
unicode = 01EE;
},
{
color = 7;
glyphname = Ezhreversed;
layers = (
{
anchors = (
{
name = bottom;
position = "{496, 0}";
},
{
name = top;
position = "{496, 696}";
}
);
layerId = "863809E3-B3D3-4728-B9C6-73F0AB5A9F00";
paths = (
{
closed = 1;
nodes = (
"871 -35 OFFCURVE",
"983 84 OFFCURVE",
"984 368 CURVE",
"813 375 OFFCURVE",
"735 375 OFFCURVE",
"580 368 CURVE",
"578 342 OFFCURVE",
"578 315 OFFCURVE",
"580 289 CURVE",
"472 289 LINE",
"472 332 LINE",
"559 332 LINE",
"559 453 LINE",
"472 453 LINE",
"472 496 LINE",
"580 496 LINE",
"578 469 OFFCURVE",
"577 437 OFFCURVE",
"583 408 CURVE",
"662 392 OFFCURVE",
"870 392 OFFCURVE",
"974 408 CURVE",
"992 525 OFFCURVE",
"984 713 OFFCURVE",
"969 776 CURVE",
"800 769 OFFCURVE",
"660 765 OFFCURVE",
"491 765 CURVE SMOOTH",
"337 765 OFFCURVE",
"93 770 OFFCURVE",
"29 775 CURVE",
"2 712 OFFCURVE",
"2 572 OFFCURVE",
"25 523 CURVE",
"59 501 OFFCURVE",
"106 462 OFFCURVE",
"138 432 CURVE",
"47 396 OFFCURVE",
"8 345 OFFCURVE",
"8 248 CURVE SMOOTH",
"8 66 OFFCURVE",
"154 -35 OFFCURVE",
"488 -35 CURVE SMOOTH"
);
}
);
width = 992;
}
);
leftKerningGroup = Ezhreversed;
rightKerningGroup = Eopen;
unicode = 01B8;
},
{
color = 4;
glyphname = F;
layers = (
{
anchors = (
{
name = bottom;
position = "{338, 0}";
},
{
name = top;
position = "{477, 696}";
}
);
layerId = "863809E3-B3D3-4728-B9C6-73F0AB5A9F00";
paths = (
{
closed = 1;
nodes = (
"104 -11 OFFCURVE",
"255 -1 OFFCURVE",
"354 -1 CURVE SMOOTH",
"443 -1 OFFCURVE",
"569 -12 OFFCURVE",
"608 -17 CURVE",
"629 40 OFFCURVE",
"627 195 OFFCURVE",
"609 242 CURVE",
"526 239 OFFCURVE",
"509 253 OFFCURVE",
"509 288 CURVE",
"606 288 LINE",
"606 455 LINE",
"509 455 LINE",
"509 496 LINE",
"628 496 LINE",
"622 445 OFFCURVE",
"622 395 OFFCURVE",
"628 344 CURVE",
"754 328 OFFCURVE",
"840 328 OFFCURVE",
"934 344 CURVE",
"954 411 OFFCURVE",
"946 713 OFFCURVE",
"929 776 CURVE",
"758 769 OFFCURVE",
"611 765 OFFCURVE",
"470 765 CURVE SMOOTH",
"330 765 OFFCURVE",
"85 770 OFFCURVE",
"29 775 CURVE",
"2 712 OFFCURVE",
"2 582 OFFCURVE",
"25 533 CURVE",
"49 532 OFFCURVE",
"91 509 OFFCURVE",
"91 381 CURVE SMOOTH",
"91 263 OFFCURVE",
"56 233 OFFCURVE",
"27 222 CURVE",
"7 165 OFFCURVE",
"11 40 OFFCURVE",
"34 -17 CURVE"
);
}
);
width = 954;
}
);
leftKerningGroup = N;
rightKerningGroup = F;
unicode = 0046;
},
{
color = 7;
glyphname = Fdotaccent;
layers = (
{
anchors = (
{
name = bottom;
position = "{338, 0}";
},
{
name = top;
position = "{477, 799}";
}
);
layerId = "863809E3-B3D3-4728-B9C6-73F0AB5A9F00";
paths = (
{
closed = 1;
nodes = (
"104 -11 OFFCURVE",
"255 -1 OFFCURVE",
"354 -1 CURVE SMOOTH",
"443 -1 OFFCURVE",
"569 -12 OFFCURVE",
"608 -17 CURVE",
"629 40 OFFCURVE",
"627 195 OFFCURVE",
"609 242 CURVE",
"526 239 OFFCURVE",
"509 253 OFFCURVE",
"509 288 CURVE",
"606 288 LINE",
"606 455 LINE",
"509 455 LINE",
"509 496 LINE",
"628 496 LINE",
"622 445 OFFCURVE",
"622 395 OFFCURVE",
"628 344 CURVE",
"754 328 OFFCURVE",
"840 328 OFFCURVE",
"934 344 CURVE",
"954 411 OFFCURVE",
"946 713 OFFCURVE",
"929 776 CURVE",
"849 772 OFFCURVE",
"774 769 OFFCURVE",
"702 768 CURVE",
"670 839 OFFCURVE",
"602 876 OFFCURVE",
"487 876 CURVE SMOOTH",
"331 876 OFFCURVE",
"278 788 OFFCURVE",
"278 707 CURVE SMOOTH",
"278 648 OFFCURVE",
"308 597 OFFCURVE",
"352 565 CURVE",
"273 584 OFFCURVE",
"223 656 OFFCURVE",
"248 767 CURVE",
"150 769 OFFCURVE",
"60 772 OFFCURVE",
"29 775 CURVE",
"2 712 OFFCURVE",
"2 582 OFFCURVE",
"25 533 CURVE",
"49 532 OFFCURVE",
"91 509 OFFCURVE",
"91 381 CURVE SMOOTH",
"91 263 OFFCURVE",
"56 233 OFFCURVE",
"27 222 CURVE",
"7 165 OFFCURVE",
"11 40 OFFCURVE",
"34 -17 CURVE"
);
}
);
width = 954;
}
);
leftKerningGroup = N;
leftMetricsKey = "=F";
rightKerningGroup = F;
rightMetricsKey = "=F";
unicode = 1E1E;
},
{
color = 7;
glyphname = Fhook;
layers = (
{
anchors = (
{
name = bottom;
position = "{338, 0}";
},
{
name = top;
position = "{477, 696}";
}
);
layerId = "863809E3-B3D3-4728-B9C6-73F0AB5A9F00";
paths = (
{
closed = 1;
nodes = (
"395 -174 OFFCURVE",
"549 -133 OFFCURVE",
"549 41 CURVE SMOOTH",
"549 145 OFFCURVE",
"509 195 OFFCURVE",
"509 288 CURVE",
"606 288 LINE",
"606 455 LINE",
"509 455 LINE",
"509 496 LINE",
"628 496 LINE",
"622 445 OFFCURVE",
"622 395 OFFCURVE",
"628 344 CURVE",
"754 328 OFFCURVE",
"840 328 OFFCURVE",
"934 344 CURVE",
"954 411 OFFCURVE",
"946 713 OFFCURVE",
"929 776 CURVE",
"758 769 OFFCURVE",
"611 765 OFFCURVE",
"470 765 CURVE SMOOTH",
"330 765 OFFCURVE",
"85 770 OFFCURVE",
"29 775 CURVE",
"2 712 OFFCURVE",
"2 582 OFFCURVE",
"25 533 CURVE",
"49 530 OFFCURVE",
"81 509 OFFCURVE",
"81 331 CURVE SMOOTH",
"81 111 OFFCURVE",
"50 80 OFFCURVE",
"2 50 CURVE",
"-19 -5 OFFCURVE",
"-17 -124 OFFCURVE",
"6 -166 CURVE",
"48 -171 OFFCURVE",
"96 -174 OFFCURVE",
"142 -174 CURVE SMOOTH"
);
}
);
width = 954;
}
);
leftKerningGroup = Nhookleft;
rightKerningGroup = F;
rightMetricsKey = "=F";
unicode = 0191;
},
{
color = 4;
glyphname = G;
layers = (
{
anchors = (
{
name = bottom;
position = "{523, 0}";
},
{
name = top;
position = "{523, 696}";
}
);
layerId = "863809E3-B3D3-4728-B9C6-73F0AB5A9F00";
paths = (
{
closed = 1;
nodes = (
"635 -24 OFFCURVE",
"801 0 OFFCURVE",
"964 -15 CURVE",
"964 58 OFFCURVE",
"986 136 OFFCURVE",
"1020 138 CURVE",
"1043 187 OFFCURVE",
"1043 339 OFFCURVE",
"1016 392 CURVE",
"951 386 OFFCURVE",
"835 381 OFFCURVE",
"756 381 CURVE SMOOTH",
"634 381 OFFCURVE",
"554 388 OFFCURVE",
"499 394 CURVE",
"490 356 OFFCURVE",
"490 333 OFFCURVE",
"497 301 CURVE",
"531 301 LINE",
"531 265 LINE",
"472 265 LINE",
"472 470 LINE",
"521 470 LINE",
"521 417 LINE",
"649 405 OFFCURVE",
"921 405 OFFCURVE",
"1005 417 CURVE",
"1024 515 OFFCURVE",
"1020 699 OFFCURVE",
"1002 780 CURVE",
"922 780 OFFCURVE",
"763 773 OFFCURVE",
"667 772 CURVE",
"672 719 OFFCURVE",
"684 666 OFFCURVE",
"664 622 CURVE",
"658 755 OFFCURVE",
"567 795 OFFCURVE",
"411 795 CURVE SMOOTH",
"162 795 OFFCURVE",
"10 649 OFFCURVE",
"10 378 CURVE SMOOTH",
"10 102 OFFCURVE",
"171 -24 OFFCURVE",
"486 -24 CURVE SMOOTH"
);
}
);
width = 1045;
}
);
leftKerningGroup = O;
rightKerningGroup = G;
unicode = 0047;
},
{
color = 7;
glyphname = Gacute;
layers = (
{
anchors = (
{
name = bottom;
position = "{523, 0}";
},
{
name = top;
position = "{523, 799}";
}
);
layerId = "863809E3-B3D3-4728-B9C6-73F0AB5A9F00";
paths = (
{
closed = 1;
nodes = (
"635 -24 OFFCURVE",
"801 0 OFFCURVE",
"964 -15 CURVE",
"964 58 OFFCURVE",
"986 136 OFFCURVE",
"1020 138 CURVE",
"1043 187 OFFCURVE",
"1043 339 OFFCURVE",
"1016 392 CURVE",
"951 386 OFFCURVE",
"835 381 OFFCURVE",
"756 381 CURVE SMOOTH",
"634 381 OFFCURVE",
"554 388 OFFCURVE",
"499 394 CURVE",
"490 356 OFFCURVE",
"490 333 OFFCURVE",
"497 301 CURVE",
"531 301 LINE",
"531 265 LINE",
"472 265 LINE",
"472 470 LINE",
"521 470 LINE",
"521 417 LINE",
"649 405 OFFCURVE",
"921 405 OFFCURVE",
"1005 417 CURVE",
"1024 515 OFFCURVE",
"1020 699 OFFCURVE",
"1002 780 CURVE",
"945 780 OFFCURVE",
"848 776 OFFCURVE",
"762 774 CURVE",
"765 784 OFFCURVE",
"767 793 OFFCURVE",
"769 803 CURVE",
"735 846 OFFCURVE",
"627 877 OFFCURVE",
"523 877 CURVE SMOOTH",
"474 877 OFFCURVE",
"426 870 OFFCURVE",
"387 854 CURVE",
"305 739 OFFCURVE",
"310 590 OFFCURVE",
"386 528 CURVE",
"274 567 OFFCURVE",
"277 688 OFFCURVE",
"308 786 CURVE",
"120 749 OFFCURVE",
"10 609 OFFCURVE",
"10 378 CURVE SMOOTH",
"10 102 OFFCURVE",
"171 -24 OFFCURVE",
"486 -24 CURVE SMOOTH"
);
}
);
width = 1045;
}
);
leftKerningGroup = O;
leftMetricsKey = "=G";
rightKerningGroup = G;
rightMetricsKey = "=G";
unicode = 01F4;
},
{
color = 5;
glyphname = Gbreve;
layers = (
{
anchors = (
{
name = bottom;
position = "{523, 0}";
},
{
name = top;
position = "{523, 799}";
}
);
layerId = "863809E3-B3D3-4728-B9C6-73F0AB5A9F00";
paths = (
{
closed = 1;
nodes = (
"635 -24 OFFCURVE",
"801 0 OFFCURVE",
"964 -15 CURVE",
"964 58 OFFCURVE",
"986 136 OFFCURVE",
"1020 138 CURVE",
"1043 187 OFFCURVE",
"1043 339 OFFCURVE",
"1016 392 CURVE",
"951 386 OFFCURVE",
"835 381 OFFCURVE",
"756 381 CURVE SMOOTH",
"634 381 OFFCURVE",
"554 388 OFFCURVE",
"499 394 CURVE",
"490 356 OFFCURVE",
"490 333 OFFCURVE",
"497 301 CURVE",
"531 301 LINE",
"531 265 LINE",
"472 265 LINE",
"472 470 LINE",
"521 470 LINE",
"521 417 LINE",
"649 405 OFFCURVE",
"921 405 OFFCURVE",
"1005 417 CURVE",
"1024 515 OFFCURVE",
"1020 699 OFFCURVE",
"1002 780 CURVE",
"962 780 OFFCURVE",
"905 778 OFFCURVE",
"846 777 CURVE",
"847 799 OFFCURVE",
"845 822 OFFCURVE",
"841 847 CURVE",
"806 865 OFFCURVE",
"714 874 OFFCURVE",
"673 875 CURVE",
"653 845 OFFCURVE",
"612 830 OFFCURVE",
"552 830 CURVE SMOOTH",
"492 830 OFFCURVE",
"452 845 OFFCURVE",
"431 875 CURVE",
"386 874 OFFCURVE",
"288 865 OFFCURVE",
"253 847 CURVE",
"234 731 OFFCURVE",
"278 626 OFFCURVE",
"367 568 CURVE",
"279 590 OFFCURVE",
"228 662 OFFCURVE",
"211 751 CURVE",
"80 689 OFFCURVE",
"10 562 OFFCURVE",
"10 378 CURVE SMOOTH",
"10 102 OFFCURVE",
"171 -24 OFFCURVE",
"486 -24 CURVE SMOOTH"
);
}
);
width = 1045;
}
);
leftKerningGroup = O;
leftMetricsKey = "=G";
rightKerningGroup = G;
rightMetricsKey = "=G";
unicode = 011E;
},
{
color = 5;
glyphname = Gcaron;
layers = (
{
anchors = (
{
name = bottom;
position = "{523, 0}";
},
{
name = top;
position = "{523, 799}";
}
);
layerId = "863809E3-B3D3-4728-B9C6-73F0AB5A9F00";
paths = (
{
closed = 1;
nodes = (
"635 -24 OFFCURVE",
"801 0 OFFCURVE",
"964 -15 CURVE",
"964 58 OFFCURVE",
"986 136 OFFCURVE",
"1020 138 CURVE",
"1043 187 OFFCURVE",
"1043 339 OFFCURVE",
"1016 392 CURVE",
"951 386 OFFCURVE",
"835 381 OFFCURVE",
"756 381 CURVE SMOOTH",
"634 381 OFFCURVE",
"554 388 OFFCURVE",
"499 394 CURVE",
"490 356 OFFCURVE",
"490 333 OFFCURVE",
"497 301 CURVE",
"531 301 LINE",
"531 265 LINE",
"472 265 LINE",
"472 470 LINE",
"521 470 LINE",
"521 417 LINE",
"649 405 OFFCURVE",
"921 405 OFFCURVE",
"1005 417 CURVE",
"1024 515 OFFCURVE",
"1020 699 OFFCURVE",
"1002 780 CURVE",
"961 780 OFFCURVE",
"900 778 OFFCURVE",
"837 776 CURVE",
"840 800 OFFCURVE",
"841 824 OFFCURVE",
"837 847 CURVE",
"802 865 OFFCURVE",
"704 874 OFFCURVE",
"659 875 CURVE",
"606 861 OFFCURVE",
"545 811 OFFCURVE",
"490 748 CURVE",
"465 765 LINE",
"483 785 OFFCURVE",
"501 804 OFFCURVE",
"519 821 CURVE",
"485 846 OFFCURVE",
"446 867 OFFCURVE",
"417 875 CURVE",
"376 874 OFFCURVE",
"284 865 OFFCURVE",
"249 847 CURVE",
"232 738 OFFCURVE",
"297 605 OFFCURVE",
"367 543 CURVE",
"298 567 OFFCURVE",
"223 666 OFFCURVE",
"214 756 CURVE",
"84 696 OFFCURVE",
"10 567 OFFCURVE",
"10 378 CURVE SMOOTH",
"10 102 OFFCURVE",
"171 -24 OFFCURVE",
"486 -24 CURVE SMOOTH"
);
}
);
width = 1045;
}
);
leftKerningGroup = O;
leftMetricsKey = "=G";
rightKerningGroup = G;
rightMetricsKey = "=G";
unicode = 01E6;
},
{
color = 5;
glyphname = Gcircumflex;
layers = (
{
anchors = (
{
name = bottom;
position = "{523, 0}";
},
{
name = top;
position = "{523, 799}";
}
);
layerId = "863809E3-B3D3-4728-B9C6-73F0AB5A9F00";
paths = (
{
closed = 1;
nodes = (
"635 -24 OFFCURVE",
"801 0 OFFCURVE",
"964 -15 CURVE",
"964 58 OFFCURVE",
"986 136 OFFCURVE",
"1020 138 CURVE",
"1043 187 OFFCURVE",
"1043 339 OFFCURVE",
"1016 392 CURVE",
"951 386 OFFCURVE",
"835 381 OFFCURVE",
"756 381 CURVE SMOOTH",
"634 381 OFFCURVE",
"554 388 OFFCURVE",
"499 394 CURVE",
"490 356 OFFCURVE",
"490 333 OFFCURVE",
"497 301 CURVE",
"531 301 LINE",
"531 265 LINE",
"472 265 LINE",
"472 470 LINE",
"521 470 LINE",
"521 417 LINE",
"649 405 OFFCURVE",
"921 405 OFFCURVE",
"1005 417 CURVE",
"1024 515 OFFCURVE",
"1020 699 OFFCURVE",
"1002 780 CURVE",
"944 780 OFFCURVE",
"846 776 OFFCURVE",
"759 774 CURVE",
"734 814 OFFCURVE",
"704 847 OFFCURVE",
"675 867 CURVE",
"645 872 OFFCURVE",
"585 875 OFFCURVE",
"523 875 CURVE SMOOTH",
"467 875 OFFCURVE",
"408 873 OFFCURVE",
"369 867 CURVE",
"293 815 OFFCURVE",
"237 697 OFFCURVE",
"225 559 CURVE",
"197 599 OFFCURVE",
"211 708 OFFCURVE",
"243 763 CURVE",
"91 703 OFFCURVE",
"10 573 OFFCURVE",
"10 378 CURVE SMOOTH",
"10 102 OFFCURVE",
"171 -24 OFFCURVE",
"486 -24 CURVE SMOOTH"
);
}
);
width = 1045;
}
);
leftKerningGroup = O;
leftMetricsKey = "=G";
rightKerningGroup = G;
rightMetricsKey = "=G";
unicode = 011C;
},
{
color = 5;
glyphname = Gcommaaccent;
layers = (
{
anchors = (
{
name = bottom;
position = "{523, -103}";
},
{
name = top;
position = "{523, 696}";
}
);
layerId = "863809E3-B3D3-4728-B9C6-73F0AB5A9F00";
paths = (
{
closed = 1;
nodes = (
"670 -130 OFFCURVE",
"729 -78 OFFCURVE",
"749 -13 CURVE",
"815 -9 OFFCURVE",
"890 -8 OFFCURVE",
"964 -15 CURVE",
"964 58 OFFCURVE",
"986 136 OFFCURVE",
"1020 138 CURVE",
"1043 187 OFFCURVE",
"1043 339 OFFCURVE",
"1016 392 CURVE",
"951 386 OFFCURVE",
"835 381 OFFCURVE",
"756 381 CURVE SMOOTH",
"634 381 OFFCURVE",
"554 388 OFFCURVE",
"499 394 CURVE",
"490 356 OFFCURVE",
"490 333 OFFCURVE",
"497 301 CURVE",
"531 301 LINE",
"531 265 LINE",
"472 265 LINE",
"472 470 LINE",
"521 470 LINE",
"521 417 LINE",
"649 405 OFFCURVE",
"921 405 OFFCURVE",
"1005 417 CURVE",
"1024 515 OFFCURVE",
"1020 699 OFFCURVE",
"1002 780 CURVE",
"922 780 OFFCURVE",
"763 773 OFFCURVE",
"667 772 CURVE",
"672 719 OFFCURVE",
"684 666 OFFCURVE",
"664 622 CURVE",
"658 755 OFFCURVE",
"567 795 OFFCURVE",
"411 795 CURVE SMOOTH",
"162 795 OFFCURVE",
"10 649 OFFCURVE",
"10 378 CURVE SMOOTH",
"10 161 OFFCURVE",
"109 36 OFFCURVE",
"309 -8 CURVE",
"324 24 OFFCURVE",
"326 75 OFFCURVE",
"325 117 CURVE",
"378 -14 OFFCURVE",
"357 -95 OFFCURVE",
"343 -163 CURVE",
"367 -170 OFFCURVE",
"444 -174 OFFCURVE",
"507 -174 CURVE SMOOTH",
"543 -174 OFFCURVE",
"574 -173 OFFCURVE",
"588 -170 CURVE"
);
}
);
width = 1045;
}
);
leftKerningGroup = O;
leftMetricsKey = "=G";
rightKerningGroup = G;
rightMetricsKey = "=G";
unicode = 0122;
},
{
color = 5;
glyphname = Gdotaccent;
layers = (
{
anchors = (
{
name = bottom;
position = "{523, 0}";
},
{
name = top;
position = "{523, 799}";
}
);
layerId = "863809E3-B3D3-4728-B9C6-73F0AB5A9F00";
paths = (
{
closed = 1;
nodes = (
"635 -24 OFFCURVE",
"801 0 OFFCURVE",
"964 -15 CURVE",
"964 58 OFFCURVE",
"986 136 OFFCURVE",
"1020 138 CURVE",
"1043 187 OFFCURVE",
"1043 339 OFFCURVE",
"1016 392 CURVE",
"951 386 OFFCURVE",
"835 381 OFFCURVE",
"756 381 CURVE SMOOTH",
"634 381 OFFCURVE",
"554 388 OFFCURVE",
"499 394 CURVE",
"490 356 OFFCURVE",
"490 333 OFFCURVE",
"497 301 CURVE",
"531 301 LINE",
"531 265 LINE",
"472 265 LINE",
"472 470 LINE",
"520 470 LINE",
"521 417 LINE",
"649 405 OFFCURVE",
"921 405 OFFCURVE",
"1005 417 CURVE",
"1024 515 OFFCURVE",
"1020 699 OFFCURVE",
"1002 780 CURVE",
"938 780 OFFCURVE",
"822 775 OFFCURVE",
"745 773 CURVE",
"710 841 OFFCURVE",
"641 876 OFFCURVE",
"534 876 CURVE SMOOTH",
"385 876 OFFCURVE",
"325 788 OFFCURVE",
"325 707 CURVE SMOOTH",
"325 639 OFFCURVE",
"364 583 OFFCURVE",
"419 553 CURVE",
"329 569 OFFCURVE",
"260 647 OFFCURVE",
"291 780 CURVE",
"110 736 OFFCURVE",
"10 598 OFFCURVE",
"10 378 CURVE SMOOTH",
"10 102 OFFCURVE",
"171 -24 OFFCURVE",
"486 -24 CURVE SMOOTH"
);
}
);
width = 1045;
}
);
leftKerningGroup = O;
leftMetricsKey = "=G";
rightKerningGroup = G;
rightMetricsKey = "=G";
unicode = 0120;
},
{
color = 7;
glyphname = Ghook;
layers = (
{
anchors = (
{
name = bottom;
position = "{523, 0}";
},
{
name = top;
position = "{523, 696}";
}
);
layerId = "863809E3-B3D3-4728-B9C6-73F0AB5A9F00";
paths = (
{
closed = 1;
nodes = (
"635 -24 OFFCURVE",
"801 0 OFFCURVE",
"964 -15 CURVE",
"964 58 OFFCURVE",
"986 136 OFFCURVE",
"1020 138 CURVE",
"1043 187 OFFCURVE",
"1043 339 OFFCURVE",
"1016 392 CURVE",
"951 386 OFFCURVE",
"835 381 OFFCURVE",
"756 381 CURVE SMOOTH",
"634 381 OFFCURVE",
"554 388 OFFCURVE",
"499 394 CURVE",
"490 356 OFFCURVE",
"490 333 OFFCURVE",
"497 301 CURVE",
"531 301 LINE",
"531 265 LINE",
"472 265 LINE",
"472 470 LINE",
"521 470 LINE",
"521 417 LINE",
"649 405 OFFCURVE",
"921 405 OFFCURVE",
"1015 418 CURVE",
"1015 473 OFFCURVE",
"973 532 OFFCURVE",
"973 571 CURVE SMOOTH",
"973 600 OFFCURVE",
"987 608 OFFCURVE",
"1010 610 CURVE",
"1021 662 OFFCURVE",
"1021 787 OFFCURVE",
"1007 839 CURVE",
"966 858 OFFCURVE",
"909 875 OFFCURVE",
"826 875 CURVE SMOOTH",
"738 875 OFFCURVE",
"620 853 OFFCURVE",
"620 692 CURVE SMOOTH",
"620 636 LINE",
"587 753 OFFCURVE",
"505 795 OFFCURVE",
"387 795 CURVE SMOOTH",
"162 795 OFFCURVE",
"10 649 OFFCURVE",
"10 378 CURVE SMOOTH",
"10 102 OFFCURVE",
"171 -24 OFFCURVE",
"486 -24 CURVE SMOOTH"
);
}
);
width = 1045;
}
);
leftKerningGroup = O;
leftMetricsKey = "=G";
widthMetricsKey = "=G";
rightKerningGroup = G;
unicode = 0193;
},
{
color = 7;
glyphname = Glottalstop;
layers = (
{
layerId = "863809E3-B3D3-4728-B9C6-73F0AB5A9F00";
paths = (
{
closed = 1;
nodes = (
"227 -11 OFFCURVE",
"343 -1 OFFCURVE",
"435 -1 CURVE SMOOTH",
"534 -1 OFFCURVE",
"655 -11 OFFCURVE",
"715 -17 CURVE",
"738 40 OFFCURVE",
"742 165 OFFCURVE",
"722 222 CURVE",
"692 230 OFFCURVE",
"656 253 OFFCURVE",
"656 300 CURVE SMOOTH",
"656 393 OFFCURVE",
"858 401 OFFCURVE",
"858 583 CURVE SMOOTH",
"858 732 OFFCURVE",
"736 793 OFFCURVE",
"558 793 CURVE SMOOTH",
"422 793 OFFCURVE",
"293 756 OFFCURVE",
"266 650 CURVE",
"253 685 OFFCURVE",
"269 735 OFFCURVE",
"293 764 CURVE",
"180 766 OFFCURVE",
"101 769 OFFCURVE",
"25 773 CURVE",
"8 670 OFFCURVE",
"0 516 OFFCURVE",
"20 385 CURVE",
"145 386 OFFCURVE",
"196 420 OFFCURVE",
"268 519 CURVE",
"293 505 LINE",
"234 421 OFFCURVE",
"226 386 OFFCURVE",
"226 346 CURVE SMOOTH",
"226 263 OFFCURVE",
"190 233 OFFCURVE",
"160 222 CURVE",
"140 165 OFFCURVE",
"144 40 OFFCURVE",
"167 -17 CURVE"
);
}
);
width = 866;
}
);
unicode = 0241;
},
{
color = 7;
glyphname = Gmacron;
layers = (
{
anchors = (
{
name = bottom;
position = "{523, 0}";
},
{
name = top;
position = "{523, 799}";
}
);
layerId = "863809E3-B3D3-4728-B9C6-73F0AB5A9F00";
paths = (
{
closed = 1;
nodes = (
"635 -24 OFFCURVE",
"801 0 OFFCURVE",
"964 -15 CURVE",
"964 58 OFFCURVE",
"986 136 OFFCURVE",
"1020 138 CURVE",
"1043 187 OFFCURVE",
"1043 339 OFFCURVE",
"1016 392 CURVE",
"951 386 OFFCURVE",
"835 381 OFFCURVE",
"756 381 CURVE SMOOTH",
"634 381 OFFCURVE",
"554 388 OFFCURVE",
"499 394 CURVE",
"490 356 OFFCURVE",
"490 333 OFFCURVE",
"497 301 CURVE",
"531 301 LINE",
"531 265 LINE",
"472 265 LINE",
"472 470 LINE",
"521 470 LINE",
"521 417 LINE",
"649 405 OFFCURVE",
"921 405 OFFCURVE",
"1005 417 CURVE",
"1024 515 OFFCURVE",
"1020 699 OFFCURVE",
"1002 780 CURVE",
"958 780 OFFCURVE",
"889 778 OFFCURVE",
"821 776 CURVE",
"820 812 OFFCURVE",
"818 842 OFFCURVE",
"814 854 CURVE",
"677 844 OFFCURVE",
"425 844 OFFCURVE",
"290 854 CURVE",
"278 798 OFFCURVE",
"280 588 OFFCURVE",
"290 552 CURVE",
"259 608 OFFCURVE",
"245 682 OFFCURVE",
"242 768 CURVE",
"95 713 OFFCURVE",
"10 581 OFFCURVE",
"10 378 CURVE SMOOTH",
"10 102 OFFCURVE",
"171 -24 OFFCURVE",
"486 -24 CURVE SMOOTH"
);
}
);
width = 1045;
}
);
leftKerningGroup = O;
leftMetricsKey = "=G";
rightKerningGroup = G;
rightMetricsKey = "=G";
unicode = 1E20;
},
{
color = 7;
glyphname = Gstroke;
layers = (
{
associatedMasterId = "863809E3-B3D3-4728-B9C6-73F0AB5A9F00";
layerId = "E74B2880-A504-4D5D-8664-159FE5274DBB";
name = "Nov 18 23, 20:01";
paths = (
{
closed = 1;
nodes = (
"635 -24 OFFCURVE",
"801 0 OFFCURVE",
"964 -15 CURVE",
"964 27 OFFCURVE",
"971 91 OFFCURVE",
"984 121 CURVE",
"964 109 LINE",
"1021 109 LINE",
"1035 173 OFFCURVE",
"1051 322 OFFCURVE",
"1024 362 CURVE",
"896 326 LINE",
"965 333 OFFCURVE",
"1000 339 OFFCURVE",
"1026 347 CURVE",
"1024 360 OFFCURVE",
"1020 380 OFFCURVE",
"1016 392 CURVE",
"951 386 OFFCURVE",
"835 381 OFFCURVE",
"756 381 CURVE SMOOTH",
"634 381 OFFCURVE",
"554 388 OFFCURVE",
"499 394 CURVE",
"494 379 OFFCURVE",
"494 353 OFFCURVE",
"497 336 CURVE",
"646 335 LINE",
"588 311 OFFCURVE",
"474 311 OFFCURVE",
"393 311 CURVE",
"393 219 LINE",
"557 219 LINE",
"521 251 LINE",
"521 186 LINE",
"472 186 LINE",
"472 470 LINE",
"521 470 LINE",
"521 417 LINE",
"649 405 OFFCURVE",
"921 405 OFFCURVE",
"1005 417 CURVE",
"1024 515 OFFCURVE",
"1020 699 OFFCURVE",
"1002 780 CURVE",
"922 780 OFFCURVE",
"763 773 OFFCURVE",
"667 772 CURVE",
"672 719 OFFCURVE",
"684 666 OFFCURVE",
"664 622 CURVE",
"658 755 OFFCURVE",
"567 795 OFFCURVE",
"411 795 CURVE SMOOTH",
"162 795 OFFCURVE",
"10 649 OFFCURVE",
"10 378 CURVE SMOOTH",
"10 102 OFFCURVE",
"171 -24 OFFCURVE",
"486 -24 CURVE SMOOTH"
);
}
);
width = 1045;
},
{
anchors = (
{
name = bottom;
position = "{523, 0}";
},
{
name = top;
position = "{523, 696}";
}
);
layerId = "863809E3-B3D3-4728-B9C6-73F0AB5A9F00";
paths = (
{
closed = 1;
nodes = (
"635 -24 OFFCURVE",
"801 0 OFFCURVE",
"964 -15 CURVE",
"964 20 OFFCURVE",
"969 71 OFFCURVE",
"978 104 CURVE",
"1023 104 LINE",
"1041 148 OFFCURVE",
"1042 282 OFFCURVE",
"1023 320 CURVE",
"846 320 LINE",
"925 343 OFFCURVE",
"980 349 OFFCURVE",
"1026 347 CURVE",
"1024 360 OFFCURVE",
"1020 380 OFFCURVE",
"1016 392 CURVE",
"951 386 OFFCURVE",
"835 381 OFFCURVE",
"756 381 CURVE SMOOTH",
"634 381 OFFCURVE",
"554 388 OFFCURVE",
"499 394 CURVE",
"493 368 OFFCURVE",
"493 354 OFFCURVE",
"497 328 CURVE",
"531 328 LINE",
"531 300 LINE",
"495 300 LINE",
"495 228 LINE",
"531 228 LINE",
"531 200 LINE",
"472 200 LINE",
"472 470 LINE",
"521 470 LINE",
"521 417 LINE",
"649 405 OFFCURVE",
"921 405 OFFCURVE",
"1005 417 CURVE",
"1024 515 OFFCURVE",
"1020 699 OFFCURVE",
"1002 780 CURVE",
"922 780 OFFCURVE",
"763 773 OFFCURVE",
"667 772 CURVE",
"672 719 OFFCURVE",
"684 666 OFFCURVE",
"664 622 CURVE",
"658 755 OFFCURVE",
"567 795 OFFCURVE",
"411 795 CURVE SMOOTH",
"162 795 OFFCURVE",
"10 649 OFFCURVE",
"10 378 CURVE SMOOTH",
"10 102 OFFCURVE",
"171 -24 OFFCURVE",
"486 -24 CURVE SMOOTH"
);
}
);
width = 1045;
}
);
leftKerningGroup = O;
leftMetricsKey = "=G";
rightKerningGroup = G;
rightMetricsKey = "=G";
unicode = 01E4;
},
{
color = 4;
glyphname = H;
layers = (
{
anchors = (
{
name = bottom;
position = "{556, 0}";
},
{
name = center;
position = "{556, 380}";
},
{
name = top;
position = "{556, 696}";
},
{
name = topleft;
position = "{20, 760}";
}
);
layerId = "863809E3-B3D3-4728-B9C6-73F0AB5A9F00";
paths = (
{
closed = 1;
nodes = (
"91 -11 OFFCURVE",
"179 -1 OFFCURVE",
"287 -1 CURVE SMOOTH",
"420 -1 OFFCURVE",
"476 -12 OFFCURVE",
"531 -17 CURVE",
"546 40 OFFCURVE",
"549 175 OFFCURVE",
"538 232 CURVE",
"514 232 LINE",
"514 283 LINE",
"594 283 LINE",
"594 232 LINE",
"569 232 LINE",
"561 175 OFFCURVE",
"564 40 OFFCURVE",
"576 -17 CURVE",
"631 -12 OFFCURVE",
"726 -1 OFFCURVE",
"833 -1 CURVE SMOOTH",
"951 -1 OFFCURVE",
"1025 -12 OFFCURVE",
"1080 -17 CURVE",
"1102 40 OFFCURVE",
"1105 165 OFFCURVE",
"1087 222 CURVE",
"1055 233 OFFCURVE",
"1021 263 OFFCURVE",
"1021 381 CURVE SMOOTH",
"1021 509 OFFCURVE",
"1063 532 OFFCURVE",
"1087 533 CURVE",
"1110 582 OFFCURVE",
"1110 712 OFFCURVE",
"1083 775 CURVE",
"1028 770 OFFCURVE",
"912 761 OFFCURVE",
"833 761 CURVE SMOOTH",
"711 761 OFFCURVE",
"631 770 OFFCURVE",
"576 775 CURVE",
"564 715 OFFCURVE",
"561 575 OFFCURVE",
"569 515 CURVE",
"594 515 LINE",
"594 469 LINE",
"514 469 LINE",
"514 515 LINE",
"538 515 LINE",
"549 575 OFFCURVE",
"546 715 OFFCURVE",
"531 775 CURVE",
"475 770 OFFCURVE",
"401 761 OFFCURVE",
"288 761 CURVE SMOOTH",
"200 761 OFFCURVE",
"84 770 OFFCURVE",
"29 775 CURVE",
"2 712 OFFCURVE",
"2 582 OFFCURVE",
"25 533 CURVE",
"49 532 OFFCURVE",
"91 509 OFFCURVE",
"91 381 CURVE SMOOTH",
"91 263 OFFCURVE",
"57 233 OFFCURVE",
"25 222 CURVE",
"7 165 OFFCURVE",
"10 40 OFFCURVE",
"32 -17 CURVE"
);
}
);
width = 1112;
}
);
leftKerningGroup = N;
rightKerningGroup = N;
unicode = 0048;
},
{
color = 5;
glyphname = Hbar;
layers = (
{
anchors = (
{
name = bottom;
position = "{556, 0}";
},
{
name = top;
position = "{556, 696}";
}
);
layerId = "863809E3-B3D3-4728-B9C6-73F0AB5A9F00";
paths = (
{
closed = 1;
nodes = (
"91 -11 OFFCURVE",
"179 -1 OFFCURVE",
"287 -1 CURVE SMOOTH",
"420 -1 OFFCURVE",
"476 -12 OFFCURVE",
"531 -17 CURVE",
"546 40 OFFCURVE",
"549 175 OFFCURVE",
"538 232 CURVE",
"514 232 LINE",
"514 283 LINE",
"594 283 LINE",
"594 232 LINE",
"569 232 LINE",
"561 175 OFFCURVE",
"564 40 OFFCURVE",
"576 -17 CURVE",
"631 -12 OFFCURVE",
"726 -1 OFFCURVE",
"833 -1 CURVE SMOOTH",
"951 -1 OFFCURVE",
"1025 -12 OFFCURVE",
"1080 -17 CURVE",
"1102 40 OFFCURVE",
"1105 165 OFFCURVE",
"1087 222 CURVE",
"1055 233 OFFCURVE",
"1021 263 OFFCURVE",
"1021 381 CURVE SMOOTH",
"1021 392 LINE",
"1089 392 LINE",
"1112 476 OFFCURVE",
"1107 731 OFFCURVE",
"1083 775 CURVE",
"1028 770 OFFCURVE",
"912 761 OFFCURVE",
"824 761 CURVE SMOOTH",
"702 761 OFFCURVE",
"631 770 OFFCURVE",
"576 775 CURVE",
"569 739 OFFCURVE",
"565 673 OFFCURVE",
"565 609 CURVE",
"545 609 LINE",
"545 673 OFFCURVE",
"540 739 OFFCURVE",
"531 775 CURVE",
"475 770 OFFCURVE",
"401 761 OFFCURVE",
"288 761 CURVE SMOOTH",
"200 761 OFFCURVE",
"84 770 OFFCURVE",
"29 775 CURVE",
"22 759 OFFCURVE",
"17 729 OFFCURVE",
"14 636 CURVE",
"200 636 LINE",
"158 607 OFFCURVE",
"62 609 OFFCURVE",
"23 609 CURVE",
"3 565 OFFCURVE",
"4 436 OFFCURVE",
"23 392 CURVE",
"91 392 LINE",
"91 381 LINE SMOOTH",
"91 263 OFFCURVE",
"57 233 OFFCURVE",
"25 222 CURVE",
"7 165 OFFCURVE",
"10 40 OFFCURVE",
"32 -17 CURVE"
);
},
{
closed = 1;
nodes = (
"514 497 LINE",
"594 497 LINE",
"594 451 LINE",
"514 451 LINE"
);
}
);
width = 1112;
}
);
leftKerningGroup = Hbar;
leftMetricsKey = "=H";
rightKerningGroup = Hbar;
rightMetricsKey = "=H";
unicode = 0126;
},
{
color = 7;
glyphname = Hbrevebelow;
layers = (
{
anchors = (
{
name = bottom;
position = "{556, -103}";
},
{
name = top;
position = "{556, 696}";
}
);
layerId = "863809E3-B3D3-4728-B9C6-73F0AB5A9F00";
paths = (
{
closed = 1;
nodes = (
"954 -1 OFFCURVE",
"1026 -12 OFFCURVE",
"1080 -17 CURVE",
"1102 40 OFFCURVE",
"1105 165 OFFCURVE",
"1087 222 CURVE",
"1055 233 OFFCURVE",
"1021 263 OFFCURVE",
"1021 381 CURVE SMOOTH",
"1021 509 OFFCURVE",
"1063 532 OFFCURVE",
"1087 533 CURVE",
"1110 582 OFFCURVE",
"1110 712 OFFCURVE",
"1083 775 CURVE",
"1028 770 OFFCURVE",
"912 761 OFFCURVE",
"833 761 CURVE SMOOTH",
"711 761 OFFCURVE",
"631 770 OFFCURVE",
"576 775 CURVE",
"564 715 OFFCURVE",
"561 575 OFFCURVE",
"569 515 CURVE",
"594 515 LINE",
"594 469 LINE",
"514 469 LINE",
"514 515 LINE",
"538 515 LINE",
"549 575 OFFCURVE",
"546 715 OFFCURVE",
"531 775 CURVE",
"475 770 OFFCURVE",
"401 761 OFFCURVE",
"288 761 CURVE SMOOTH",
"200 761 OFFCURVE",
"84 770 OFFCURVE",
"29 775 CURVE",
"2 712 OFFCURVE",
"2 582 OFFCURVE",
"25 533 CURVE",
"49 532 OFFCURVE",
"91 509 OFFCURVE",
"91 381 CURVE SMOOTH",
"91 263 OFFCURVE",
"57 233 OFFCURVE",
"25 222 CURVE",
"7 165 OFFCURVE",
"10 40 OFFCURVE",
"32 -17 CURVE",
"81 -12 OFFCURVE",
"151 -4 OFFCURVE",
"236 -1 CURVE",
"226 56 OFFCURVE",
"238 109 OFFCURVE",
"262 152 CURVE",
"234 -23 OFFCURVE",
"347 -173 OFFCURVE",
"544 -173 CURVE SMOOTH",
"703 -173 OFFCURVE",
"806 -108 OFFCURVE",
"841 -1 CURVE"
);
},
{
closed = 1;
nodes = (
"514 291 LINE",
"594 291 LINE",
"594 234 LINE",
"514 234 LINE"
);
}
);
width = 1112;
}
);
leftKerningGroup = N;
leftMetricsKey = "=H";
rightKerningGroup = N;
rightMetricsKey = "=H";
unicode = 1E2A;
},
{
color = 7;
glyphname = Hcaron;
layers = (
{
anchors = (
{
name = bottom;
position = "{556, 0}";
},
{
name = top;
position = "{556, 799}";
}
);
layerId = "863809E3-B3D3-4728-B9C6-73F0AB5A9F00";
paths = (
{
closed = 1;
nodes = (
"91 -11 OFFCURVE",
"179 -1 OFFCURVE",
"287 -1 CURVE SMOOTH",
"420 -1 OFFCURVE",
"476 -12 OFFCURVE",
"531 -17 CURVE",
"546 40 OFFCURVE",
"549 175 OFFCURVE",
"538 232 CURVE",
"514 232 LINE",
"514 283 LINE",
"594 283 LINE",
"594 232 LINE",
"569 232 LINE",
"561 175 OFFCURVE",
"564 40 OFFCURVE",
"576 -17 CURVE",
"631 -12 OFFCURVE",
"726 -1 OFFCURVE",
"833 -1 CURVE SMOOTH",
"951 -1 OFFCURVE",
"1025 -12 OFFCURVE",
"1080 -17 CURVE",
"1102 40 OFFCURVE",
"1105 165 OFFCURVE",
"1087 222 CURVE",
"1055 233 OFFCURVE",
"1021 263 OFFCURVE",
"1021 381 CURVE SMOOTH",
"1021 509 OFFCURVE",
"1063 532 OFFCURVE",
"1087 533 CURVE",
"1110 582 OFFCURVE",
"1110 712 OFFCURVE",
"1083 775 CURVE",
"1031 770 OFFCURVE",
"924 762 OFFCURVE",
"846 761 CURVE",
"852 790 OFFCURVE",
"853 820 OFFCURVE",
"849 847 CURVE",
"814 865 OFFCURVE",
"716 874 OFFCURVE",
"671 875 CURVE",
"618 861 OFFCURVE",
"557 811 OFFCURVE",
"502 748 CURVE",
"477 765 LINE",
"495 785 OFFCURVE",
"513 804 OFFCURVE",
"531 821 CURVE",
"497 846 OFFCURVE",
"458 867 OFFCURVE",
"429 875 CURVE",
"388 874 OFFCURVE",
"296 865 OFFCURVE",
"261 847 CURVE",
"245 747 OFFCURVE",
"299 627 OFFCURVE",
"362 560 CURVE",
"298 593 OFFCURVE",
"237 666 OFFCURVE",
"227 762 CURVE",
"152 765 OFFCURVE",
"72 771 OFFCURVE",
"29 775 CURVE",
"2 712 OFFCURVE",
"2 582 OFFCURVE",
"25 533 CURVE",
"49 532 OFFCURVE",
"91 509 OFFCURVE",
"91 381 CURVE SMOOTH",
"91 263 OFFCURVE",
"57 233 OFFCURVE",
"25 222 CURVE",
"7 165 OFFCURVE",
"10 40 OFFCURVE",
"32 -17 CURVE"
);
},
{
closed = 1;
nodes = (
"514 507 LINE",
"594 507 LINE",
"594 451 LINE",
"514 451 LINE"
);
}
);
width = 1112;
}
);
leftKerningGroup = N;
leftMetricsKey = "=H";
rightKerningGroup = N;
rightMetricsKey = "=H";
unicode = 021E;
},
{
color = 7;
glyphname = Hcedilla;
layers = (
{
anchors = (
{
name = bottom;
position = "{556, -103}";
},
{
name = top;
position = "{556, 696}";
}
);
layerId = "863809E3-B3D3-4728-B9C6-73F0AB5A9F00";
paths = (
{
closed = 1;
nodes = (
"668 -172 OFFCURVE",
"760 -133 OFFCURVE",
"767 -2 CURVE",
"788 -1 OFFCURVE",
"810 -1 OFFCURVE",
"833 -1 CURVE SMOOTH",
"951 -1 OFFCURVE",
"1025 -12 OFFCURVE",
"1080 -17 CURVE",
"1102 40 OFFCURVE",
"1105 165 OFFCURVE",
"1087 222 CURVE",
"1055 233 OFFCURVE",
"1021 263 OFFCURVE",
"1021 381 CURVE SMOOTH",
"1021 509 OFFCURVE",
"1063 532 OFFCURVE",
"1087 533 CURVE",
"1110 582 OFFCURVE",
"1110 712 OFFCURVE",
"1083 775 CURVE",
"1028 770 OFFCURVE",
"912 761 OFFCURVE",
"833 761 CURVE SMOOTH",
"711 761 OFFCURVE",
"631 770 OFFCURVE",
"576 775 CURVE",
"564 715 OFFCURVE",
"561 575 OFFCURVE",
"569 515 CURVE",
"594 515 LINE",
"594 469 LINE",
"514 469 LINE",
"514 515 LINE",
"538 515 LINE",
"549 575 OFFCURVE",
"546 715 OFFCURVE",
"531 775 CURVE",
"475 770 OFFCURVE",
"401 761 OFFCURVE",
"288 761 CURVE SMOOTH",
"200 761 OFFCURVE",
"84 770 OFFCURVE",
"29 775 CURVE",
"2 712 OFFCURVE",
"2 582 OFFCURVE",
"25 533 CURVE",
"49 532 OFFCURVE",
"91 509 OFFCURVE",
"91 381 CURVE SMOOTH",
"91 263 OFFCURVE",
"57 233 OFFCURVE",
"25 222 CURVE",
"7 165 OFFCURVE",
"10 40 OFFCURVE",
"32 -17 CURVE",
"91 -11 OFFCURVE",
"179 -1 OFFCURVE",
"287 -1 CURVE SMOOTH",
"298 -1 OFFCURVE",
"308 -1 OFFCURVE",
"318 -1 CURVE",
"340 35 OFFCURVE",
"347 83 OFFCURVE",
"340 139 CURVE",
"406 10 OFFCURVE",
"324 -96 OFFCURVE",
"287 -150 CURVE",
"338 -165 OFFCURVE",
"410 -172 OFFCURVE",
"502 -172 CURVE SMOOTH"
);
},
{
closed = 1;
nodes = (
"514 295 LINE",
"594 295 LINE",
"594 238 LINE",
"514 238 LINE"
);
}
);
width = 1112;
}
);
leftKerningGroup = N;
leftMetricsKey = "=H";
rightKerningGroup = N;
rightMetricsKey = "=H";
unicode = 1E28;
},
{
color = 5;
glyphname = Hcircumflex;
layers = (
{
anchors = (
{
name = bottom;
position = "{556, 0}";
},
{
name = top;
position = "{556, 799}";
}
);
layerId = "863809E3-B3D3-4728-B9C6-73F0AB5A9F00";
paths = (
{
closed = 1;
nodes = (
"91 -11 OFFCURVE",
"179 -1 OFFCURVE",
"287 -1 CURVE SMOOTH",
"420 -1 OFFCURVE",
"476 -12 OFFCURVE",
"531 -17 CURVE",
"546 40 OFFCURVE",
"549 175 OFFCURVE",
"538 232 CURVE",
"514 232 LINE",
"514 283 LINE",
"594 283 LINE",
"594 232 LINE",
"569 232 LINE",
"561 175 OFFCURVE",
"564 40 OFFCURVE",
"576 -17 CURVE",
"631 -12 OFFCURVE",
"726 -1 OFFCURVE",
"833 -1 CURVE SMOOTH",
"951 -1 OFFCURVE",
"1025 -12 OFFCURVE",
"1080 -17 CURVE",
"1102 40 OFFCURVE",
"1105 165 OFFCURVE",
"1087 222 CURVE",
"1055 233 OFFCURVE",
"1021 263 OFFCURVE",
"1021 381 CURVE SMOOTH",
"1021 509 OFFCURVE",
"1063 532 OFFCURVE",
"1087 533 CURVE",
"1110 582 OFFCURVE",
"1110 712 OFFCURVE",
"1083 775 CURVE",
"1028 770 OFFCURVE",
"912 761 OFFCURVE",
"833 761 CURVE SMOOTH",
"797 761 LINE",
"765 814 OFFCURVE",
"734 847 OFFCURVE",
"706 867 CURVE",
"678 872 OFFCURVE",
"619 875 OFFCURVE",
"558 875 CURVE SMOOTH",
"502 875 OFFCURVE",
"443 873 OFFCURVE",
"404 867 CURVE",
"341 824 OFFCURVE",
"281 728 OFFCURVE",
"267 624 CURVE",
"257 671 OFFCURVE",
"260 725 OFFCURVE",
"276 761 CURVE",
"190 762 OFFCURVE",
"82 770 OFFCURVE",
"29 775 CURVE",
"2 712 OFFCURVE",
"2 582 OFFCURVE",
"25 533 CURVE",
"49 532 OFFCURVE",
"91 509 OFFCURVE",
"91 381 CURVE SMOOTH",
"91 263 OFFCURVE",
"57 233 OFFCURVE",
"25 222 CURVE",
"7 165 OFFCURVE",
"10 40 OFFCURVE",
"32 -17 CURVE"
);
},
{
closed = 1;
nodes = (
"514 507 LINE",
"594 507 LINE",
"594 451 LINE",
"514 451 LINE"
);
}
);
width = 1112;
}
);
leftKerningGroup = N;
leftMetricsKey = "=H";
rightKerningGroup = N;
rightMetricsKey = "=H";
unicode = 0124;
},
{
color = 7;
glyphname = Hdieresis;
layers = (
{
anchors = (
{
name = bottom;
position = "{556, 0}";
},
{
name = top;
position = "{556, 799}";
}
);
layerId = "863809E3-B3D3-4728-B9C6-73F0AB5A9F00";
paths = (
{
closed = 1;
nodes = (
"91 -11 OFFCURVE",
"179 -1 OFFCURVE",
"287 -1 CURVE SMOOTH",
"420 -1 OFFCURVE",
"476 -12 OFFCURVE",
"531 -17 CURVE",
"546 40 OFFCURVE",
"549 175 OFFCURVE",
"538 232 CURVE",
"514 232 LINE",
"514 283 LINE",
"594 283 LINE",
"594 232 LINE",
"569 232 LINE",
"561 175 OFFCURVE",
"564 40 OFFCURVE",
"576 -17 CURVE",
"631 -12 OFFCURVE",
"726 -1 OFFCURVE",
"833 -1 CURVE SMOOTH",
"951 -1 OFFCURVE",
"1025 -12 OFFCURVE",
"1080 -17 CURVE",
"1102 40 OFFCURVE",
"1105 165 OFFCURVE",
"1087 222 CURVE",
"1055 233 OFFCURVE",
"1021 263 OFFCURVE",
"1021 381 CURVE SMOOTH",
"1021 509 OFFCURVE",
"1063 532 OFFCURVE",
"1087 533 CURVE",
"1110 582 OFFCURVE",
"1110 712 OFFCURVE",
"1083 775 CURVE",
"1039 771 OFFCURVE",
"959 765 OFFCURVE",
"887 763 CURVE",
"864 827 OFFCURVE",
"802 876 OFFCURVE",
"682 876 CURVE SMOOTH",
"554 876 OFFCURVE",
"491 822 OFFCURVE",
"470 760 CURVE",
"462 795 OFFCURVE",
"474 837 OFFCURVE",
"518 866 CURVE",
"494 871 OFFCURVE",
"465 876 OFFCURVE",
"432 876 CURVE SMOOTH",
"267 876 OFFCURVE",
"212 786 OFFCURVE",
"212 707 CURVE SMOOTH",
"212 621 OFFCURVE",
"274 554 OFFCURVE",
"353 535 CURVE",
"234 530 OFFCURVE",
"147 619 OFFCURVE",
"172 765 CURVE",
"115 768 OFFCURVE",
"62 772 OFFCURVE",
"29 775 CURVE",
"2 712 OFFCURVE",
"2 582 OFFCURVE",
"25 533 CURVE",
"49 532 OFFCURVE",
"91 509 OFFCURVE",
"91 381 CURVE SMOOTH",
"91 263 OFFCURVE",
"57 233 OFFCURVE",
"25 222 CURVE",
"7 165 OFFCURVE",
"10 40 OFFCURVE",
"32 -17 CURVE"
);
},
{
closed = 1;
nodes = (
"514 507 LINE",
"594 507 LINE",
"594 451 LINE",
"514 451 LINE"
);
}
);
width = 1112;
}
);
leftKerningGroup = N;
leftMetricsKey = "=H";
rightKerningGroup = N;
rightMetricsKey = "=H";
unicode = 1E26;
},
{
color = 7;
glyphname = Hdotaccent;
layers = (
{
anchors = (
{
name = bottom;
position = "{556, 0}";
},
{
name = top;
position = "{556, 799}";
}
);
layerId = "863809E3-B3D3-4728-B9C6-73F0AB5A9F00";
paths = (
{
closed = 1;
nodes = (
"91 -11 OFFCURVE",
"179 -1 OFFCURVE",
"287 -1 CURVE SMOOTH",
"420 -1 OFFCURVE",
"476 -12 OFFCURVE",
"531 -17 CURVE",
"546 40 OFFCURVE",
"549 175 OFFCURVE",
"538 232 CURVE",
"514 232 LINE",
"514 283 LINE",
"594 283 LINE",
"594 232 LINE",
"569 232 LINE",
"561 175 OFFCURVE",
"564 40 OFFCURVE",
"576 -17 CURVE",
"631 -12 OFFCURVE",
"726 -1 OFFCURVE",
"833 -1 CURVE SMOOTH",
"951 -1 OFFCURVE",
"1025 -12 OFFCURVE",
"1080 -17 CURVE",
"1102 40 OFFCURVE",
"1105 165 OFFCURVE",
"1087 222 CURVE",
"1055 233 OFFCURVE",
"1021 263 OFFCURVE",
"1021 381 CURVE SMOOTH",
"1021 509 OFFCURVE",
"1063 532 OFFCURVE",
"1087 533 CURVE",
"1110 582 OFFCURVE",
"1110 712 OFFCURVE",
"1083 775 CURVE",
"1028 770 OFFCURVE",
"912 761 OFFCURVE",
"833 761 CURVE SMOOTH",
"807 761 OFFCURVE",
"783 761 OFFCURVE",
"760 762 CURVE",
"729 837 OFFCURVE",
"661 876 OFFCURVE",
"543 876 CURVE SMOOTH",
"387 876 OFFCURVE",
"334 788 OFFCURVE",
"334 707 CURVE SMOOTH",
"334 648 OFFCURVE",
"364 597 OFFCURVE",
"408 565 CURVE",
"331 584 OFFCURVE",
"281 654 OFFCURVE",
"303 761 CURVE",
"227 761 OFFCURVE",
"104 768 OFFCURVE",
"29 775 CURVE",
"2 712 OFFCURVE",
"2 582 OFFCURVE",
"25 533 CURVE",
"49 532 OFFCURVE",
"91 509 OFFCURVE",
"91 381 CURVE SMOOTH",
"91 263 OFFCURVE",
"57 233 OFFCURVE",
"25 222 CURVE",
"7 165 OFFCURVE",
"10 40 OFFCURVE",
"32 -17 CURVE"
);
},
{
closed = 1;
nodes = (
"514 508 LINE",
"594 508 LINE",
"594 451 LINE",
"514 451 LINE"
);
}
);
width = 1112;
}
);
leftKerningGroup = N;
leftMetricsKey = "=H";
rightKerningGroup = N;
rightMetricsKey = "=H";
unicode = 1E22;
},
{
color = 7;
glyphname = Hdotbelow;
layers = (
{
anchors = (
{
name = bottom;
position = "{556, -103}";
},
{
name = top;
position = "{556, 696}";
}
);
layerId = "863809E3-B3D3-4728-B9C6-73F0AB5A9F00";
paths = (
{
closed = 1;
nodes = (
"716 -173 OFFCURVE",
"772 -89 OFFCURVE",
"772 -4 CURVE SMOOTH",
"772 -4 OFFCURVE",
"772 -3 OFFCURVE",
"772 -2 CURVE",
"792 -2 OFFCURVE",
"812 -1 OFFCURVE",
"833 -1 CURVE SMOOTH",
"951 -1 OFFCURVE",
"1025 -12 OFFCURVE",
"1080 -17 CURVE",
"1102 40 OFFCURVE",
"1105 165 OFFCURVE",
"1087 222 CURVE",
"1055 233 OFFCURVE",
"1021 263 OFFCURVE",
"1021 381 CURVE SMOOTH",
"1021 509 OFFCURVE",
"1063 532 OFFCURVE",
"1087 533 CURVE",
"1110 582 OFFCURVE",
"1110 712 OFFCURVE",
"1083 775 CURVE",
"1028 770 OFFCURVE",
"912 761 OFFCURVE",
"833 761 CURVE SMOOTH",
"711 761 OFFCURVE",
"631 770 OFFCURVE",
"576 775 CURVE",
"564 715 OFFCURVE",
"561 575 OFFCURVE",
"569 515 CURVE",
"594 515 LINE",
"594 469 LINE",
"514 469 LINE",
"514 515 LINE",
"538 515 LINE",
"549 575 OFFCURVE",
"546 715 OFFCURVE",
"531 775 CURVE",
"475 770 OFFCURVE",
"401 761 OFFCURVE",
"288 761 CURVE SMOOTH",
"200 761 OFFCURVE",
"84 770 OFFCURVE",
"29 775 CURVE",
"2 712 OFFCURVE",
"2 582 OFFCURVE",
"25 533 CURVE",
"49 532 OFFCURVE",
"91 509 OFFCURVE",
"91 381 CURVE SMOOTH",
"91 263 OFFCURVE",
"57 233 OFFCURVE",
"25 222 CURVE",
"7 165 OFFCURVE",
"10 40 OFFCURVE",
"32 -17 CURVE",
"91 -11 OFFCURVE",
"179 -1 OFFCURVE",
"287 -1 CURVE SMOOTH",
"292 -1 OFFCURVE",
"297 -1 OFFCURVE",
"302 -1 CURVE",
"306 67 OFFCURVE",
"346 146 OFFCURVE",
"432 151 CURVE",
"362 119 OFFCURVE",
"335 59 OFFCURVE",
"335 5 CURVE SMOOTH",
"335 -97 OFFCURVE",
"411 -173 OFFCURVE",
"557 -173 CURVE SMOOTH"
);
},
{
closed = 1;
nodes = (
"514 295 LINE",
"594 295 LINE",
"594 238 LINE",
"514 238 LINE"
);
}
);
width = 1112;
}
);
leftKerningGroup = N;
leftMetricsKey = "=H";
rightKerningGroup = N;
rightMetricsKey = "=H";
unicode = 1E24;
},
{
color = 7;
glyphname = Heng;
layers = (
{
anchors = (
{
name = bottom;
position = "{556, 0}";
},
{
name = top;
position = "{556, 696}";
}
);
layerId = "863809E3-B3D3-4728-B9C6-73F0AB5A9F00";
paths = (
{
closed = 1;
nodes = (
"892 -173 OFFCURVE",
"1064 -122 OFFCURVE",
"1064 81 CURVE SMOOTH",
"1064 204 OFFCURVE",
"1021 250 OFFCURVE",
"1021 391 CURVE SMOOTH",
"1021 509 OFFCURVE",
"1063 532 OFFCURVE",
"1087 533 CURVE",
"1110 582 OFFCURVE",
"1110 712 OFFCURVE",
"1083 775 CURVE",
"1028 770 OFFCURVE",
"912 761 OFFCURVE",
"833 761 CURVE SMOOTH",
"711 761 OFFCURVE",
"631 770 OFFCURVE",
"576 775 CURVE",
"564 715 OFFCURVE",
"561 575 OFFCURVE",
"569 515 CURVE",
"594 515 LINE",
"594 469 LINE",
"514 469 LINE",
"514 515 LINE",
"538 515 LINE",
"549 575 OFFCURVE",
"546 715 OFFCURVE",
"531 775 CURVE",
"475 770 OFFCURVE",
"401 761 OFFCURVE",
"288 761 CURVE SMOOTH",
"200 761 OFFCURVE",
"84 770 OFFCURVE",
"29 775 CURVE",
"2 712 OFFCURVE",
"2 582 OFFCURVE",
"25 533 CURVE",
"49 532 OFFCURVE",
"91 509 OFFCURVE",
"91 381 CURVE SMOOTH",
"91 263 OFFCURVE",
"57 233 OFFCURVE",
"25 222 CURVE",
"7 165 OFFCURVE",
"10 40 OFFCURVE",
"32 -17 CURVE",
"91 -10 OFFCURVE",
"179 -1 OFFCURVE",
"287 -1 CURVE SMOOTH",
"420 -1 OFFCURVE",
"476 -4 OFFCURVE",
"524 -8 CURVE",
"554 42 OFFCURVE",
"569 162 OFFCURVE",
"560 232 CURVE",
"514 232 LINE",
"514 283 LINE",
"593 283 LINE",
"593 232 LINE SMOOTH",
"593 154 OFFCURVE",
"591 57 OFFCURVE",
"561 0 CURVE",
"548 -60 OFFCURVE",
"544 -111 OFFCURVE",
"567 -167 CURVE",
"618 -172 OFFCURVE",
"666 -173 OFFCURVE",
"709 -173 CURVE SMOOTH"
);
}
);
width = 1112;
}
);
leftKerningGroup = N;
leftMetricsKey = "=H";
rightKerningGroup = Eng;
rightMetricsKey = "=Eng";
unicode = A726;
},
{
color = 7;
glyphname = Hhook;
layers = (
{
anchors = (
{
name = bottom;
position = "{711, 0}";
},
{
name = top;
position = "{711, 696}";
}
);
layerId = "863809E3-B3D3-4728-B9C6-73F0AB5A9F00";
paths = (
{
closed = 1;
nodes = (
"246 -11 OFFCURVE",
"334 -1 OFFCURVE",
"442 -1 CURVE SMOOTH",
"575 -1 OFFCURVE",
"631 -12 OFFCURVE",
"686 -17 CURVE",
"701 40 OFFCURVE",
"704 175 OFFCURVE",
"693 232 CURVE",
"669 232 LINE",
"669 283 LINE",
"749 283 LINE",
"749 232 LINE",
"724 232 LINE",
"716 175 OFFCURVE",
"719 40 OFFCURVE",
"731 -17 CURVE",
"786 -12 OFFCURVE",
"881 -1 OFFCURVE",
"988 -1 CURVE SMOOTH",
"1106 -1 OFFCURVE",
"1180 -12 OFFCURVE",
"1235 -17 CURVE",
"1257 40 OFFCURVE",
"1260 165 OFFCURVE",
"1242 222 CURVE",
"1210 233 OFFCURVE",
"1176 263 OFFCURVE",
"1176 381 CURVE SMOOTH",
"1176 509 OFFCURVE",
"1218 532 OFFCURVE",
"1242 533 CURVE",
"1265 582 OFFCURVE",
"1265 712 OFFCURVE",
"1238 775 CURVE",
"1183 770 OFFCURVE",
"1067 761 OFFCURVE",
"988 761 CURVE SMOOTH",
"866 761 OFFCURVE",
"786 770 OFFCURVE",
"731 775 CURVE",
"719 715 OFFCURVE",
"716 575 OFFCURVE",
"724 515 CURVE",
"749 515 LINE",
"749 469 LINE",
"669 469 LINE",
"669 515 LINE",
"693 515 LINE",
"704 575 OFFCURVE",
"701 715 OFFCURVE",
"686 775 CURVE",
"633 769 OFFCURVE",
"562 761 OFFCURVE",
"499 761 CURVE SMOOTH",
"423 761 OFFCURVE",
"342 770 OFFCURVE",
"283 770 CURVE SMOOTH",
"132 770 OFFCURVE",
"0 691 OFFCURVE",
"0 490 CURVE SMOOTH",
"0 432 OFFCURVE",
"3 377 OFFCURVE",
"19 299 CURVE",
"51 279 OFFCURVE",
"198 283 OFFCURVE",
"231 303 CURVE",
"231 463 LINE",
"266 463 LINE",
"266 371 LINE SMOOTH",
"266 263 OFFCURVE",
"222 233 OFFCURVE",
"180 222 CURVE",
"162 165 OFFCURVE",
"165 40 OFFCURVE",
"187 -17 CURVE"
);
}
);
width = 1267;
},
{
associatedMasterId = "863809E3-B3D3-4728-B9C6-73F0AB5A9F00";
layerId = "1032122B-C406-4917-B808-F7D59265F680";
name = "Nov 22 23, 11:58";
paths = (
{
closed = 1;
nodes = (
"215 -11 OFFCURVE",
"303 -1 OFFCURVE",
"411 -1 CURVE SMOOTH",
"544 -1 OFFCURVE",
"600 -12 OFFCURVE",
"655 -17 CURVE",
"670 40 OFFCURVE",
"673 175 OFFCURVE",
"662 232 CURVE",
"638 232 LINE",
"638 283 LINE",
"718 283 LINE",
"718 232 LINE",
"693 232 LINE",
"685 175 OFFCURVE",
"688 40 OFFCURVE",
"700 -17 CURVE",
"755 -12 OFFCURVE",
"850 -1 OFFCURVE",
"957 -1 CURVE SMOOTH",
"1075 -1 OFFCURVE",
"1149 -12 OFFCURVE",
"1204 -17 CURVE",
"1226 40 OFFCURVE",
"1229 165 OFFCURVE",
"1211 222 CURVE",
"1179 233 OFFCURVE",
"1145 263 OFFCURVE",
"1145 381 CURVE SMOOTH",
"1145 509 OFFCURVE",
"1187 532 OFFCURVE",
"1211 533 CURVE",
"1234 582 OFFCURVE",
"1234 712 OFFCURVE",
"1207 775 CURVE",
"1152 770 OFFCURVE",
"1036 761 OFFCURVE",
"957 761 CURVE SMOOTH",
"835 761 OFFCURVE",
"755 770 OFFCURVE",
"700 775 CURVE",
"688 715 OFFCURVE",
"685 575 OFFCURVE",
"693 515 CURVE",
"718 515 LINE",
"718 469 LINE",
"638 469 LINE",
"638 515 LINE",
"662 515 LINE",
"673 575 OFFCURVE",
"670 715 OFFCURVE",
"655 775 CURVE",
"602 769 OFFCURVE",
"531 761 OFFCURVE",
"468 761 CURVE SMOOTH",
"392 761 OFFCURVE",
"311 770 OFFCURVE",
"241 770 CURVE SMOOTH",
"92 770 OFFCURVE",
"2 685 OFFCURVE",
"2 502 CURVE SMOOTH",
"2 444 OFFCURVE",
"11 377 OFFCURVE",
"27 299 CURVE",
"59 293 OFFCURVE",
"145 297 OFFCURVE",
"178 303 CURVE",
"178 463 LINE",
"215 463 LINE",
"215 381 LINE SMOOTH",
"215 263 OFFCURVE",
"181 233 OFFCURVE",
"149 222 CURVE",
"131 165 OFFCURVE",
"134 40 OFFCURVE",
"156 -17 CURVE"
);
}
);
width = 1236;
}
);
leftKerningGroup = Bhook;
leftMetricsKey = "=Bhook";
rightKerningGroup = N;
rightMetricsKey = "=H";
unicode = A7AA;
},
{
color = 7;
glyphname = Hturned;
layers = (
{
anchors = (
{
name = top;
position = "{556, 696}";
}
);
layerId = "863809E3-B3D3-4728-B9C6-73F0AB5A9F00";
paths = (
{
closed = 1;
nodes = (
"563 -11 OFFCURVE",
"664 -1 OFFCURVE",
"793 -1 CURVE SMOOTH",
"901 -1 OFFCURVE",
"1025 -10 OFFCURVE",
"1080 -17 CURVE",
"1102 40 OFFCURVE",
"1105 165 OFFCURVE",
"1087 222 CURVE",
"1055 233 OFFCURVE",
"1021 263 OFFCURVE",
"1021 381 CURVE SMOOTH",
"1021 509 OFFCURVE",
"1063 532 OFFCURVE",
"1087 533 CURVE",
"1110 582 OFFCURVE",
"1110 712 OFFCURVE",
"1083 775 CURVE",
"1028 770 OFFCURVE",
"912 761 OFFCURVE",
"833 761 CURVE SMOOTH",
"711 761 OFFCURVE",
"631 769 OFFCURVE",
"576 775 CURVE",
"564 715 OFFCURVE",
"561 575 OFFCURVE",
"569 515 CURVE",
"594 515 LINE",
"594 469 LINE",
"514 469 LINE",
"514 515 LINE",
"538 515 LINE",
"549 575 OFFCURVE",
"546 715 OFFCURVE",
"531 775 CURVE",
"475 768 OFFCURVE",
"401 761 OFFCURVE",
"288 761 CURVE SMOOTH",
"200 761 OFFCURVE",
"84 770 OFFCURVE",
"29 775 CURVE",
"2 712 OFFCURVE",
"2 582 OFFCURVE",
"25 533 CURVE",
"59 532 OFFCURVE",
"91 509 OFFCURVE",
"91 411 CURVE SMOOTH",
"91 368 OFFCURVE",
"86 315 OFFCURVE",
"86 270 CURVE",
"259 281 OFFCURVE",
"433 281 OFFCURVE",
"598 277 CURVE",
"598 241 OFFCURVE",
"547 228 OFFCURVE",
"503 233 CURVE",
"482 166 OFFCURVE",
"485 40 OFFCURVE",
"507 -17 CURVE"
);
}
);
width = 1112;
}
);
leftKerningGroup = Hturned;
rightKerningGroup = N;
rightMetricsKey = "=H";
unicode = A78D;
},
{
color = 4;
glyphname = I;
layers = (
{
anchors = (
{
name = bottom;
position = "{306, 0}";
},
{
name = ogonek;
position = "{551, 10}";
},
{
name = top;
position = "{306, 696}";
},
{
name = topleft;
position = "{20, 760}";
}
);
layerId = "863809E3-B3D3-4728-B9C6-73F0AB5A9F00";
paths = (
{
closed = 1;
nodes = (
"93 -12 OFFCURVE",
"209 -1 OFFCURVE",
"301 -1 CURVE SMOOTH",
"400 -1 OFFCURVE",
"521 -12 OFFCURVE",
"581 -17 CURVE",
"604 40 OFFCURVE",
"608 165 OFFCURVE",
"588 222 CURVE",
"558 233 OFFCURVE",
"522 263 OFFCURVE",
"522 381 CURVE SMOOTH",
"522 509 OFFCURVE",
"557 531 OFFCURVE",
"587 532 CURVE",
"610 581 OFFCURVE",
"611 712 OFFCURVE",
"584 775 CURVE",
"524 770 OFFCURVE",
"403 760 OFFCURVE",
"304 760 CURVE SMOOTH",
"213 760 OFFCURVE",
"90 770 OFFCURVE",
"30 775 CURVE",
"1 712 OFFCURVE",
"1 582 OFFCURVE",
"26 533 CURVE",
"47 532 OFFCURVE",
"92 509 OFFCURVE",
"92 381 CURVE SMOOTH",
"92 263 OFFCURVE",
"56 233 OFFCURVE",
"26 222 CURVE",
"6 165 OFFCURVE",
"10 40 OFFCURVE",
"33 -17 CURVE"
);
}
);
width = 612;
}
);
leftKerningGroup = N;
rightKerningGroup = N;
unicode = 0049;
},
{
color = 5;
glyphname = Iacute;
layers = (
{
anchors = (
{
name = bottom;
position = "{306, 0}";
},
{
name = top;
position = "{306, 799}";
}
);
layerId = "863809E3-B3D3-4728-B9C6-73F0AB5A9F00";
paths = (
{
closed = 1;
nodes = (
"93 -12 OFFCURVE",
"209 -1 OFFCURVE",
"301 -1 CURVE SMOOTH",
"400 -1 OFFCURVE",
"521 -12 OFFCURVE",
"581 -17 CURVE",
"604 40 OFFCURVE",
"608 165 OFFCURVE",
"588 222 CURVE",
"558 233 OFFCURVE",
"522 263 OFFCURVE",
"522 381 CURVE SMOOTH",
"522 509 OFFCURVE",
"557 531 OFFCURVE",
"587 532 CURVE",
"610 581 OFFCURVE",
"611 712 OFFCURVE",
"584 775 CURVE",
"537 772 LINE",
"541 784 OFFCURVE",
"544 794 OFFCURVE",
"545 803 CURVE",
"511 846 OFFCURVE",
"403 877 OFFCURVE",
"299 877 CURVE SMOOTH",
"250 877 OFFCURVE",
"202 870 OFFCURVE",
"163 854 CURVE",
"88 748 OFFCURVE",
"86 615 OFFCURVE",
"144 546 CURVE",
"61 586 OFFCURVE",
"63 694 OFFCURVE",
"82 770 CURVE",
"62 772 OFFCURVE",
"47 774 OFFCURVE",
"30 775 CURVE",
"1 712 OFFCURVE",
"1 582 OFFCURVE",
"26 533 CURVE",
"47 532 OFFCURVE",
"92 509 OFFCURVE",
"92 381 CURVE SMOOTH",
"92 263 OFFCURVE",
"56 233 OFFCURVE",
"26 222 CURVE",
"6 165 OFFCURVE",
"10 40 OFFCURVE",
"33 -17 CURVE"
);
}
);
width = 612;
}
);
leftKerningGroup = N;
leftMetricsKey = "=I";
rightKerningGroup = N;
rightMetricsKey = "=I";
unicode = 00CD;
},
{
color = 5;
glyphname = Ibreve;
layers = (
{
anchors = (
{
name = bottom;
position = "{306, 0}";
},
{
name = top;
position = "{306, 799}";
}
);
layerId = "863809E3-B3D3-4728-B9C6-73F0AB5A9F00";
paths = (
{
closed = 1;
nodes = (
"93 -12 OFFCURVE",
"209 -1 OFFCURVE",
"301 -1 CURVE SMOOTH",
"400 -1 OFFCURVE",
"521 -12 OFFCURVE",
"581 -17 CURVE",
"604 40 OFFCURVE",
"608 165 OFFCURVE",
"588 222 CURVE",
"558 233 OFFCURVE",
"522 263 OFFCURVE",
"522 381 CURVE SMOOTH",
"522 509 OFFCURVE",
"557 531 OFFCURVE",
"587 532 CURVE",
"611 584 OFFCURVE",
"608 763 OFFCURVE",
"597 847 CURVE",
"562 865 OFFCURVE",
"472 874 OFFCURVE",
"431 875 CURVE",
"411 845 OFFCURVE",
"370 830 OFFCURVE",
"310 830 CURVE SMOOTH",
"250 830 OFFCURVE",
"210 845 OFFCURVE",
"189 875 CURVE",
"144 874 OFFCURVE",
"46 865 OFFCURVE",
"11 847 CURVE",
"-8 727 OFFCURVE",
"44 618 OFFCURVE",
"139 562 CURVE",
"79 581 OFFCURVE",
"35 613 OFFCURVE",
"8 655 CURVE",
"6 611 OFFCURVE",
"12 560 OFFCURVE",
"26 533 CURVE",
"47 532 OFFCURVE",
"92 509 OFFCURVE",
"92 381 CURVE SMOOTH",
"92 263 OFFCURVE",
"56 233 OFFCURVE",
"26 222 CURVE",
"6 165 OFFCURVE",
"10 40 OFFCURVE",
"33 -17 CURVE"
);
}
);
width = 612;
}
);
leftKerningGroup = N;
rightKerningGroup = N;
unicode = 012C;
},
